G75*
G70*
%OFA0B0*%
%FSLAX24Y24*%
%IPPOS*%
%LPD*%
%AMOC8*
5,1,8,0,0,1.08239X$1,22.5*
%
%ADD10C,0.0000*%
%ADD11R,0.0906X0.0236*%
%ADD12R,0.0472X0.0315*%
%ADD13R,0.0315X0.0472*%
%ADD14R,0.0472X0.0472*%
%ADD15R,0.0551X0.0394*%
%ADD16R,0.0870X0.0240*%
%ADD17R,0.0866X0.0236*%
%ADD18R,0.0630X0.0709*%
%ADD19R,0.0630X0.1181*%
%ADD20R,0.2283X0.2441*%
%ADD21R,0.0394X0.0551*%
%ADD22R,0.0472X0.0276*%
%ADD23R,0.0354X0.0315*%
%ADD24R,0.2441X0.2126*%
%ADD25R,0.0630X0.0394*%
%ADD26R,0.0327X0.0248*%
%ADD27R,0.0551X0.0630*%
%ADD28R,0.0472X0.0217*%
%ADD29R,0.0740X0.0740*%
%ADD30C,0.0740*%
%ADD31C,0.2000*%
%ADD32R,0.0512X0.0413*%
%ADD33C,0.0120*%
%ADD34C,0.0250*%
%ADD35C,0.0400*%
%ADD36C,0.0160*%
%ADD37C,0.0356*%
%ADD38C,0.0200*%
%ADD39C,0.0300*%
D10*
X000262Y002560D02*
X000262Y022245D01*
X019947Y022245D01*
X019947Y002560D01*
X000262Y002560D01*
X000990Y003938D02*
X000992Y003988D01*
X000998Y004038D01*
X001008Y004088D01*
X001021Y004136D01*
X001038Y004184D01*
X001059Y004230D01*
X001083Y004274D01*
X001111Y004316D01*
X001142Y004356D01*
X001176Y004393D01*
X001213Y004428D01*
X001252Y004459D01*
X001293Y004488D01*
X001337Y004513D01*
X001383Y004535D01*
X001430Y004553D01*
X001478Y004567D01*
X001527Y004578D01*
X001577Y004585D01*
X001627Y004588D01*
X001678Y004587D01*
X001728Y004582D01*
X001778Y004573D01*
X001826Y004561D01*
X001874Y004544D01*
X001920Y004524D01*
X001965Y004501D01*
X002008Y004474D01*
X002048Y004444D01*
X002086Y004411D01*
X002121Y004375D01*
X002154Y004336D01*
X002183Y004295D01*
X002209Y004252D01*
X002232Y004207D01*
X002251Y004160D01*
X002266Y004112D01*
X002278Y004063D01*
X002286Y004013D01*
X002290Y003963D01*
X002290Y003913D01*
X002286Y003863D01*
X002278Y003813D01*
X002266Y003764D01*
X002251Y003716D01*
X002232Y003669D01*
X002209Y003624D01*
X002183Y003581D01*
X002154Y003540D01*
X002121Y003501D01*
X002086Y003465D01*
X002048Y003432D01*
X002008Y003402D01*
X001965Y003375D01*
X001920Y003352D01*
X001874Y003332D01*
X001826Y003315D01*
X001778Y003303D01*
X001728Y003294D01*
X001678Y003289D01*
X001627Y003288D01*
X001577Y003291D01*
X001527Y003298D01*
X001478Y003309D01*
X001430Y003323D01*
X001383Y003341D01*
X001337Y003363D01*
X001293Y003388D01*
X001252Y003417D01*
X001213Y003448D01*
X001176Y003483D01*
X001142Y003520D01*
X001111Y003560D01*
X001083Y003602D01*
X001059Y003646D01*
X001038Y003692D01*
X001021Y003740D01*
X001008Y003788D01*
X000998Y003838D01*
X000992Y003888D01*
X000990Y003938D01*
X018077Y020946D02*
X018079Y020996D01*
X018085Y021046D01*
X018095Y021096D01*
X018108Y021144D01*
X018125Y021192D01*
X018146Y021238D01*
X018170Y021282D01*
X018198Y021324D01*
X018229Y021364D01*
X018263Y021401D01*
X018300Y021436D01*
X018339Y021467D01*
X018380Y021496D01*
X018424Y021521D01*
X018470Y021543D01*
X018517Y021561D01*
X018565Y021575D01*
X018614Y021586D01*
X018664Y021593D01*
X018714Y021596D01*
X018765Y021595D01*
X018815Y021590D01*
X018865Y021581D01*
X018913Y021569D01*
X018961Y021552D01*
X019007Y021532D01*
X019052Y021509D01*
X019095Y021482D01*
X019135Y021452D01*
X019173Y021419D01*
X019208Y021383D01*
X019241Y021344D01*
X019270Y021303D01*
X019296Y021260D01*
X019319Y021215D01*
X019338Y021168D01*
X019353Y021120D01*
X019365Y021071D01*
X019373Y021021D01*
X019377Y020971D01*
X019377Y020921D01*
X019373Y020871D01*
X019365Y020821D01*
X019353Y020772D01*
X019338Y020724D01*
X019319Y020677D01*
X019296Y020632D01*
X019270Y020589D01*
X019241Y020548D01*
X019208Y020509D01*
X019173Y020473D01*
X019135Y020440D01*
X019095Y020410D01*
X019052Y020383D01*
X019007Y020360D01*
X018961Y020340D01*
X018913Y020323D01*
X018865Y020311D01*
X018815Y020302D01*
X018765Y020297D01*
X018714Y020296D01*
X018664Y020299D01*
X018614Y020306D01*
X018565Y020317D01*
X018517Y020331D01*
X018470Y020349D01*
X018424Y020371D01*
X018380Y020396D01*
X018339Y020425D01*
X018300Y020456D01*
X018263Y020491D01*
X018229Y020528D01*
X018198Y020568D01*
X018170Y020610D01*
X018146Y020654D01*
X018125Y020700D01*
X018108Y020748D01*
X018095Y020796D01*
X018085Y020846D01*
X018079Y020896D01*
X018077Y020946D01*
D11*
X015994Y017554D03*
X015994Y017054D03*
X015994Y016554D03*
X015994Y016054D03*
X015994Y015554D03*
X015994Y015054D03*
X015994Y014554D03*
X015994Y014054D03*
X015994Y013554D03*
X015994Y013054D03*
X015994Y012554D03*
X015994Y012054D03*
X015994Y011554D03*
X015994Y011054D03*
X012057Y011054D03*
X012057Y011554D03*
X012057Y012054D03*
X012057Y012554D03*
X012057Y013054D03*
X012057Y013554D03*
X012057Y014054D03*
X012057Y014554D03*
X012057Y015054D03*
X012057Y015554D03*
X012057Y016054D03*
X012057Y016554D03*
X012057Y017054D03*
X012057Y017554D03*
D12*
X012400Y018654D03*
X012400Y019363D03*
X011640Y020946D03*
X011640Y021654D03*
X009711Y018544D03*
X009711Y017836D03*
X006404Y011654D03*
X006404Y010946D03*
X009128Y010678D03*
X009128Y011387D03*
X010577Y010080D03*
X010577Y009371D03*
X006246Y006103D03*
X006246Y005395D03*
X005026Y005316D03*
X005026Y004607D03*
X004120Y004607D03*
X004120Y005316D03*
X003254Y005316D03*
X003254Y004607D03*
X006923Y003765D03*
X006923Y003056D03*
X002034Y009725D03*
X002034Y010434D03*
X003766Y016379D03*
X003766Y017088D03*
X002939Y018938D03*
X002939Y019647D03*
X002152Y019686D03*
X002152Y018977D03*
X015616Y020867D03*
X015616Y021576D03*
X019120Y011182D03*
X019120Y010473D03*
D13*
X018333Y010237D03*
X018333Y009410D03*
X018884Y009410D03*
X019593Y009410D03*
X018333Y011103D03*
X017624Y011103D03*
X017624Y010237D03*
X017624Y009410D03*
X018589Y011969D03*
X019297Y011969D03*
X018227Y012780D03*
X017518Y012780D03*
X017833Y013780D03*
X017124Y013780D03*
X017085Y014623D03*
X017794Y014623D03*
X017833Y015505D03*
X017124Y015505D03*
X017124Y016426D03*
X017833Y016426D03*
X017916Y017225D03*
X017207Y017225D03*
X014542Y018532D03*
X013833Y018532D03*
X014109Y019462D03*
X013400Y019462D03*
X011179Y019371D03*
X010471Y019371D03*
X010471Y018568D03*
X011179Y018568D03*
X011152Y017851D03*
X010443Y017851D03*
X010683Y015312D03*
X009975Y015312D03*
X007860Y015040D03*
X007152Y015040D03*
X007152Y015867D03*
X006443Y015867D03*
X005498Y015828D03*
X005498Y015080D03*
X004790Y015080D03*
X004790Y015828D03*
X007309Y011064D03*
X008018Y011064D03*
X009959Y012859D03*
X010668Y012859D03*
X011345Y010174D03*
X012053Y010174D03*
X011994Y009410D03*
X011286Y009410D03*
X009829Y008190D03*
X009120Y008190D03*
X008262Y008166D03*
X007553Y008166D03*
X006955Y006969D03*
X006246Y006969D03*
X003687Y010395D03*
X002979Y010395D03*
X002026Y008623D03*
X001317Y008623D03*
X001081Y007135D03*
X001790Y007135D03*
X001790Y006214D03*
X001081Y006214D03*
X004750Y010749D03*
X005459Y010749D03*
X007270Y021536D03*
X007979Y021536D03*
D14*
X008038Y020670D03*
X007211Y020670D03*
X018475Y016426D03*
X019301Y016426D03*
X019301Y015505D03*
X018475Y015505D03*
X018475Y014623D03*
X019301Y014623D03*
X019301Y013780D03*
X018475Y013780D03*
D15*
X017927Y018206D03*
X017927Y018954D03*
X017061Y018580D03*
X005998Y003773D03*
X005998Y003025D03*
X005132Y003399D03*
D16*
X013323Y008243D03*
X013323Y008743D03*
X013323Y009243D03*
X013323Y009743D03*
X015383Y009743D03*
X015383Y009243D03*
X015383Y008743D03*
X015383Y008243D03*
D17*
X005014Y008135D03*
X005014Y008635D03*
X005014Y009135D03*
X005014Y007635D03*
X005014Y007135D03*
X005014Y006635D03*
X005014Y006135D03*
X002967Y006135D03*
X002967Y006635D03*
X002967Y007135D03*
X002967Y007635D03*
X002967Y008135D03*
X002967Y008635D03*
X002967Y009135D03*
D18*
X003109Y003253D03*
X004211Y003253D03*
X015510Y019489D03*
X016612Y019489D03*
D19*
X003207Y015277D03*
X001412Y015277D03*
D20*
X002309Y012450D03*
D21*
X004731Y011497D03*
X005479Y011497D03*
X005105Y012363D03*
X008353Y014410D03*
X009101Y014410D03*
X008727Y013544D03*
X008943Y009883D03*
X009691Y009883D03*
X009317Y009017D03*
D22*
X010479Y008544D03*
X011935Y008544D03*
X008746Y011930D03*
X007290Y011930D03*
X006699Y010119D03*
X008156Y010119D03*
D23*
X005616Y013643D03*
X005616Y014391D03*
X004790Y014017D03*
D24*
X006640Y018741D03*
D25*
X003766Y017843D03*
X003766Y019639D03*
D26*
X001404Y019666D03*
X001404Y018761D03*
D27*
X001404Y017088D03*
X002506Y017088D03*
D28*
X013569Y020847D03*
X013569Y021221D03*
X013569Y021595D03*
X014593Y021595D03*
X014593Y020847D03*
D29*
X015868Y006938D03*
D30*
X014778Y006938D03*
X015321Y005820D03*
X014231Y005820D03*
X013144Y005820D03*
X013687Y006938D03*
X012597Y006938D03*
X011506Y006938D03*
X012053Y005820D03*
D31*
X008766Y006379D03*
X018609Y006379D03*
D32*
X010666Y013682D03*
X009937Y013682D03*
X009937Y014588D03*
X010666Y014588D03*
D33*
X011089Y014135D02*
X010144Y014135D01*
X009947Y014332D01*
X009947Y014578D01*
X009937Y014588D01*
X009937Y015275D01*
X009975Y015312D01*
X010971Y016025D02*
X011138Y016034D01*
X012057Y016054D01*
X012057Y015554D02*
X012744Y015554D01*
X012900Y015710D01*
X012900Y015119D02*
X012835Y015054D01*
X012057Y015054D01*
X012091Y014607D02*
X012057Y014554D01*
X012886Y014554D01*
X012900Y014568D01*
X012057Y013554D02*
X011670Y013554D01*
X011089Y014135D01*
X010668Y013680D02*
X010666Y013682D01*
X010668Y013680D02*
X010668Y012859D01*
X010705Y012822D01*
X011036Y012822D01*
X011246Y013032D01*
X012036Y013032D01*
X012057Y013054D01*
X012057Y012554D02*
X012024Y012521D01*
X011522Y012521D01*
X010971Y011969D01*
X010931Y011969D01*
X012057Y011054D02*
X012087Y010828D01*
X013530Y010828D01*
X013923Y010434D01*
X014160Y009765D02*
X014199Y009765D01*
X015459Y011025D01*
X015965Y011025D01*
X015994Y011054D01*
X015957Y011536D02*
X015994Y011554D01*
X015957Y011536D02*
X015931Y011536D01*
X014435Y011536D01*
X013918Y012054D02*
X013884Y012088D01*
X013918Y012054D02*
X015994Y012054D01*
X017540Y012054D01*
X017703Y011891D01*
X018510Y011891D01*
X018589Y011969D01*
X018496Y011877D01*
X019297Y011969D02*
X019297Y013973D01*
X019301Y013780D01*
X018475Y013780D02*
X017833Y013780D01*
X017124Y013780D02*
X016994Y013780D01*
X016719Y014056D01*
X015996Y014056D01*
X015994Y014054D01*
X016020Y014529D02*
X015994Y014554D01*
X016020Y014529D02*
X016640Y014529D01*
X016734Y014623D01*
X017085Y014623D01*
X016496Y015054D02*
X016916Y015473D01*
X017093Y015473D01*
X017124Y015505D01*
X016719Y015906D02*
X016719Y016021D01*
X017124Y016426D01*
X016719Y015906D02*
X016366Y015554D01*
X015994Y015554D01*
X015965Y016025D02*
X015994Y016054D01*
X015965Y016025D02*
X015026Y016025D01*
X015994Y016554D02*
X016536Y016554D01*
X017207Y017225D01*
X017833Y016426D02*
X018475Y016426D01*
X018475Y015505D02*
X017833Y015505D01*
X017794Y014623D02*
X018475Y014623D01*
X017518Y012780D02*
X017494Y012757D01*
X017309Y012757D01*
X016512Y013554D01*
X015994Y013554D01*
X015994Y015054D02*
X016496Y015054D01*
X015994Y017554D02*
X015110Y017554D01*
X014542Y018123D01*
X014542Y018532D01*
X014542Y019147D01*
X014553Y019332D01*
X014435Y019450D01*
X014109Y019462D01*
X014553Y018599D02*
X014542Y018532D01*
X013400Y019462D02*
X013183Y019363D01*
X012400Y019363D01*
X012400Y018654D02*
X012388Y018627D01*
X012388Y018387D01*
X012057Y018056D01*
X012057Y017554D01*
X012057Y017054D02*
X011319Y017054D01*
X011168Y017206D01*
X011168Y017836D01*
X011152Y017851D01*
X011179Y017824D02*
X011168Y017812D01*
X010471Y018568D02*
X010471Y019371D01*
X009727Y017851D02*
X009711Y017836D01*
X010262Y016733D02*
X010441Y016554D01*
X012057Y016554D01*
X012427Y018643D02*
X012400Y018654D01*
X007979Y020729D02*
X007979Y021536D01*
X007270Y021536D02*
X006679Y021536D01*
X003136Y017993D01*
X003136Y016340D01*
X005616Y013643D02*
X005636Y013662D01*
X006876Y013662D01*
X005774Y012403D02*
X005144Y012403D01*
X005105Y012363D01*
X005774Y012403D02*
X005971Y012206D01*
X005971Y011261D01*
X006286Y010946D01*
X006404Y010946D01*
X005459Y010749D02*
X005459Y010277D01*
X005301Y010119D01*
X004435Y010119D01*
X004120Y009725D01*
X004120Y009253D01*
X004278Y008859D02*
X003805Y008859D01*
X003687Y008977D01*
X003687Y010395D01*
X003687Y010552D01*
X003648Y010946D02*
X003097Y010946D01*
X002979Y010828D01*
X002979Y010395D01*
X002979Y010434D01*
X002034Y010434D01*
X002112Y009804D02*
X002034Y009725D01*
X002034Y009410D01*
X002309Y009135D01*
X002967Y009135D01*
X002967Y008635D02*
X002979Y008623D01*
X003609Y008623D01*
X003963Y008229D01*
X004042Y008229D01*
X004002Y007639D02*
X002971Y007639D01*
X002967Y007635D01*
X002967Y007135D02*
X002959Y007127D01*
X002703Y007127D01*
X002695Y007135D01*
X001790Y007135D01*
X001790Y006214D01*
X002703Y005670D02*
X002703Y004843D01*
X002939Y004607D01*
X003254Y004607D01*
X003254Y005316D02*
X004120Y005316D01*
X003254Y005316D02*
X003254Y005847D01*
X002967Y006135D01*
X002967Y006635D02*
X002986Y006654D01*
X003687Y006654D01*
X005026Y005316D01*
X005026Y004607D02*
X005065Y004568D01*
X005065Y004371D01*
X005223Y004214D01*
X006364Y004214D01*
X006955Y004804D01*
X006955Y005355D01*
X006955Y006969D01*
X006955Y009253D01*
X007270Y009568D01*
X007270Y011025D01*
X007309Y011064D01*
X008018Y011064D02*
X008018Y010749D01*
X008156Y010611D01*
X008156Y010119D01*
X009317Y009017D02*
X009396Y008938D01*
X010853Y008938D01*
X011128Y008662D01*
X011128Y008190D01*
X010813Y007875D01*
X010813Y006418D01*
X011412Y005820D01*
X012053Y005820D01*
X012053Y004548D01*
X011561Y004056D01*
X010223Y005906D02*
X010223Y006733D01*
X009317Y007639D01*
X008845Y007639D01*
X008514Y007930D01*
X008262Y008166D01*
X007553Y008166D02*
X007514Y007434D01*
X007506Y007442D01*
X006246Y006969D02*
X005931Y006969D01*
X005597Y006635D01*
X005014Y006635D01*
X005014Y006135D02*
X006215Y006135D01*
X006246Y006103D01*
X006246Y005395D02*
X006246Y004647D01*
X006955Y005355D02*
X007467Y004686D01*
X009120Y008190D02*
X009120Y008426D01*
X009317Y008623D01*
X009317Y009017D01*
X009691Y009883D02*
X009790Y009883D01*
X010301Y009371D01*
X010577Y009371D01*
X010479Y008544D02*
X010420Y008485D01*
X010420Y008229D01*
X010380Y008190D01*
X009829Y008190D01*
X010577Y010080D02*
X010577Y010670D01*
X011955Y008564D02*
X011955Y008544D01*
X011935Y008544D01*
X011955Y008564D01*
X013323Y008243D02*
X013937Y008243D01*
X014199Y008505D01*
X014199Y009017D01*
X014553Y008426D02*
X014514Y008347D01*
X015383Y008743D02*
X016443Y008743D01*
X016721Y008743D01*
X017388Y009410D01*
X017624Y009410D01*
X018333Y009410D02*
X018884Y009410D01*
X018569Y010237D02*
X018333Y010237D01*
X018569Y010237D02*
X018805Y010473D01*
X019120Y010473D01*
X017624Y011103D02*
X017585Y011064D01*
X013323Y009771D02*
X013323Y009743D01*
X005813Y009843D02*
X005813Y009371D01*
X005577Y009135D01*
X005014Y009135D01*
X004553Y009135D01*
X004278Y008859D01*
X003018Y008584D02*
X002967Y008635D01*
X002979Y009804D02*
X002112Y009804D01*
X003648Y010946D02*
X003963Y011261D01*
X003963Y012442D01*
X006679Y018466D02*
X007211Y018997D01*
X007211Y020670D01*
D34*
X009081Y019174D02*
X009081Y018072D01*
X009317Y017836D01*
X009711Y017836D01*
X009727Y017851D02*
X010443Y017851D01*
X009081Y019174D02*
X009435Y019529D01*
X009435Y019647D01*
X011640Y020552D02*
X011640Y020946D01*
X011640Y020552D02*
X011758Y020434D01*
X013963Y020434D01*
X014120Y020591D01*
X014120Y021221D01*
X013569Y021221D01*
X013569Y020847D02*
X012801Y020847D01*
X012073Y021654D01*
X013018Y021654D02*
X013077Y021595D01*
X013569Y021595D01*
X014120Y021221D02*
X014868Y021221D01*
X015262Y020828D01*
X015577Y020828D01*
X015616Y020867D01*
X015085Y021595D02*
X015105Y021615D01*
X015085Y021595D02*
X014593Y021595D01*
X014908Y020001D02*
X012231Y020001D01*
X014908Y020001D02*
X015420Y019489D01*
X015510Y019489D01*
D35*
X015105Y021615D02*
X016246Y021615D01*
X016483Y021615D01*
X018569Y019529D01*
X018609Y019529D01*
X019301Y018836D01*
X019301Y016426D01*
X019301Y015505D01*
X019301Y014623D01*
X019301Y013780D01*
X017979Y007796D02*
X012152Y007796D01*
X011916Y008032D01*
X008215Y017166D02*
X003805Y017166D01*
X003766Y017206D01*
X003766Y017843D01*
X003766Y017088D01*
X001412Y017080D02*
X001412Y015277D01*
X001412Y017080D02*
X001404Y017088D01*
X001404Y017599D01*
X000656Y018347D01*
X000656Y019450D01*
X000853Y019647D01*
X001384Y019647D01*
X001404Y019666D01*
X002447Y019666D01*
X002152Y019686D01*
X002703Y019686D01*
X003719Y019686D01*
X003766Y019639D01*
X008215Y017166D02*
X008569Y017521D01*
X008569Y019765D01*
X009868Y021064D01*
X010223Y021418D01*
X010459Y021654D01*
X010656Y021654D01*
X011640Y021654D01*
X012073Y021654D01*
X013018Y021654D01*
X013057Y021654D01*
D36*
X013690Y019095D02*
X013883Y019095D01*
X013893Y019085D01*
X014324Y019085D01*
X014334Y019095D01*
X014338Y019095D01*
X014337Y019077D01*
X014342Y019071D01*
X014342Y018909D01*
X014326Y018909D01*
X014244Y018827D01*
X014244Y018238D01*
X014326Y018156D01*
X014342Y018156D01*
X014342Y018040D01*
X015028Y017354D01*
X015193Y017354D01*
X015425Y017354D01*
X015452Y017328D01*
X015431Y017316D01*
X015398Y017283D01*
X015374Y017242D01*
X015362Y017196D01*
X015362Y017054D01*
X015362Y016912D01*
X015374Y016866D01*
X015398Y016825D01*
X015431Y016792D01*
X015452Y016780D01*
X015402Y016730D01*
X015402Y016378D01*
X015475Y016304D01*
X015402Y016230D01*
X015402Y016225D01*
X015276Y016225D01*
X015206Y016294D01*
X015089Y016343D01*
X014963Y016343D01*
X014846Y016294D01*
X014756Y016205D01*
X014708Y016088D01*
X014708Y015961D01*
X014756Y015844D01*
X014846Y015755D01*
X014963Y015706D01*
X015089Y015706D01*
X015206Y015755D01*
X015276Y015825D01*
X015455Y015825D01*
X015475Y015804D01*
X015402Y015730D01*
X015402Y015378D01*
X015475Y015304D01*
X015402Y015230D01*
X015402Y014878D01*
X015475Y014804D01*
X015402Y014730D01*
X015402Y014378D01*
X015475Y014304D01*
X015402Y014230D01*
X015402Y013878D01*
X015475Y013804D01*
X015402Y013730D01*
X015402Y013378D01*
X015452Y013328D01*
X015431Y013316D01*
X015398Y013283D01*
X015374Y013242D01*
X015362Y013196D01*
X015362Y013054D01*
X015362Y012912D01*
X015374Y012866D01*
X015398Y012825D01*
X015431Y012792D01*
X015452Y012780D01*
X015402Y012730D01*
X015402Y012378D01*
X015475Y012304D01*
X015425Y012254D01*
X014159Y012254D01*
X014154Y012268D01*
X014064Y012357D01*
X013947Y012406D01*
X013821Y012406D01*
X013704Y012357D01*
X013662Y012316D01*
X013662Y018116D01*
X013833Y018116D01*
X014014Y018116D01*
X014060Y018129D01*
X014101Y018152D01*
X014134Y018186D01*
X014158Y018227D01*
X014170Y018272D01*
X014170Y018532D01*
X013833Y018532D01*
X013833Y018116D01*
X013833Y018532D01*
X013833Y018532D01*
X013833Y018533D01*
X013833Y018533D01*
X013833Y018949D01*
X014014Y018949D01*
X014060Y018936D01*
X014101Y018913D01*
X014134Y018879D01*
X014158Y018838D01*
X014170Y018792D01*
X014170Y018533D01*
X013833Y018533D01*
X013833Y018949D01*
X013690Y018949D01*
X013690Y018971D01*
X013690Y018980D01*
X013690Y018981D01*
X013690Y019001D01*
X013690Y019003D01*
X013690Y019095D01*
X013690Y019049D02*
X014342Y019049D01*
X014307Y018890D02*
X014124Y018890D01*
X014170Y018731D02*
X014244Y018731D01*
X014244Y018573D02*
X014170Y018573D01*
X014170Y018414D02*
X014244Y018414D01*
X014244Y018256D02*
X014166Y018256D01*
X014342Y018097D02*
X013662Y018097D01*
X013662Y017939D02*
X014443Y017939D01*
X014602Y017780D02*
X013662Y017780D01*
X013662Y017622D02*
X014760Y017622D01*
X014919Y017463D02*
X013662Y017463D01*
X013662Y017305D02*
X015419Y017305D01*
X015362Y017146D02*
X013662Y017146D01*
X013662Y016987D02*
X015362Y016987D01*
X015362Y017054D02*
X015994Y017054D01*
X015994Y017054D01*
X015362Y017054D01*
X015396Y016829D02*
X013662Y016829D01*
X013662Y016670D02*
X015402Y016670D01*
X015402Y016512D02*
X013662Y016512D01*
X013662Y016353D02*
X015426Y016353D01*
X015402Y015719D02*
X015120Y015719D01*
X014932Y015719D02*
X013662Y015719D01*
X013662Y015561D02*
X015402Y015561D01*
X015402Y015402D02*
X013662Y015402D01*
X013662Y015243D02*
X015415Y015243D01*
X015402Y015085D02*
X013662Y015085D01*
X013662Y014926D02*
X015402Y014926D01*
X015439Y014768D02*
X013662Y014768D01*
X013662Y014609D02*
X015402Y014609D01*
X015402Y014451D02*
X013662Y014451D01*
X013662Y014292D02*
X015464Y014292D01*
X015402Y014134D02*
X013662Y014134D01*
X013662Y013975D02*
X015402Y013975D01*
X015463Y013817D02*
X013662Y013817D01*
X013662Y013658D02*
X015402Y013658D01*
X015402Y013499D02*
X013662Y013499D01*
X013662Y013341D02*
X015439Y013341D01*
X015362Y013182D02*
X013662Y013182D01*
X013662Y013024D02*
X015362Y013024D01*
X015362Y013054D02*
X015994Y013054D01*
X015994Y013054D01*
X015362Y013054D01*
X015375Y012865D02*
X013662Y012865D01*
X013662Y012707D02*
X015402Y012707D01*
X015402Y012548D02*
X013662Y012548D01*
X013662Y012390D02*
X013782Y012390D01*
X013986Y012390D02*
X015402Y012390D01*
X015995Y013054D02*
X015995Y013054D01*
X016627Y013054D01*
X016627Y012912D01*
X016615Y012866D01*
X016591Y012825D01*
X016558Y012792D01*
X016537Y012780D01*
X016587Y012730D01*
X016587Y012378D01*
X016513Y012304D01*
X016563Y012254D01*
X017457Y012254D01*
X017622Y012254D01*
X017786Y012091D01*
X018291Y012091D01*
X018291Y012264D01*
X018373Y012346D01*
X018804Y012346D01*
X018886Y012264D01*
X018886Y011675D01*
X018804Y011593D01*
X018373Y011593D01*
X018291Y011675D01*
X018291Y011691D01*
X017620Y011691D01*
X017503Y011808D01*
X017457Y011854D01*
X016563Y011854D01*
X016513Y011804D01*
X016587Y011730D01*
X016587Y011378D01*
X016513Y011304D01*
X016587Y011230D01*
X016587Y010878D01*
X016505Y010796D01*
X015513Y010796D01*
X014282Y009565D01*
X014271Y009565D01*
X014251Y009545D01*
X013877Y009545D01*
X013850Y009518D01*
X013868Y009507D01*
X013902Y009474D01*
X013925Y009433D01*
X013938Y009387D01*
X013938Y009243D01*
X013323Y009243D01*
X013323Y009243D01*
X013938Y009243D01*
X013938Y009205D01*
X014019Y009286D01*
X014136Y009335D01*
X014262Y009335D01*
X014379Y009286D01*
X014469Y009197D01*
X014513Y009090D01*
X014766Y009344D01*
X014808Y009385D01*
X014808Y009421D01*
X014880Y009493D01*
X014808Y009565D01*
X014808Y009921D01*
X014890Y010003D01*
X015876Y010003D01*
X015894Y009985D01*
X015998Y009985D01*
X017207Y011194D01*
X017327Y011314D01*
X017327Y011398D01*
X017409Y011479D01*
X017840Y011479D01*
X017922Y011398D01*
X017922Y010809D01*
X017840Y010727D01*
X017409Y010727D01*
X017386Y010750D01*
X016180Y009545D01*
X015998Y009545D01*
X015937Y009545D01*
X015886Y009493D01*
X015916Y009463D01*
X016224Y009463D01*
X017089Y010328D01*
X017218Y010457D01*
X017327Y010457D01*
X017327Y010531D01*
X017409Y010613D01*
X017840Y010613D01*
X017922Y010531D01*
X017922Y009943D01*
X017840Y009861D01*
X017409Y009861D01*
X017327Y009943D01*
X017327Y009944D01*
X016442Y009059D01*
X016506Y009059D01*
X016623Y009011D01*
X016664Y008970D01*
X017188Y009493D01*
X017305Y009610D01*
X017327Y009610D01*
X017327Y009705D01*
X017409Y009787D01*
X017840Y009787D01*
X017922Y009705D01*
X017922Y009116D01*
X017840Y009034D01*
X017409Y009034D01*
X017352Y009091D01*
X016804Y008543D01*
X016695Y008543D01*
X016623Y008471D01*
X016506Y008423D01*
X016380Y008423D01*
X016263Y008471D01*
X016191Y008543D01*
X015936Y008543D01*
X015886Y008493D01*
X015958Y008421D01*
X015958Y008136D01*
X018046Y008136D01*
X018171Y008084D01*
X018267Y007989D01*
X018319Y007864D01*
X018319Y007729D01*
X018267Y007604D01*
X018171Y007508D01*
X018046Y007456D01*
X012781Y007456D01*
X012808Y007448D01*
X012885Y007408D01*
X012955Y007357D01*
X013016Y007296D01*
X013067Y007226D01*
X013106Y007149D01*
X013133Y007067D01*
X013147Y006981D01*
X013147Y006958D01*
X012617Y006958D01*
X012617Y006918D01*
X013147Y006918D01*
X013147Y006895D01*
X013133Y006809D01*
X013106Y006727D01*
X013067Y006650D01*
X013016Y006580D01*
X012955Y006518D01*
X012885Y006468D01*
X012808Y006428D01*
X012725Y006401D01*
X012640Y006388D01*
X012617Y006388D01*
X012617Y006918D01*
X012577Y006918D01*
X012577Y006388D01*
X012553Y006388D01*
X012468Y006401D01*
X012386Y006428D01*
X012308Y006468D01*
X012238Y006518D01*
X012177Y006580D01*
X012126Y006650D01*
X012087Y006727D01*
X012060Y006809D01*
X012051Y006865D01*
X012043Y006809D01*
X012016Y006727D01*
X011976Y006650D01*
X011926Y006580D01*
X011864Y006518D01*
X011794Y006468D01*
X011717Y006428D01*
X011635Y006401D01*
X011549Y006388D01*
X011526Y006388D01*
X011526Y006918D01*
X011486Y006918D01*
X011486Y006388D01*
X011463Y006388D01*
X011377Y006401D01*
X011295Y006428D01*
X011218Y006468D01*
X011148Y006518D01*
X011087Y006580D01*
X011036Y006650D01*
X011013Y006694D01*
X011013Y006501D01*
X011494Y006020D01*
X011584Y006020D01*
X011621Y006109D01*
X011764Y006252D01*
X011952Y006330D01*
X012155Y006330D01*
X012342Y006252D01*
X012486Y006109D01*
X012563Y005921D01*
X012563Y005718D01*
X012486Y005531D01*
X012342Y005387D01*
X012253Y005351D01*
X012253Y004465D01*
X012136Y004348D01*
X011879Y004091D01*
X011879Y003993D01*
X011831Y003876D01*
X011741Y003786D01*
X011625Y003738D01*
X011498Y003738D01*
X011381Y003786D01*
X011292Y003876D01*
X011243Y003993D01*
X011243Y004119D01*
X011292Y004236D01*
X011381Y004326D01*
X011498Y004374D01*
X011596Y004374D01*
X011853Y004631D01*
X011853Y005351D01*
X011764Y005387D01*
X011621Y005531D01*
X011584Y005620D01*
X011494Y005620D01*
X011329Y005620D01*
X010730Y006218D01*
X010613Y006335D01*
X010613Y007792D01*
X009447Y007792D01*
X009400Y007839D02*
X009361Y007839D01*
X009418Y007896D01*
X009418Y008441D01*
X009517Y008540D01*
X009517Y008601D01*
X009572Y008601D01*
X009654Y008683D01*
X009654Y008738D01*
X010102Y008738D01*
X010102Y008508D01*
X010044Y008566D01*
X009613Y008566D01*
X009531Y008484D01*
X009531Y007896D01*
X009613Y007814D01*
X010044Y007814D01*
X010126Y007896D01*
X010126Y007990D01*
X010297Y007990D01*
X010463Y007990D01*
X010502Y008029D01*
X010619Y008146D01*
X010619Y008266D01*
X010773Y008266D01*
X010855Y008348D01*
X010855Y008653D01*
X010928Y008579D01*
X010928Y008273D01*
X010613Y007958D01*
X010613Y007792D01*
X010613Y007950D02*
X010126Y007950D01*
X010582Y008109D02*
X010764Y008109D01*
X010774Y008268D02*
X010923Y008268D01*
X010928Y008426D02*
X010855Y008426D01*
X010855Y008585D02*
X010923Y008585D01*
X011172Y008902D02*
X011715Y008902D01*
X011715Y008822D02*
X011641Y008822D01*
X011559Y008740D01*
X011559Y008348D01*
X011641Y008266D01*
X011669Y008266D01*
X011627Y008225D01*
X011576Y008100D01*
X011576Y007965D01*
X011627Y007840D01*
X011959Y007508D01*
X012084Y007456D01*
X012219Y007456D01*
X012412Y007456D01*
X012386Y007448D01*
X012308Y007408D01*
X012238Y007357D01*
X012177Y007296D01*
X012126Y007226D01*
X012087Y007149D01*
X012060Y007067D01*
X012051Y007011D01*
X012043Y007067D01*
X012016Y007149D01*
X011976Y007226D01*
X011926Y007296D01*
X011864Y007357D01*
X011794Y007408D01*
X011717Y007448D01*
X011635Y007474D01*
X011549Y007488D01*
X011526Y007488D01*
X011526Y006958D01*
X011486Y006958D01*
X011486Y007488D01*
X011463Y007488D01*
X011377Y007474D01*
X011295Y007448D01*
X011218Y007408D01*
X011148Y007357D01*
X011087Y007296D01*
X011036Y007226D01*
X011013Y007182D01*
X011013Y007792D01*
X011675Y007792D01*
X011581Y007950D02*
X011172Y007950D01*
X011211Y007990D02*
X011328Y008107D01*
X011328Y008579D01*
X011328Y008745D01*
X011070Y009004D01*
X011104Y008994D01*
X011285Y008994D01*
X011285Y009410D01*
X011286Y009410D01*
X011286Y008994D01*
X011467Y008994D01*
X011513Y009006D01*
X011554Y009030D01*
X011587Y009064D01*
X011611Y009105D01*
X011623Y009150D01*
X011623Y009313D01*
X011697Y009239D01*
X011697Y009116D01*
X011715Y009098D01*
X011715Y008822D01*
X011562Y008743D02*
X011328Y008743D01*
X011328Y008585D02*
X011559Y008585D01*
X011559Y008426D02*
X011328Y008426D01*
X011328Y008268D02*
X011640Y008268D01*
X011579Y008109D02*
X011328Y008109D01*
X011211Y007990D02*
X011013Y007792D01*
X011013Y007633D02*
X011834Y007633D01*
X011632Y007475D02*
X012039Y007475D01*
X011906Y007316D02*
X012197Y007316D01*
X012091Y007158D02*
X012011Y007158D01*
X012056Y006958D02*
X011526Y006958D01*
X011526Y006918D01*
X012056Y006918D01*
X012576Y006918D01*
X012576Y006958D01*
X012056Y006958D01*
X012048Y006841D02*
X012055Y006841D01*
X012110Y006682D02*
X011993Y006682D01*
X011870Y006524D02*
X012233Y006524D01*
X012577Y006524D02*
X012617Y006524D01*
X012617Y006682D02*
X012577Y006682D01*
X012577Y006841D02*
X012617Y006841D01*
X012960Y006524D02*
X013380Y006524D01*
X013398Y006506D02*
X013586Y006428D01*
X013789Y006428D01*
X013976Y006506D01*
X014120Y006649D01*
X014197Y006836D01*
X014197Y007039D01*
X014120Y007227D01*
X013976Y007370D01*
X013789Y007448D01*
X013586Y007448D01*
X013398Y007370D01*
X013255Y007227D01*
X013177Y007039D01*
X013177Y006836D01*
X013255Y006649D01*
X013398Y006506D01*
X013245Y006330D02*
X013042Y006330D01*
X012855Y006252D01*
X012712Y006109D01*
X012634Y005921D01*
X012634Y005718D01*
X012712Y005531D01*
X012855Y005387D01*
X013042Y005310D01*
X013245Y005310D01*
X013433Y005387D01*
X013576Y005531D01*
X013654Y005718D01*
X013654Y005921D01*
X013576Y006109D01*
X013433Y006252D01*
X013245Y006330D01*
X013478Y006206D02*
X013896Y006206D01*
X013942Y006252D02*
X013798Y006109D01*
X013721Y005921D01*
X013721Y005718D01*
X013798Y005531D01*
X013942Y005387D01*
X013998Y005364D01*
X013998Y004874D01*
X014035Y004786D01*
X014102Y004719D01*
X014901Y003920D01*
X014969Y003853D01*
X015057Y003816D01*
X016238Y003816D01*
X016333Y003816D01*
X016422Y003853D01*
X017212Y004643D01*
X017254Y004643D01*
X017371Y004692D01*
X017461Y004781D01*
X017509Y004898D01*
X017509Y005025D01*
X017461Y005142D01*
X017371Y005231D01*
X017254Y005280D01*
X017128Y005280D01*
X017011Y005231D01*
X016921Y005142D01*
X016873Y005025D01*
X016873Y004983D01*
X016186Y004296D01*
X015204Y004296D01*
X014478Y005022D01*
X014478Y005371D01*
X014519Y005387D01*
X014663Y005531D01*
X014741Y005718D01*
X014741Y005921D01*
X014663Y006109D01*
X014519Y006252D01*
X014332Y006330D01*
X014129Y006330D01*
X013942Y006252D01*
X013773Y006048D02*
X013601Y006048D01*
X013654Y005889D02*
X013721Y005889D01*
X013721Y005731D02*
X013654Y005731D01*
X013593Y005572D02*
X013781Y005572D01*
X013915Y005414D02*
X013459Y005414D01*
X013998Y005255D02*
X012253Y005255D01*
X012253Y005097D02*
X013998Y005097D01*
X013998Y004938D02*
X012253Y004938D01*
X012253Y004780D02*
X014042Y004780D01*
X014102Y004719D02*
X014102Y004719D01*
X014200Y004621D02*
X012253Y004621D01*
X012251Y004463D02*
X014359Y004463D01*
X014517Y004304D02*
X012092Y004304D01*
X011933Y004145D02*
X014676Y004145D01*
X014834Y003987D02*
X011877Y003987D01*
X011783Y003828D02*
X015027Y003828D01*
X015121Y003656D02*
X015072Y003607D01*
X007794Y003607D01*
X007569Y003832D01*
X007440Y003961D01*
X007300Y003961D01*
X007300Y003980D01*
X007218Y004062D01*
X006629Y004062D01*
X006547Y003980D01*
X006547Y003549D01*
X006629Y003467D01*
X007218Y003467D01*
X007265Y003514D01*
X007612Y003167D01*
X007794Y003167D01*
X015072Y003167D01*
X015121Y003117D01*
X015238Y003069D01*
X015365Y003069D01*
X015482Y003117D01*
X015571Y003207D01*
X015619Y003323D01*
X015619Y003450D01*
X015571Y003567D01*
X015482Y003656D01*
X015365Y003705D01*
X015238Y003705D01*
X015121Y003656D01*
X015154Y003670D02*
X007731Y003670D01*
X007572Y003828D02*
X011339Y003828D01*
X011246Y003987D02*
X007293Y003987D01*
X007349Y003741D02*
X006947Y003741D01*
X006923Y003765D01*
X006547Y003828D02*
X006454Y003828D01*
X006454Y003791D02*
X006454Y003993D01*
X006448Y004014D01*
X006564Y004131D01*
X007149Y004715D01*
X007149Y004623D01*
X007197Y004506D01*
X007287Y004416D01*
X007403Y004368D01*
X007530Y004368D01*
X007647Y004416D01*
X007736Y004506D01*
X007785Y004623D01*
X007785Y004749D01*
X007736Y004866D01*
X007647Y004956D01*
X007530Y005004D01*
X007475Y005004D01*
X007155Y005423D01*
X007155Y005438D01*
X007155Y006593D01*
X007170Y006593D01*
X007252Y006675D01*
X007252Y007246D01*
X007326Y007172D01*
X007443Y007124D01*
X007569Y007124D01*
X007686Y007172D01*
X007776Y007262D01*
X007824Y007379D01*
X007824Y007505D01*
X007776Y007622D01*
X007727Y007671D01*
X007733Y007790D01*
X007769Y007790D01*
X007851Y007872D01*
X007851Y008461D01*
X007769Y008542D01*
X007338Y008542D01*
X007256Y008461D01*
X007256Y007872D01*
X007333Y007795D01*
X007329Y007713D01*
X007326Y007712D01*
X007236Y007622D01*
X007188Y007505D01*
X007188Y007379D01*
X007224Y007292D01*
X007170Y007346D01*
X007155Y007346D01*
X007155Y009170D01*
X007470Y009485D01*
X007470Y009651D01*
X007470Y010688D01*
X007525Y010688D01*
X007607Y010770D01*
X007607Y011358D01*
X007549Y011416D01*
X007549Y011652D01*
X007584Y011652D01*
X007666Y011734D01*
X007666Y012126D01*
X007584Y012208D01*
X006995Y012208D01*
X006913Y012126D01*
X006913Y011734D01*
X006995Y011652D01*
X007069Y011652D01*
X007069Y011416D01*
X007012Y011358D01*
X007012Y010770D01*
X007070Y010712D01*
X007070Y010377D01*
X007046Y010401D01*
X007005Y010425D01*
X006959Y010437D01*
X006699Y010437D01*
X006439Y010437D01*
X006393Y010425D01*
X006352Y010401D01*
X006319Y010367D01*
X006295Y010326D01*
X006283Y010281D01*
X006283Y010119D01*
X006283Y009958D01*
X006295Y009912D01*
X006319Y009871D01*
X006352Y009837D01*
X006393Y009814D01*
X006439Y009801D01*
X006699Y009801D01*
X006959Y009801D01*
X007005Y009814D01*
X007046Y009837D01*
X007070Y009861D01*
X007070Y009651D01*
X006755Y009336D01*
X006755Y009170D01*
X006755Y007346D01*
X006739Y007346D01*
X006657Y007264D01*
X006657Y006675D01*
X006739Y006593D01*
X006755Y006593D01*
X006755Y005438D01*
X006755Y005368D01*
X006746Y005300D01*
X006755Y005288D01*
X006755Y004887D01*
X006564Y004696D01*
X006564Y004710D01*
X006516Y004827D01*
X006446Y004896D01*
X006446Y005097D01*
X006541Y005097D01*
X006622Y005179D01*
X006622Y005610D01*
X006541Y005692D01*
X005952Y005692D01*
X005870Y005610D01*
X005870Y005179D01*
X005952Y005097D01*
X006046Y005097D01*
X006046Y004896D01*
X005977Y004827D01*
X005928Y004710D01*
X005928Y004583D01*
X005977Y004466D01*
X006030Y004414D01*
X005402Y004414D01*
X005402Y004823D01*
X005320Y004905D01*
X004732Y004905D01*
X004650Y004823D01*
X004650Y004392D01*
X004732Y004310D01*
X004865Y004310D01*
X004865Y004288D01*
X004982Y004171D01*
X005140Y004014D01*
X005306Y004014D01*
X005548Y004014D01*
X005543Y003993D01*
X005543Y003791D01*
X005980Y003791D01*
X005980Y003754D01*
X006017Y003754D01*
X006017Y003791D01*
X006454Y003791D01*
X006454Y003754D02*
X006017Y003754D01*
X006017Y003396D01*
X006298Y003396D01*
X006343Y003408D01*
X006384Y003432D01*
X006418Y003465D01*
X006442Y003506D01*
X006454Y003552D01*
X006454Y003754D01*
X006454Y003670D02*
X006547Y003670D01*
X006585Y003511D02*
X006443Y003511D01*
X006332Y003361D02*
X006414Y003279D01*
X006414Y003276D01*
X006552Y003276D01*
X006629Y003354D01*
X007218Y003354D01*
X007300Y003272D01*
X007300Y002841D01*
X007218Y002759D01*
X006629Y002759D01*
X006552Y002836D01*
X006414Y002836D01*
X006414Y002770D01*
X006384Y002740D01*
X019767Y002740D01*
X019767Y008994D01*
X019593Y008994D01*
X019593Y009410D01*
X019593Y009410D01*
X019593Y008994D01*
X019412Y008994D01*
X019366Y009006D01*
X019325Y009030D01*
X019291Y009064D01*
X019268Y009105D01*
X019255Y009150D01*
X019255Y009410D01*
X019592Y009410D01*
X019592Y009411D01*
X019255Y009411D01*
X019255Y009670D01*
X019268Y009716D01*
X019291Y009757D01*
X019325Y009791D01*
X019366Y009814D01*
X019412Y009827D01*
X019593Y009827D01*
X019593Y009411D01*
X019593Y009411D01*
X019593Y009827D01*
X019767Y009827D01*
X019767Y019095D01*
X019522Y019095D01*
X019590Y019028D01*
X019641Y018903D01*
X019641Y018768D01*
X019641Y016757D01*
X019678Y016720D01*
X019678Y016132D01*
X019641Y016096D01*
X019641Y015835D01*
X019678Y015799D01*
X019678Y015211D01*
X019641Y015174D01*
X019641Y014953D01*
X019678Y014917D01*
X019678Y014329D01*
X019641Y014293D01*
X019641Y014111D01*
X019678Y014075D01*
X019678Y013486D01*
X019596Y013404D01*
X019497Y013404D01*
X019497Y012346D01*
X019513Y012346D01*
X019595Y012264D01*
X019595Y011675D01*
X019513Y011593D01*
X019082Y011593D01*
X019000Y011675D01*
X019000Y012264D01*
X019082Y012346D01*
X019097Y012346D01*
X019097Y013404D01*
X019007Y013404D01*
X018925Y013486D01*
X018925Y014075D01*
X018961Y014111D01*
X018961Y014293D01*
X018925Y014329D01*
X018925Y014917D01*
X018961Y014953D01*
X018961Y015174D01*
X018925Y015211D01*
X018925Y015799D01*
X018961Y015835D01*
X018961Y016096D01*
X018925Y016132D01*
X018925Y016720D01*
X018961Y016757D01*
X018961Y018695D01*
X018561Y019095D01*
X018383Y019095D01*
X018383Y018972D01*
X017946Y018972D01*
X017946Y018935D01*
X017946Y018577D01*
X018227Y018577D01*
X018272Y018589D01*
X018314Y018613D01*
X018347Y018646D01*
X018371Y018687D01*
X018383Y018733D01*
X018383Y018935D01*
X017946Y018935D01*
X017909Y018935D01*
X017909Y018577D01*
X017628Y018577D01*
X017582Y018589D01*
X017541Y018613D01*
X017508Y018646D01*
X017484Y018687D01*
X017477Y018715D01*
X017477Y018325D01*
X017395Y018243D01*
X016728Y018243D01*
X016646Y018325D01*
X016646Y018835D01*
X016702Y018891D01*
X016598Y018995D01*
X016239Y018995D01*
X016157Y019077D01*
X016157Y019095D01*
X015965Y019095D01*
X015965Y019077D01*
X015883Y018995D01*
X015137Y018995D01*
X015055Y019077D01*
X015055Y019095D01*
X014742Y019095D01*
X014742Y018909D01*
X014757Y018909D01*
X014839Y018827D01*
X014839Y018238D01*
X014774Y018173D01*
X015193Y017754D01*
X015425Y017754D01*
X015484Y017812D01*
X016505Y017812D01*
X016587Y017730D01*
X016587Y017378D01*
X016537Y017328D01*
X016558Y017316D01*
X016591Y017283D01*
X016615Y017242D01*
X016627Y017196D01*
X016627Y017054D01*
X015995Y017054D01*
X015995Y017054D01*
X016627Y017054D01*
X016627Y016928D01*
X016909Y017211D01*
X016909Y017520D01*
X016991Y017602D01*
X017422Y017602D01*
X017504Y017520D01*
X017504Y016931D01*
X017422Y016849D01*
X017114Y016849D01*
X017067Y016802D01*
X017340Y016802D01*
X017422Y016720D01*
X017422Y016132D01*
X017340Y016050D01*
X017031Y016050D01*
X016919Y015938D01*
X016919Y015881D01*
X017340Y015881D01*
X017422Y015799D01*
X017422Y015211D01*
X017340Y015129D01*
X016909Y015129D01*
X016881Y015156D01*
X016579Y014854D01*
X016563Y014854D01*
X016513Y014804D01*
X016573Y014744D01*
X016652Y014823D01*
X016787Y014823D01*
X016787Y014917D01*
X016869Y014999D01*
X017300Y014999D01*
X017382Y014917D01*
X017382Y014329D01*
X017300Y014247D01*
X016869Y014247D01*
X016787Y014329D01*
X016787Y014393D01*
X016723Y014329D01*
X016538Y014329D01*
X016513Y014304D01*
X016561Y014256D01*
X016802Y014256D01*
X016905Y014153D01*
X016909Y014157D01*
X017340Y014157D01*
X017422Y014075D01*
X017422Y013486D01*
X017340Y013404D01*
X016945Y013404D01*
X017247Y013102D01*
X017302Y013157D01*
X017733Y013157D01*
X017815Y013075D01*
X017815Y012486D01*
X017733Y012404D01*
X017302Y012404D01*
X017220Y012486D01*
X017220Y012563D01*
X017109Y012674D01*
X016627Y013156D01*
X016627Y013054D01*
X015995Y013054D01*
X016627Y013024D02*
X016759Y013024D01*
X016614Y012865D02*
X016918Y012865D01*
X017076Y012707D02*
X016587Y012707D01*
X016587Y012548D02*
X017220Y012548D01*
X017645Y012231D02*
X018291Y012231D01*
X018227Y012364D02*
X018408Y012364D01*
X018454Y012377D01*
X018495Y012400D01*
X018528Y012434D01*
X018552Y012475D01*
X018564Y012521D01*
X018564Y012780D01*
X018227Y012780D01*
X018227Y012781D01*
X018226Y012781D01*
X018226Y012780D01*
X017889Y012780D01*
X017889Y012521D01*
X017901Y012475D01*
X017925Y012434D01*
X017959Y012400D01*
X018000Y012377D01*
X018045Y012364D01*
X018226Y012364D01*
X018226Y012780D01*
X018227Y012780D01*
X018227Y012364D01*
X018226Y012390D02*
X018227Y012390D01*
X018226Y012548D02*
X018227Y012548D01*
X018226Y012707D02*
X018227Y012707D01*
X018226Y012781D02*
X017889Y012781D01*
X017889Y013040D01*
X017901Y013086D01*
X017925Y013127D01*
X017959Y013161D01*
X018000Y013184D01*
X018045Y013197D01*
X018226Y013197D01*
X018226Y012781D01*
X018227Y012781D02*
X018227Y013197D01*
X018408Y013197D01*
X018454Y013184D01*
X018495Y013161D01*
X018528Y013127D01*
X018552Y013086D01*
X018564Y013040D01*
X018564Y012781D01*
X018227Y012781D01*
X018226Y012865D02*
X018227Y012865D01*
X018226Y013024D02*
X018227Y013024D01*
X018226Y013182D02*
X018227Y013182D01*
X018180Y013404D02*
X018769Y013404D01*
X018851Y013486D01*
X018851Y014075D01*
X018769Y014157D01*
X018180Y014157D01*
X018114Y014091D01*
X018048Y014157D01*
X017617Y014157D01*
X017535Y014075D01*
X017535Y013486D01*
X017617Y013404D01*
X018048Y013404D01*
X018114Y013470D01*
X018180Y013404D01*
X017996Y013182D02*
X017166Y013182D01*
X017008Y013341D02*
X019097Y013341D01*
X019097Y013182D02*
X018457Y013182D01*
X018564Y013024D02*
X019097Y013024D01*
X019097Y012865D02*
X018564Y012865D01*
X018564Y012707D02*
X019097Y012707D01*
X019097Y012548D02*
X018564Y012548D01*
X018476Y012390D02*
X019097Y012390D01*
X019000Y012231D02*
X018886Y012231D01*
X018886Y012073D02*
X019000Y012073D01*
X019000Y011914D02*
X018886Y011914D01*
X018886Y011756D02*
X019000Y011756D01*
X019078Y011597D02*
X018808Y011597D01*
X018815Y011507D02*
X018774Y011484D01*
X018740Y011450D01*
X018716Y011409D01*
X018704Y011363D01*
X018704Y011182D01*
X018704Y011001D01*
X018716Y010955D01*
X018740Y010914D01*
X018774Y010881D01*
X018815Y010857D01*
X018860Y010845D01*
X019120Y010845D01*
X019120Y011182D01*
X018704Y011182D01*
X019120Y011182D01*
X019120Y011182D01*
X019120Y011182D01*
X019120Y011519D01*
X018860Y011519D01*
X018815Y011507D01*
X018733Y011438D02*
X018641Y011438D01*
X018634Y011450D02*
X018601Y011484D01*
X018560Y011507D01*
X018514Y011519D01*
X018333Y011519D01*
X018333Y011104D01*
X018333Y011104D01*
X018333Y011519D01*
X018152Y011519D01*
X018106Y011507D01*
X018065Y011484D01*
X018031Y011450D01*
X018008Y011409D01*
X017995Y011363D01*
X017995Y011103D01*
X017995Y010843D01*
X018008Y010798D01*
X018031Y010757D01*
X018065Y010723D01*
X018106Y010699D01*
X018152Y010687D01*
X018333Y010687D01*
X018514Y010687D01*
X018560Y010699D01*
X018601Y010723D01*
X018634Y010757D01*
X018658Y010798D01*
X018670Y010843D01*
X018670Y011103D01*
X018333Y011103D01*
X018333Y010687D01*
X018333Y011103D01*
X018333Y011103D01*
X018333Y011103D01*
X018332Y011103D02*
X017995Y011103D01*
X018332Y011103D01*
X018332Y011103D01*
X018333Y011103D02*
X018670Y011103D01*
X018670Y011363D01*
X018658Y011409D01*
X018634Y011450D01*
X018670Y011280D02*
X018704Y011280D01*
X018704Y011121D02*
X018670Y011121D01*
X018670Y010963D02*
X018714Y010963D01*
X018660Y010804D02*
X019767Y010804D01*
X019767Y010646D02*
X019496Y010646D01*
X019496Y010689D02*
X019415Y010771D01*
X018826Y010771D01*
X018744Y010689D01*
X018744Y010673D01*
X018722Y010673D01*
X018605Y010556D01*
X018548Y010613D01*
X018117Y010613D01*
X018035Y010531D01*
X018035Y009943D01*
X018117Y009861D01*
X018548Y009861D01*
X018630Y009943D01*
X018630Y010037D01*
X018652Y010037D01*
X018808Y010194D01*
X018826Y010176D01*
X019415Y010176D01*
X019496Y010258D01*
X019496Y010689D01*
X019426Y010857D02*
X019467Y010881D01*
X019501Y010914D01*
X019524Y010955D01*
X019536Y011001D01*
X019536Y011182D01*
X019536Y011363D01*
X019524Y011409D01*
X019501Y011450D01*
X019467Y011484D01*
X019426Y011507D01*
X019380Y011519D01*
X019120Y011519D01*
X019120Y011182D01*
X019120Y011182D01*
X019120Y010845D01*
X019380Y010845D01*
X019426Y010857D01*
X019526Y010963D02*
X019767Y010963D01*
X019767Y011121D02*
X019536Y011121D01*
X019536Y011182D02*
X019121Y011182D01*
X019536Y011182D01*
X019536Y011280D02*
X019767Y011280D01*
X019767Y011438D02*
X019507Y011438D01*
X019517Y011597D02*
X019767Y011597D01*
X019767Y011756D02*
X019595Y011756D01*
X019595Y011914D02*
X019767Y011914D01*
X019767Y012073D02*
X019595Y012073D01*
X019595Y012231D02*
X019767Y012231D01*
X019767Y012390D02*
X019497Y012390D01*
X019497Y012548D02*
X019767Y012548D01*
X019767Y012707D02*
X019497Y012707D01*
X019497Y012865D02*
X019767Y012865D01*
X019767Y013024D02*
X019497Y013024D01*
X019497Y013182D02*
X019767Y013182D01*
X019767Y013341D02*
X019497Y013341D01*
X019678Y013499D02*
X019767Y013499D01*
X019767Y013658D02*
X019678Y013658D01*
X019678Y013817D02*
X019767Y013817D01*
X019767Y013975D02*
X019678Y013975D01*
X019641Y014134D02*
X019767Y014134D01*
X019767Y014292D02*
X019641Y014292D01*
X019678Y014451D02*
X019767Y014451D01*
X019767Y014609D02*
X019678Y014609D01*
X019678Y014768D02*
X019767Y014768D01*
X019767Y014926D02*
X019668Y014926D01*
X019641Y015085D02*
X019767Y015085D01*
X019767Y015243D02*
X019678Y015243D01*
X019678Y015402D02*
X019767Y015402D01*
X019767Y015561D02*
X019678Y015561D01*
X019678Y015719D02*
X019767Y015719D01*
X019767Y015878D02*
X019641Y015878D01*
X019641Y016036D02*
X019767Y016036D01*
X019767Y016195D02*
X019678Y016195D01*
X019678Y016353D02*
X019767Y016353D01*
X019767Y016512D02*
X019678Y016512D01*
X019678Y016670D02*
X019767Y016670D01*
X019767Y016829D02*
X019641Y016829D01*
X019641Y016987D02*
X019767Y016987D01*
X019767Y017146D02*
X019641Y017146D01*
X019641Y017305D02*
X019767Y017305D01*
X019767Y017463D02*
X019641Y017463D01*
X019641Y017622D02*
X019767Y017622D01*
X019767Y017780D02*
X019641Y017780D01*
X019641Y017939D02*
X019767Y017939D01*
X019767Y018097D02*
X019641Y018097D01*
X019641Y018256D02*
X019767Y018256D01*
X019767Y018414D02*
X019641Y018414D01*
X019641Y018573D02*
X019767Y018573D01*
X019767Y018731D02*
X019641Y018731D01*
X019641Y018890D02*
X019767Y018890D01*
X019767Y019049D02*
X019569Y019049D01*
X018961Y018573D02*
X017477Y018573D01*
X017512Y018461D02*
X017512Y017951D01*
X017594Y017869D01*
X017687Y017869D01*
X017687Y017589D01*
X017618Y017520D01*
X017618Y016931D01*
X017700Y016849D01*
X018131Y016849D01*
X018213Y016931D01*
X018213Y017520D01*
X018167Y017565D01*
X018167Y017869D01*
X018261Y017869D01*
X018343Y017951D01*
X018343Y018461D01*
X018261Y018542D01*
X017594Y018542D01*
X017512Y018461D01*
X017512Y018414D02*
X017477Y018414D01*
X017512Y018256D02*
X017408Y018256D01*
X017512Y018097D02*
X014850Y018097D01*
X014839Y018256D02*
X016715Y018256D01*
X016646Y018414D02*
X014839Y018414D01*
X014839Y018573D02*
X016646Y018573D01*
X016646Y018731D02*
X014839Y018731D01*
X014776Y018890D02*
X016701Y018890D01*
X016186Y019049D02*
X015937Y019049D01*
X015083Y019049D02*
X014742Y019049D01*
X013833Y018890D02*
X013833Y018890D01*
X013833Y018731D02*
X013833Y018731D01*
X013833Y018573D02*
X013833Y018573D01*
X013833Y018414D02*
X013833Y018414D01*
X013833Y018256D02*
X013833Y018256D01*
X015009Y017939D02*
X017524Y017939D01*
X017687Y017780D02*
X016537Y017780D01*
X016587Y017622D02*
X017687Y017622D01*
X017618Y017463D02*
X017504Y017463D01*
X017504Y017305D02*
X017618Y017305D01*
X017618Y017146D02*
X017504Y017146D01*
X017504Y016987D02*
X017618Y016987D01*
X017617Y016802D02*
X017535Y016720D01*
X017535Y016132D01*
X017617Y016050D01*
X018048Y016050D01*
X018114Y016116D01*
X018180Y016050D01*
X018769Y016050D01*
X018851Y016132D01*
X018851Y016720D01*
X018769Y016802D01*
X018180Y016802D01*
X018114Y016736D01*
X018048Y016802D01*
X017617Y016802D01*
X017535Y016670D02*
X017422Y016670D01*
X017422Y016512D02*
X017535Y016512D01*
X017535Y016353D02*
X017422Y016353D01*
X017422Y016195D02*
X017535Y016195D01*
X017617Y015881D02*
X017535Y015799D01*
X017535Y015211D01*
X017617Y015129D01*
X018048Y015129D01*
X018114Y015195D01*
X018180Y015129D01*
X018769Y015129D01*
X018851Y015211D01*
X018851Y015799D01*
X018769Y015881D01*
X018180Y015881D01*
X018114Y015815D01*
X018048Y015881D01*
X017617Y015881D01*
X017614Y015878D02*
X017343Y015878D01*
X017422Y015719D02*
X017535Y015719D01*
X017535Y015561D02*
X017422Y015561D01*
X017422Y015402D02*
X017535Y015402D01*
X017535Y015243D02*
X017422Y015243D01*
X017578Y014999D02*
X017496Y014917D01*
X017496Y014329D01*
X017578Y014247D01*
X018009Y014247D01*
X018091Y014329D01*
X018091Y014423D01*
X018098Y014423D01*
X018098Y014329D01*
X018180Y014247D01*
X018769Y014247D01*
X018851Y014329D01*
X018851Y014917D01*
X018769Y014999D01*
X018180Y014999D01*
X018098Y014917D01*
X018098Y014823D01*
X018091Y014823D01*
X018091Y014917D01*
X018009Y014999D01*
X017578Y014999D01*
X017505Y014926D02*
X017373Y014926D01*
X017382Y014768D02*
X017496Y014768D01*
X017496Y014609D02*
X017382Y014609D01*
X017382Y014451D02*
X017496Y014451D01*
X017533Y014292D02*
X017346Y014292D01*
X017363Y014134D02*
X017594Y014134D01*
X017535Y013975D02*
X017422Y013975D01*
X017422Y013817D02*
X017535Y013817D01*
X017535Y013658D02*
X017422Y013658D01*
X017422Y013499D02*
X017535Y013499D01*
X017815Y013024D02*
X017889Y013024D01*
X017889Y012865D02*
X017815Y012865D01*
X017815Y012707D02*
X017889Y012707D01*
X017889Y012548D02*
X017815Y012548D01*
X017977Y012390D02*
X016587Y012390D01*
X016562Y011756D02*
X017555Y011756D01*
X017368Y011438D02*
X016587Y011438D01*
X016587Y011597D02*
X018370Y011597D01*
X018333Y011438D02*
X018333Y011438D01*
X018333Y011280D02*
X018333Y011280D01*
X018333Y011121D02*
X018333Y011121D01*
X018333Y010963D02*
X018333Y010963D01*
X018333Y010804D02*
X018333Y010804D01*
X018695Y010646D02*
X017281Y010646D01*
X017327Y010487D02*
X017122Y010487D01*
X017090Y010329D02*
X016964Y010329D01*
X016931Y010170D02*
X016805Y010170D01*
X016773Y010012D02*
X016647Y010012D01*
X016614Y009853D02*
X016488Y009853D01*
X016455Y009694D02*
X016330Y009694D01*
X016297Y009536D02*
X015928Y009536D01*
X016089Y009765D02*
X017427Y011103D01*
X017624Y011103D01*
X017917Y010804D02*
X018006Y010804D01*
X017995Y010963D02*
X017922Y010963D01*
X017922Y011121D02*
X017995Y011121D01*
X017995Y011280D02*
X017922Y011280D01*
X017881Y011438D02*
X018025Y011438D01*
X017293Y011280D02*
X016537Y011280D01*
X016587Y011121D02*
X017134Y011121D01*
X016976Y010963D02*
X016587Y010963D01*
X016513Y010804D02*
X016817Y010804D01*
X016659Y010646D02*
X015363Y010646D01*
X015204Y010487D02*
X016500Y010487D01*
X016342Y010329D02*
X015046Y010329D01*
X014887Y010170D02*
X016183Y010170D01*
X016025Y010012D02*
X014729Y010012D01*
X014808Y009853D02*
X014570Y009853D01*
X014412Y009694D02*
X014808Y009694D01*
X014837Y009536D02*
X013868Y009536D01*
X013938Y009377D02*
X014800Y009377D01*
X014986Y009253D02*
X014711Y008977D01*
X014711Y008899D01*
X014553Y008741D01*
X014553Y008426D01*
X014641Y009219D02*
X014447Y009219D01*
X013951Y009219D02*
X013938Y009219D01*
X014160Y009765D02*
X013329Y009765D01*
X013323Y009771D01*
X013301Y009765D02*
X012703Y009765D01*
X012294Y010174D01*
X012053Y010174D01*
X011756Y010170D02*
X011642Y010170D01*
X011642Y010113D02*
X011642Y010468D01*
X011560Y010550D01*
X011129Y010550D01*
X011047Y010468D01*
X011047Y009880D01*
X011101Y009826D01*
X011059Y009814D01*
X011018Y009791D01*
X010984Y009757D01*
X010960Y009716D01*
X010948Y009670D01*
X010948Y009591D01*
X010871Y009668D01*
X010287Y009668D01*
X010028Y009927D01*
X010028Y010216D01*
X009946Y010298D01*
X009436Y010298D01*
X009354Y010216D01*
X009354Y009549D01*
X009436Y009467D01*
X009922Y009467D01*
X010101Y009288D01*
X010201Y009189D01*
X010201Y009156D01*
X010218Y009138D01*
X009654Y009138D01*
X009654Y009350D01*
X009572Y009432D01*
X009182Y009432D01*
X009209Y009440D01*
X009251Y009463D01*
X009284Y009497D01*
X009308Y009538D01*
X009320Y009584D01*
X009320Y009864D01*
X008962Y009864D01*
X008962Y009901D01*
X009320Y009901D01*
X009320Y010182D01*
X009308Y010228D01*
X009284Y010269D01*
X009251Y010302D01*
X009209Y010326D01*
X009164Y010338D01*
X008962Y010338D01*
X008962Y009901D01*
X008925Y009901D01*
X008924Y009901D02*
X008924Y009864D01*
X008566Y009864D01*
X008566Y009584D01*
X008579Y009538D01*
X008602Y009497D01*
X008636Y009463D01*
X008677Y009440D01*
X008723Y009427D01*
X008925Y009427D01*
X008925Y009864D01*
X008962Y009864D01*
X008962Y009427D01*
X009057Y009427D01*
X008980Y009350D01*
X008980Y008683D01*
X009037Y008626D01*
X008977Y008566D01*
X008905Y008566D01*
X008823Y008484D01*
X008823Y007924D01*
X008648Y008078D01*
X008559Y008161D01*
X008559Y008461D01*
X008478Y008542D01*
X008047Y008542D01*
X007965Y008461D01*
X007965Y007872D01*
X008047Y007790D01*
X008370Y007790D01*
X008379Y007782D01*
X008438Y007728D01*
X008441Y007728D01*
X008678Y007519D01*
X008616Y007519D01*
X008326Y007441D01*
X008066Y007291D01*
X007854Y007079D01*
X007704Y006819D01*
X007626Y006529D01*
X007626Y006229D01*
X007704Y005939D01*
X007854Y005679D01*
X008066Y005467D01*
X008326Y005317D01*
X008616Y005239D01*
X008916Y005239D01*
X009206Y005317D01*
X009466Y005467D01*
X009678Y005679D01*
X009828Y005939D01*
X009906Y006229D01*
X009906Y006529D01*
X009828Y006819D01*
X009793Y006880D01*
X010023Y006650D01*
X010023Y006156D01*
X009953Y006087D01*
X009905Y005970D01*
X009905Y005843D01*
X009953Y005726D01*
X010042Y005637D01*
X010159Y005588D01*
X010286Y005588D01*
X010403Y005637D01*
X010492Y005726D01*
X010541Y005843D01*
X010541Y005970D01*
X010492Y006087D01*
X010423Y006156D01*
X010423Y006650D01*
X010423Y006816D01*
X009517Y007722D01*
X009400Y007839D01*
X009418Y007950D02*
X009531Y007950D01*
X009531Y008109D02*
X009418Y008109D01*
X009418Y008268D02*
X009531Y008268D01*
X009531Y008426D02*
X009418Y008426D01*
X009517Y008585D02*
X010102Y008585D01*
X010171Y009219D02*
X009654Y009219D01*
X009627Y009377D02*
X010012Y009377D01*
X010101Y009288D02*
X010101Y009288D01*
X010261Y009694D02*
X010955Y009694D01*
X010871Y009782D02*
X010953Y009864D01*
X010953Y010295D01*
X010871Y010377D01*
X010777Y010377D01*
X010777Y010420D01*
X010847Y010490D01*
X010895Y010607D01*
X010895Y010734D01*
X010847Y010850D01*
X010757Y010940D01*
X010640Y010988D01*
X010514Y010988D01*
X010397Y010940D01*
X010307Y010850D01*
X010259Y010734D01*
X010259Y010607D01*
X010307Y010490D01*
X010377Y010420D01*
X010377Y010377D01*
X010283Y010377D01*
X010201Y010295D01*
X010201Y009864D01*
X010283Y009782D01*
X010871Y009782D01*
X010942Y009853D02*
X011074Y009853D01*
X011047Y010012D02*
X010953Y010012D01*
X010953Y010170D02*
X011047Y010170D01*
X011047Y010329D02*
X010920Y010329D01*
X010844Y010487D02*
X011066Y010487D01*
X010895Y010646D02*
X011986Y010646D01*
X012004Y010628D02*
X012019Y010628D01*
X012031Y010619D01*
X012100Y010628D01*
X013447Y010628D01*
X013605Y010469D01*
X013605Y010371D01*
X013654Y010254D01*
X013743Y010164D01*
X013860Y010116D01*
X013987Y010116D01*
X014104Y010164D01*
X014193Y010254D01*
X014242Y010371D01*
X014242Y010497D01*
X014193Y010614D01*
X014104Y010704D01*
X013987Y010752D01*
X013888Y010752D01*
X013730Y010911D01*
X013613Y011028D01*
X012650Y011028D01*
X012650Y011230D01*
X012616Y011264D01*
X012939Y011264D01*
X013054Y011264D01*
X013161Y011308D01*
X013536Y011684D01*
X013537Y011684D01*
X013618Y011766D01*
X013658Y011863D01*
X013704Y011818D01*
X013821Y011769D01*
X013947Y011769D01*
X014064Y011818D01*
X014100Y011854D01*
X014371Y011854D01*
X014255Y011806D01*
X014166Y011717D01*
X014117Y011600D01*
X014117Y011473D01*
X014166Y011356D01*
X014255Y011267D01*
X014372Y011218D01*
X014499Y011218D01*
X014615Y011267D01*
X014685Y011336D01*
X015443Y011336D01*
X015475Y011304D01*
X015402Y011230D01*
X015402Y011225D01*
X015376Y011225D01*
X015259Y011107D01*
X014136Y009985D01*
X013834Y009985D01*
X013816Y010003D01*
X012830Y010003D01*
X012811Y009985D01*
X012794Y009985D01*
X012514Y010265D01*
X012385Y010394D01*
X012351Y010394D01*
X012351Y010468D01*
X012269Y010550D01*
X011838Y010550D01*
X011756Y010468D01*
X011756Y009999D01*
X011642Y010113D01*
X011744Y010012D02*
X011756Y010012D01*
X011899Y009798D02*
X012269Y009798D01*
X012314Y009843D01*
X012612Y009545D01*
X012768Y009545D01*
X012795Y009518D01*
X012777Y009507D01*
X012744Y009474D01*
X012720Y009433D01*
X012708Y009387D01*
X012708Y009243D01*
X012708Y009099D01*
X012720Y009054D01*
X012744Y009013D01*
X012777Y008979D01*
X012795Y008969D01*
X012788Y008961D01*
X012494Y008961D01*
X012365Y008832D01*
X012297Y008764D01*
X012287Y008764D01*
X012229Y008822D01*
X012155Y008822D01*
X012155Y009034D01*
X012210Y009034D01*
X012292Y009116D01*
X012292Y009705D01*
X012210Y009787D01*
X011899Y009787D01*
X011899Y009798D01*
X011679Y009765D02*
X011679Y009568D01*
X011797Y009450D01*
X011955Y009450D01*
X011994Y009410D01*
X011935Y009351D01*
X011935Y008544D01*
X011916Y008525D01*
X011916Y008032D01*
X011526Y007475D02*
X011486Y007475D01*
X011380Y007475D02*
X011013Y007475D01*
X011013Y007316D02*
X011107Y007316D01*
X011486Y007316D02*
X011526Y007316D01*
X011526Y007158D02*
X011486Y007158D01*
X011486Y006999D02*
X011526Y006999D01*
X011526Y006841D02*
X011486Y006841D01*
X011486Y006682D02*
X011526Y006682D01*
X011526Y006524D02*
X011486Y006524D01*
X011143Y006524D02*
X011013Y006524D01*
X011013Y006682D02*
X011019Y006682D01*
X011149Y006365D02*
X017469Y006365D01*
X017469Y006229D02*
X017546Y005939D01*
X017696Y005679D01*
X017909Y005467D01*
X018168Y005317D01*
X018458Y005239D01*
X018759Y005239D01*
X019049Y005317D01*
X019308Y005467D01*
X019521Y005679D01*
X019671Y005939D01*
X019748Y006229D01*
X019748Y006529D01*
X019671Y006819D01*
X019521Y007079D01*
X019308Y007291D01*
X019049Y007441D01*
X018759Y007519D01*
X018458Y007519D01*
X018168Y007441D01*
X017909Y007291D01*
X017696Y007079D01*
X017546Y006819D01*
X017469Y006529D01*
X017469Y006229D01*
X017474Y006206D02*
X015656Y006206D01*
X015610Y006252D02*
X015423Y006330D01*
X015220Y006330D01*
X015032Y006252D01*
X014889Y006109D01*
X014811Y005921D01*
X014811Y005718D01*
X014889Y005531D01*
X015032Y005387D01*
X015220Y005310D01*
X015423Y005310D01*
X015610Y005387D01*
X015753Y005531D01*
X015831Y005718D01*
X015831Y005921D01*
X015753Y006109D01*
X015610Y006252D01*
X015440Y006428D02*
X016296Y006428D01*
X016378Y006510D01*
X016378Y007366D01*
X016296Y007448D01*
X015440Y007448D01*
X015358Y007366D01*
X015358Y006510D01*
X015440Y006428D01*
X015358Y006524D02*
X015085Y006524D01*
X015067Y006506D02*
X015210Y006649D01*
X015288Y006836D01*
X015288Y007039D01*
X015210Y007227D01*
X015067Y007370D01*
X014879Y007448D01*
X014676Y007448D01*
X014489Y007370D01*
X014345Y007227D01*
X014268Y007039D01*
X014268Y006836D01*
X014345Y006649D01*
X014489Y006506D01*
X014676Y006428D01*
X014879Y006428D01*
X015067Y006506D01*
X015224Y006682D02*
X015358Y006682D01*
X015358Y006841D02*
X015288Y006841D01*
X015288Y006999D02*
X015358Y006999D01*
X015358Y007158D02*
X015239Y007158D01*
X015121Y007316D02*
X015358Y007316D01*
X015958Y008268D02*
X019767Y008268D01*
X019767Y008426D02*
X016514Y008426D01*
X016372Y008426D02*
X015953Y008426D01*
X016443Y008741D02*
X016443Y008743D01*
X016443Y009060D02*
X016755Y009060D01*
X016602Y009219D02*
X016914Y009219D01*
X016761Y009377D02*
X017072Y009377D01*
X016919Y009536D02*
X017231Y009536D01*
X017327Y009694D02*
X017078Y009694D01*
X017236Y009853D02*
X019767Y009853D01*
X019767Y010012D02*
X018630Y010012D01*
X018785Y010170D02*
X019767Y010170D01*
X019767Y010329D02*
X019496Y010329D01*
X019496Y010487D02*
X019767Y010487D01*
X019593Y009694D02*
X019593Y009694D01*
X019593Y009536D02*
X019593Y009536D01*
X019593Y009377D02*
X019593Y009377D01*
X019593Y009219D02*
X019593Y009219D01*
X019593Y009060D02*
X019593Y009060D01*
X019767Y008902D02*
X017162Y008902D01*
X017321Y009060D02*
X017383Y009060D01*
X017866Y009060D02*
X018091Y009060D01*
X018117Y009034D02*
X018548Y009034D01*
X018608Y009094D01*
X018669Y009034D01*
X019100Y009034D01*
X019182Y009116D01*
X019182Y009705D01*
X019100Y009787D01*
X018669Y009787D01*
X018608Y009726D01*
X018548Y009787D01*
X018117Y009787D01*
X018035Y009705D01*
X018035Y009116D01*
X018117Y009034D01*
X018035Y009219D02*
X017922Y009219D01*
X017922Y009377D02*
X018035Y009377D01*
X018035Y009536D02*
X017922Y009536D01*
X017922Y009694D02*
X018035Y009694D01*
X018035Y010012D02*
X017922Y010012D01*
X017922Y010170D02*
X018035Y010170D01*
X018035Y010329D02*
X017922Y010329D01*
X017922Y010487D02*
X018035Y010487D01*
X017624Y010237D02*
X017309Y010237D01*
X016315Y009243D01*
X015383Y009243D01*
X015373Y009253D01*
X014986Y009253D01*
X015383Y009743D02*
X015404Y009765D01*
X016089Y009765D01*
X017004Y008743D02*
X019767Y008743D01*
X019767Y008585D02*
X016845Y008585D01*
X016378Y007316D02*
X017952Y007316D01*
X018091Y007475D02*
X018294Y007475D01*
X018279Y007633D02*
X019767Y007633D01*
X019767Y007475D02*
X018923Y007475D01*
X019265Y007316D02*
X019767Y007316D01*
X019767Y007158D02*
X019442Y007158D01*
X019567Y006999D02*
X019767Y006999D01*
X019767Y006841D02*
X019658Y006841D01*
X019707Y006682D02*
X019767Y006682D01*
X019767Y006524D02*
X019748Y006524D01*
X019748Y006365D02*
X019767Y006365D01*
X019767Y006206D02*
X019742Y006206D01*
X019767Y006048D02*
X019700Y006048D01*
X019642Y005889D02*
X019767Y005889D01*
X019767Y005731D02*
X019551Y005731D01*
X019414Y005572D02*
X019767Y005572D01*
X019767Y005414D02*
X019217Y005414D01*
X018820Y005255D02*
X019767Y005255D01*
X019767Y005097D02*
X017479Y005097D01*
X017509Y004938D02*
X019767Y004938D01*
X019767Y004780D02*
X017459Y004780D01*
X017190Y004621D02*
X019767Y004621D01*
X019767Y004463D02*
X017032Y004463D01*
X016873Y004304D02*
X019767Y004304D01*
X019767Y004145D02*
X016714Y004145D01*
X016556Y003987D02*
X019767Y003987D01*
X019767Y003828D02*
X016363Y003828D01*
X016194Y004304D02*
X015196Y004304D01*
X015037Y004463D02*
X016353Y004463D01*
X016511Y004621D02*
X014879Y004621D01*
X014720Y004780D02*
X016670Y004780D01*
X016828Y004938D02*
X014562Y004938D01*
X014478Y005097D02*
X016903Y005097D01*
X017069Y005255D02*
X014478Y005255D01*
X014546Y005414D02*
X015006Y005414D01*
X014872Y005572D02*
X014680Y005572D01*
X014741Y005731D02*
X014811Y005731D01*
X014811Y005889D02*
X014741Y005889D01*
X014688Y006048D02*
X014864Y006048D01*
X014987Y006206D02*
X014565Y006206D01*
X014471Y006524D02*
X013994Y006524D01*
X014133Y006682D02*
X014332Y006682D01*
X014268Y006841D02*
X014197Y006841D01*
X014197Y006999D02*
X014268Y006999D01*
X014317Y007158D02*
X014148Y007158D01*
X014030Y007316D02*
X014435Y007316D01*
X013344Y007316D02*
X012996Y007316D01*
X013102Y007158D02*
X013226Y007158D01*
X013177Y006999D02*
X013144Y006999D01*
X013138Y006841D02*
X013177Y006841D01*
X013241Y006682D02*
X013084Y006682D01*
X012809Y006206D02*
X012388Y006206D01*
X012511Y006048D02*
X012686Y006048D01*
X012634Y005889D02*
X012563Y005889D01*
X012563Y005731D02*
X012634Y005731D01*
X012694Y005572D02*
X012503Y005572D01*
X012369Y005414D02*
X012829Y005414D01*
X011853Y005255D02*
X008977Y005255D01*
X008555Y005255D02*
X007283Y005255D01*
X007404Y005097D02*
X011853Y005097D01*
X011853Y004938D02*
X007664Y004938D01*
X007772Y004780D02*
X011853Y004780D01*
X011843Y004621D02*
X007784Y004621D01*
X007693Y004463D02*
X011685Y004463D01*
X011359Y004304D02*
X006738Y004304D01*
X006896Y004463D02*
X007240Y004463D01*
X007149Y004621D02*
X007055Y004621D01*
X006755Y004938D02*
X006446Y004938D01*
X006446Y005097D02*
X006755Y005097D01*
X006755Y005255D02*
X006622Y005255D01*
X006622Y005414D02*
X006755Y005414D01*
X006755Y005572D02*
X006622Y005572D01*
X006755Y005731D02*
X004894Y005731D01*
X005011Y005613D02*
X004748Y005877D01*
X005505Y005877D01*
X005563Y005935D01*
X005870Y005935D01*
X005870Y005888D01*
X005952Y005806D01*
X006541Y005806D01*
X006622Y005888D01*
X006622Y006319D01*
X006541Y006401D01*
X005952Y006401D01*
X005886Y006335D01*
X005563Y006335D01*
X005513Y006385D01*
X005563Y006435D01*
X005680Y006435D01*
X005949Y006704D01*
X005949Y006675D01*
X006031Y006593D01*
X006462Y006593D01*
X006544Y006675D01*
X006544Y007264D01*
X006462Y007346D01*
X006031Y007346D01*
X005949Y007264D01*
X005949Y007169D01*
X005848Y007169D01*
X005731Y007052D01*
X005539Y006859D01*
X005513Y006885D01*
X005587Y006959D01*
X005587Y007311D01*
X005513Y007385D01*
X005587Y007459D01*
X005587Y007811D01*
X005537Y007861D01*
X005558Y007873D01*
X005591Y007906D01*
X005615Y007947D01*
X005627Y007993D01*
X005627Y008135D01*
X005627Y008277D01*
X005615Y008322D01*
X005591Y008363D01*
X005558Y008397D01*
X005537Y008409D01*
X005587Y008459D01*
X005587Y008811D01*
X005513Y008885D01*
X005563Y008935D01*
X005660Y008935D01*
X005777Y009052D01*
X006013Y009288D01*
X006013Y009454D01*
X006013Y009594D01*
X006083Y009663D01*
X006131Y009780D01*
X006131Y009907D01*
X006083Y010024D01*
X005993Y010113D01*
X005876Y010162D01*
X005750Y010162D01*
X005633Y010113D01*
X005544Y010024D01*
X005495Y009907D01*
X005495Y009780D01*
X005544Y009663D01*
X005613Y009594D01*
X005613Y009454D01*
X005529Y009369D01*
X005505Y009393D01*
X004523Y009393D01*
X004441Y009311D01*
X004441Y009305D01*
X004438Y009303D01*
X004438Y009316D01*
X004390Y009433D01*
X004320Y009503D01*
X004320Y009655D01*
X004531Y009919D01*
X005384Y009919D01*
X005501Y010036D01*
X005659Y010194D01*
X005659Y010359D01*
X005659Y010373D01*
X005674Y010373D01*
X005756Y010455D01*
X005756Y011043D01*
X005745Y011054D01*
X005786Y011077D01*
X005819Y011111D01*
X005826Y011123D01*
X005888Y011061D01*
X006028Y010921D01*
X006028Y010730D01*
X006110Y010648D01*
X006698Y010648D01*
X006780Y010730D01*
X006780Y011161D01*
X006698Y011243D01*
X006271Y011243D01*
X006171Y011344D01*
X006171Y011357D01*
X006698Y011357D01*
X006780Y011439D01*
X006780Y011856D01*
X006831Y011907D01*
X006879Y012024D01*
X006879Y012151D01*
X006831Y012268D01*
X006741Y012357D01*
X006640Y012399D01*
X006664Y012399D01*
X006781Y012448D01*
X006810Y012477D01*
X007407Y012477D01*
X007817Y012067D01*
X007817Y011804D01*
X007854Y011715D01*
X007921Y011648D01*
X008129Y011440D01*
X007802Y011440D01*
X007720Y011358D01*
X007720Y010770D01*
X007802Y010688D01*
X007818Y010688D01*
X007818Y010666D01*
X007935Y010549D01*
X007956Y010528D01*
X007956Y010397D01*
X007861Y010397D01*
X007780Y010315D01*
X007780Y009923D01*
X007861Y009841D01*
X008450Y009841D01*
X008532Y009923D01*
X008532Y010315D01*
X008450Y010397D01*
X008356Y010397D01*
X008356Y010528D01*
X008356Y010694D01*
X008298Y010752D01*
X008315Y010770D01*
X008315Y011254D01*
X008386Y011183D01*
X008474Y011147D01*
X008570Y011147D01*
X008776Y011147D01*
X008834Y011089D01*
X009077Y011089D01*
X009078Y011089D01*
X009194Y011089D01*
X011186Y011089D01*
X011292Y011133D01*
X011374Y011215D01*
X011424Y011264D01*
X011499Y011264D01*
X011465Y011230D01*
X011465Y010878D01*
X011547Y010796D01*
X011887Y010796D01*
X011887Y010745D01*
X011897Y010734D01*
X011899Y010720D01*
X011955Y010677D01*
X012004Y010628D01*
X011775Y010487D02*
X011623Y010487D01*
X011642Y010329D02*
X011756Y010329D01*
X011345Y010174D02*
X011345Y010099D01*
X011679Y009765D01*
X011697Y009219D02*
X011623Y009219D01*
X011584Y009060D02*
X011715Y009060D01*
X011286Y009060D02*
X011285Y009060D01*
X011285Y009219D02*
X011286Y009219D01*
X011285Y009377D02*
X011286Y009377D01*
X011955Y008544D02*
X012388Y008544D01*
X012585Y008741D01*
X013321Y008741D01*
X013323Y008743D01*
X013322Y009243D02*
X012708Y009243D01*
X013322Y009243D01*
X013322Y009243D01*
X013323Y009743D02*
X013301Y009765D01*
X013738Y010170D02*
X012609Y010170D01*
X012767Y010012D02*
X014163Y010012D01*
X014109Y010170D02*
X014322Y010170D01*
X014224Y010329D02*
X014480Y010329D01*
X014639Y010487D02*
X014242Y010487D01*
X014162Y010646D02*
X014797Y010646D01*
X014956Y010804D02*
X013836Y010804D01*
X013730Y010911D02*
X013730Y010911D01*
X013677Y010963D02*
X015114Y010963D01*
X015273Y011121D02*
X012650Y011121D01*
X013092Y011280D02*
X014242Y011280D01*
X014131Y011438D02*
X013291Y011438D01*
X013449Y011597D02*
X014117Y011597D01*
X014205Y011756D02*
X013608Y011756D01*
X013082Y012050D02*
X013082Y014301D01*
X013080Y014298D01*
X012963Y014250D01*
X012837Y014250D01*
X012720Y014298D01*
X012664Y014354D01*
X012626Y014354D01*
X012600Y014328D01*
X012621Y014316D01*
X012654Y014283D01*
X012678Y014242D01*
X012690Y014196D01*
X012690Y014054D01*
X012058Y014054D01*
X012058Y014054D01*
X012690Y014054D01*
X012690Y013912D01*
X012678Y013866D01*
X012654Y013825D01*
X012621Y013792D01*
X012600Y013780D01*
X012650Y013730D01*
X012650Y013378D01*
X012576Y013304D01*
X012650Y013230D01*
X012650Y012878D01*
X012576Y012804D01*
X012650Y012730D01*
X012650Y012378D01*
X012576Y012304D01*
X012650Y012230D01*
X012650Y011878D01*
X012616Y011844D01*
X012876Y011844D01*
X013082Y012050D01*
X013082Y012073D02*
X012650Y012073D01*
X012649Y012231D02*
X013082Y012231D01*
X013082Y012390D02*
X012650Y012390D01*
X012650Y012548D02*
X013082Y012548D01*
X013082Y012707D02*
X012650Y012707D01*
X012637Y012865D02*
X013082Y012865D01*
X013082Y013024D02*
X012650Y013024D01*
X012650Y013182D02*
X013082Y013182D01*
X013082Y013341D02*
X012613Y013341D01*
X012650Y013499D02*
X013082Y013499D01*
X013082Y013658D02*
X012650Y013658D01*
X012645Y013817D02*
X013082Y013817D01*
X013082Y013975D02*
X012690Y013975D01*
X012690Y014134D02*
X013082Y014134D01*
X013066Y014292D02*
X013082Y014292D01*
X012734Y014292D02*
X012645Y014292D01*
X011515Y014328D02*
X011494Y014316D01*
X011461Y014283D01*
X011437Y014242D01*
X011425Y014196D01*
X011425Y014082D01*
X011289Y014218D01*
X011172Y014335D01*
X011061Y014335D01*
X011061Y014852D01*
X010979Y014934D01*
X010954Y014934D01*
X010985Y014965D01*
X011008Y015006D01*
X011021Y015052D01*
X011021Y015312D01*
X011021Y015572D01*
X011008Y015618D01*
X010985Y015659D01*
X010951Y015692D01*
X010926Y015706D01*
X011034Y015706D01*
X011151Y015755D01*
X011232Y015836D01*
X011500Y015842D01*
X011538Y015804D01*
X011465Y015730D01*
X011465Y015378D01*
X011538Y015304D01*
X011465Y015230D01*
X011465Y014878D01*
X011538Y014804D01*
X011465Y014730D01*
X011465Y014378D01*
X011515Y014328D01*
X011470Y014292D02*
X011214Y014292D01*
X011061Y014451D02*
X011465Y014451D01*
X011465Y014609D02*
X011061Y014609D01*
X011061Y014768D02*
X011502Y014768D01*
X011465Y014926D02*
X010987Y014926D01*
X011021Y015085D02*
X011465Y015085D01*
X011478Y015243D02*
X011021Y015243D01*
X011021Y015312D02*
X010684Y015312D01*
X011021Y015312D01*
X011021Y015402D02*
X011465Y015402D01*
X011465Y015561D02*
X011021Y015561D01*
X011064Y015719D02*
X011465Y015719D01*
X011476Y016242D02*
X011212Y016236D01*
X011209Y016239D01*
X011206Y016239D01*
X011151Y016294D01*
X011034Y016343D01*
X010907Y016343D01*
X010791Y016294D01*
X010701Y016205D01*
X010653Y016088D01*
X010653Y015961D01*
X010701Y015844D01*
X010791Y015755D01*
X010855Y015728D01*
X010683Y015728D01*
X010502Y015728D01*
X010456Y015716D01*
X010415Y015692D01*
X010382Y015659D01*
X010358Y015618D01*
X010346Y015572D01*
X010346Y015312D01*
X010683Y015312D01*
X010683Y015312D01*
X010346Y015312D01*
X010346Y015052D01*
X010358Y015006D01*
X010382Y014965D01*
X010413Y014934D01*
X010352Y014934D01*
X010301Y014884D01*
X010251Y014934D01*
X010137Y014934D01*
X010137Y014936D01*
X010190Y014936D01*
X010272Y015018D01*
X010272Y015606D01*
X010190Y015688D01*
X009759Y015688D01*
X009677Y015606D01*
X009677Y015018D01*
X009737Y014958D01*
X009737Y014934D01*
X009623Y014934D01*
X009541Y014852D01*
X009541Y014323D01*
X009623Y014241D01*
X009755Y014241D01*
X009864Y014132D01*
X009967Y014029D01*
X009623Y014029D01*
X009541Y013947D01*
X009541Y013417D01*
X009623Y013335D01*
X010251Y013335D01*
X010301Y013386D01*
X010352Y013335D01*
X010468Y013335D01*
X010468Y013235D01*
X010452Y013235D01*
X010370Y013153D01*
X010370Y012565D01*
X010452Y012483D01*
X010883Y012483D01*
X010965Y012565D01*
X010965Y012622D01*
X011119Y012622D01*
X011329Y012832D01*
X011510Y012832D01*
X011538Y012804D01*
X011465Y012730D01*
X011465Y012721D01*
X011439Y012721D01*
X011322Y012603D01*
X011003Y012284D01*
X010995Y012288D01*
X010868Y012288D01*
X010751Y012239D01*
X010662Y012150D01*
X010613Y012033D01*
X010613Y011906D01*
X010662Y011789D01*
X010751Y011700D01*
X010826Y011669D01*
X009438Y011669D01*
X009422Y011684D01*
X009072Y011684D01*
X009122Y011734D01*
X009122Y012126D01*
X009041Y012208D01*
X008967Y012208D01*
X008967Y013129D01*
X008981Y013129D01*
X009063Y013211D01*
X009063Y013878D01*
X008981Y013960D01*
X008472Y013960D01*
X008390Y013878D01*
X008390Y013211D01*
X008472Y013129D01*
X008487Y013129D01*
X008487Y012224D01*
X008484Y012215D01*
X008484Y012208D01*
X008452Y012208D01*
X008370Y012126D01*
X008370Y011878D01*
X008297Y011951D01*
X008297Y012119D01*
X008297Y012214D01*
X008261Y012302D01*
X007710Y012853D01*
X007642Y012921D01*
X007554Y012957D01*
X007337Y012957D01*
X007354Y012974D01*
X007869Y013416D01*
X007878Y013420D01*
X007906Y013447D01*
X007935Y013472D01*
X007939Y013480D01*
X007946Y013487D01*
X007961Y013523D01*
X007978Y013557D01*
X007979Y013566D01*
X007982Y013575D01*
X007982Y013614D01*
X007985Y013652D01*
X007982Y013661D01*
X007982Y013996D01*
X008039Y014053D01*
X008098Y013995D01*
X008607Y013995D01*
X008689Y014077D01*
X008689Y014744D01*
X008633Y014800D01*
X008820Y014800D01*
X008764Y014744D01*
X008764Y014077D01*
X008846Y013995D01*
X009355Y013995D01*
X009437Y014077D01*
X009437Y014744D01*
X009355Y014826D01*
X009341Y014826D01*
X009341Y014850D01*
X009390Y014899D01*
X009438Y015016D01*
X009438Y015143D01*
X009390Y015260D01*
X009300Y015349D01*
X009184Y015398D01*
X009057Y015398D01*
X008940Y015349D01*
X008871Y015280D01*
X008158Y015280D01*
X008158Y015335D01*
X008076Y015416D01*
X007645Y015416D01*
X007563Y015335D01*
X007563Y014746D01*
X007645Y014664D01*
X008016Y014664D01*
X008016Y014650D01*
X007392Y014650D01*
X007392Y014689D01*
X007449Y014746D01*
X007449Y015335D01*
X007392Y015392D01*
X007392Y015515D01*
X007449Y015573D01*
X007449Y016161D01*
X007367Y016243D01*
X006936Y016243D01*
X006854Y016161D01*
X006854Y015573D01*
X006912Y015515D01*
X006912Y015392D01*
X006854Y015335D01*
X006854Y014746D01*
X006912Y014689D01*
X006912Y014481D01*
X006948Y014393D01*
X007016Y014325D01*
X007134Y014207D01*
X007222Y014170D01*
X007318Y014170D01*
X007514Y014170D01*
X007502Y014143D01*
X007502Y014048D01*
X007502Y013733D01*
X007102Y013391D01*
X007051Y013391D01*
X007056Y013393D01*
X007146Y013482D01*
X007194Y013599D01*
X007194Y013726D01*
X007146Y013843D01*
X007056Y013932D01*
X006939Y013980D01*
X006813Y013980D01*
X006696Y013932D01*
X006626Y013862D01*
X005929Y013862D01*
X005852Y013940D01*
X005381Y013940D01*
X005299Y013858D01*
X005299Y013427D01*
X005336Y013391D01*
X003591Y013391D01*
X003591Y013659D01*
X003593Y013659D01*
X003710Y013708D01*
X003799Y013797D01*
X003848Y013914D01*
X003848Y014041D01*
X003799Y014157D01*
X003710Y014247D01*
X003593Y014295D01*
X003466Y014295D01*
X003350Y014247D01*
X003320Y014217D01*
X002374Y014217D01*
X002703Y014516D01*
X002710Y014519D01*
X002746Y014555D01*
X002783Y014589D01*
X002786Y014594D01*
X002834Y014546D01*
X003580Y014546D01*
X003662Y014628D01*
X003662Y015037D01*
X003797Y015037D01*
X003892Y015037D01*
X003981Y015073D01*
X004453Y015546D01*
X004492Y015585D01*
X004492Y015533D01*
X004550Y015476D01*
X004550Y015431D01*
X004492Y015374D01*
X004492Y014785D01*
X004550Y014728D01*
X004550Y014309D01*
X004472Y014232D01*
X004472Y013801D01*
X004554Y013719D01*
X005025Y013719D01*
X005107Y013801D01*
X005107Y014232D01*
X005030Y014309D01*
X005030Y014728D01*
X005087Y014785D01*
X005087Y015374D01*
X005030Y015431D01*
X005030Y015476D01*
X005087Y015533D01*
X005087Y016122D01*
X005005Y016204D01*
X004718Y016204D01*
X004732Y016218D01*
X005084Y016218D01*
X005201Y016101D01*
X005201Y015533D01*
X005258Y015476D01*
X005230Y015460D01*
X005197Y015426D01*
X005173Y015385D01*
X005161Y015340D01*
X005161Y015080D01*
X005498Y015080D01*
X005498Y015079D01*
X005161Y015079D01*
X005161Y014820D01*
X005173Y014774D01*
X005197Y014733D01*
X005230Y014699D01*
X005271Y014676D01*
X005304Y014667D01*
X005295Y014659D01*
X005271Y014618D01*
X005259Y014572D01*
X005259Y014391D01*
X005616Y014391D01*
X005616Y014390D01*
X005617Y014390D01*
X005617Y014391D01*
X005974Y014391D01*
X005974Y014572D01*
X005961Y014618D01*
X005938Y014659D01*
X005904Y014692D01*
X005863Y014716D01*
X005817Y014728D01*
X005795Y014728D01*
X005800Y014733D01*
X005823Y014774D01*
X005836Y014820D01*
X005836Y015079D01*
X005499Y015079D01*
X005499Y015080D01*
X005836Y015080D01*
X005836Y015340D01*
X005823Y015385D01*
X005800Y015426D01*
X005766Y015460D01*
X005738Y015476D01*
X005796Y015533D01*
X005796Y015588D01*
X006146Y015588D01*
X006146Y015573D01*
X006228Y015491D01*
X006659Y015491D01*
X006741Y015573D01*
X006741Y016161D01*
X006659Y016243D01*
X006228Y016243D01*
X006146Y016161D01*
X006146Y016068D01*
X005796Y016068D01*
X005796Y016122D01*
X005738Y016179D01*
X005738Y016190D01*
X005702Y016279D01*
X005634Y016346D01*
X005319Y016661D01*
X005231Y016698D01*
X005136Y016698D01*
X004584Y016698D01*
X004496Y016661D01*
X004429Y016594D01*
X004182Y016347D01*
X004182Y016379D01*
X004182Y016560D01*
X004170Y016606D01*
X004146Y016647D01*
X004113Y016680D01*
X004072Y016704D01*
X004026Y016716D01*
X003766Y016716D01*
X003766Y016379D01*
X003766Y016379D01*
X003766Y016716D01*
X003506Y016716D01*
X003460Y016704D01*
X003419Y016680D01*
X003386Y016647D01*
X003362Y016606D01*
X003353Y016572D01*
X003336Y016589D01*
X003336Y017564D01*
X003393Y017507D01*
X003426Y017507D01*
X003426Y017339D01*
X003390Y017303D01*
X003390Y016872D01*
X003472Y016790D01*
X003596Y016790D01*
X003698Y016748D01*
X003834Y016748D01*
X003936Y016790D01*
X004060Y016790D01*
X004096Y016826D01*
X008147Y016826D01*
X008282Y016826D01*
X008407Y016878D01*
X008857Y017328D01*
X008909Y017453D01*
X008909Y017588D01*
X008909Y017869D01*
X009093Y017685D01*
X009167Y017611D01*
X009264Y017571D01*
X009384Y017571D01*
X009417Y017538D01*
X010005Y017538D01*
X010053Y017586D01*
X010146Y017586D01*
X010146Y017557D01*
X010228Y017475D01*
X010659Y017475D01*
X010741Y017557D01*
X010741Y018146D01*
X010713Y018173D01*
X010739Y018188D01*
X010772Y018221D01*
X010796Y018262D01*
X010808Y018308D01*
X010808Y018568D01*
X010808Y018828D01*
X010796Y018874D01*
X010772Y018915D01*
X010739Y018948D01*
X010702Y018969D01*
X010739Y018991D01*
X010772Y019024D01*
X010796Y019065D01*
X010804Y019095D01*
X010882Y019095D01*
X010882Y019077D01*
X010939Y019019D01*
X010939Y018920D01*
X010882Y018862D01*
X010882Y018274D01*
X010932Y018223D01*
X010854Y018146D01*
X010854Y017557D01*
X010936Y017475D01*
X010968Y017475D01*
X010968Y017123D01*
X011085Y017006D01*
X011236Y016854D01*
X011402Y016854D01*
X011488Y016854D01*
X011538Y016804D01*
X011488Y016754D01*
X010580Y016754D01*
X010580Y016796D01*
X010532Y016913D01*
X010442Y017003D01*
X010325Y017051D01*
X010199Y017051D01*
X010082Y017003D01*
X009992Y016913D01*
X009944Y016796D01*
X009944Y016670D01*
X009992Y016553D01*
X010082Y016464D01*
X010199Y016415D01*
X010297Y016415D01*
X010358Y016354D01*
X010524Y016354D01*
X011488Y016354D01*
X011538Y016304D01*
X011476Y016242D01*
X011489Y016353D02*
X005627Y016353D01*
X005736Y016195D02*
X006179Y016195D01*
X006707Y016195D02*
X006888Y016195D01*
X006854Y016036D02*
X006741Y016036D01*
X006741Y015878D02*
X006854Y015878D01*
X006854Y015719D02*
X006741Y015719D01*
X006728Y015561D02*
X006867Y015561D01*
X006912Y015402D02*
X005814Y015402D01*
X005796Y015561D02*
X006158Y015561D01*
X005836Y015243D02*
X006854Y015243D01*
X006854Y015085D02*
X005836Y015085D01*
X005836Y014926D02*
X006854Y014926D01*
X006854Y014768D02*
X005820Y014768D01*
X005963Y014609D02*
X006912Y014609D01*
X006924Y014451D02*
X005974Y014451D01*
X005974Y014390D02*
X005617Y014390D01*
X005617Y014053D01*
X005817Y014053D01*
X005863Y014066D01*
X005904Y014089D01*
X005938Y014123D01*
X005961Y014164D01*
X005974Y014209D01*
X005974Y014390D01*
X005974Y014292D02*
X007049Y014292D01*
X006952Y013975D02*
X007502Y013975D01*
X007502Y013817D02*
X007157Y013817D01*
X007194Y013658D02*
X007415Y013658D01*
X007230Y013499D02*
X007153Y013499D01*
X007412Y013024D02*
X008487Y013024D01*
X008487Y012865D02*
X007698Y012865D01*
X007856Y012707D02*
X008487Y012707D01*
X008487Y012548D02*
X008015Y012548D01*
X008173Y012390D02*
X008487Y012390D01*
X008487Y012231D02*
X008290Y012231D01*
X008297Y012073D02*
X008370Y012073D01*
X008370Y011914D02*
X008334Y011914D01*
X007972Y011597D02*
X007549Y011597D01*
X007549Y011438D02*
X007801Y011438D01*
X007720Y011280D02*
X007607Y011280D01*
X007607Y011121D02*
X007720Y011121D01*
X007720Y010963D02*
X007607Y010963D01*
X007607Y010804D02*
X007720Y010804D01*
X007838Y010646D02*
X007470Y010646D01*
X007470Y010487D02*
X007956Y010487D01*
X007793Y010329D02*
X007470Y010329D01*
X007470Y010170D02*
X007780Y010170D01*
X007780Y010012D02*
X007470Y010012D01*
X007470Y009853D02*
X007850Y009853D01*
X007470Y009694D02*
X008566Y009694D01*
X008580Y009536D02*
X007470Y009536D01*
X007362Y009377D02*
X009007Y009377D01*
X008980Y009219D02*
X007204Y009219D01*
X007155Y009060D02*
X008980Y009060D01*
X008980Y008902D02*
X007155Y008902D01*
X007155Y008743D02*
X008980Y008743D01*
X008996Y008585D02*
X007155Y008585D01*
X007155Y008426D02*
X007256Y008426D01*
X007256Y008268D02*
X007155Y008268D01*
X007155Y008109D02*
X007256Y008109D01*
X007256Y007950D02*
X007155Y007950D01*
X007155Y007792D02*
X007333Y007792D01*
X007248Y007633D02*
X007155Y007633D01*
X007155Y007475D02*
X007188Y007475D01*
X007200Y007316D02*
X007214Y007316D01*
X007252Y007158D02*
X007361Y007158D01*
X007252Y006999D02*
X007808Y006999D01*
X007716Y006841D02*
X007252Y006841D01*
X007252Y006682D02*
X007667Y006682D01*
X007626Y006524D02*
X007155Y006524D01*
X007155Y006365D02*
X007626Y006365D01*
X007632Y006206D02*
X007155Y006206D01*
X007155Y006048D02*
X007674Y006048D01*
X007732Y005889D02*
X007155Y005889D01*
X007155Y005731D02*
X007824Y005731D01*
X007960Y005572D02*
X007155Y005572D01*
X007162Y005414D02*
X008158Y005414D01*
X009374Y005414D02*
X011738Y005414D01*
X011604Y005572D02*
X009572Y005572D01*
X009708Y005731D02*
X009951Y005731D01*
X009905Y005889D02*
X009800Y005889D01*
X009857Y006048D02*
X009937Y006048D01*
X009900Y006206D02*
X010023Y006206D01*
X010023Y006365D02*
X009906Y006365D01*
X009906Y006524D02*
X010023Y006524D01*
X009991Y006682D02*
X009865Y006682D01*
X009832Y006841D02*
X009816Y006841D01*
X010081Y007158D02*
X010613Y007158D01*
X010613Y007316D02*
X009922Y007316D01*
X009764Y007475D02*
X010613Y007475D01*
X010613Y007633D02*
X009605Y007633D01*
X010239Y006999D02*
X010613Y006999D01*
X010613Y006841D02*
X010398Y006841D01*
X010423Y006682D02*
X010613Y006682D01*
X010613Y006524D02*
X010423Y006524D01*
X010423Y006365D02*
X010613Y006365D01*
X010742Y006206D02*
X010423Y006206D01*
X010508Y006048D02*
X010901Y006048D01*
X011059Y005889D02*
X010541Y005889D01*
X010494Y005731D02*
X011218Y005731D01*
X011466Y006048D02*
X011596Y006048D01*
X011719Y006206D02*
X011308Y006206D01*
X011254Y004145D02*
X006579Y004145D01*
X006554Y003987D02*
X006454Y003987D01*
X006332Y003361D02*
X005665Y003361D01*
X005583Y003279D01*
X005583Y002770D01*
X005612Y002740D01*
X000442Y002740D01*
X000442Y006222D01*
X000696Y005968D01*
X000783Y005932D01*
X000783Y005919D01*
X000791Y005912D01*
X000791Y005532D01*
X000787Y005485D01*
X000791Y005474D01*
X000791Y005463D01*
X000809Y005420D01*
X000824Y005375D01*
X000831Y005367D01*
X000835Y005356D01*
X000868Y005323D01*
X001075Y005083D01*
X001079Y005073D01*
X001112Y005040D01*
X001143Y005004D01*
X001153Y004999D01*
X001161Y004991D01*
X001204Y004973D01*
X001246Y004952D01*
X001257Y004951D01*
X001267Y004947D01*
X001314Y004947D01*
X001361Y004944D01*
X001372Y004947D01*
X002060Y004947D01*
X002128Y004919D01*
X002254Y004919D01*
X002371Y004967D01*
X002461Y005057D01*
X002503Y005159D01*
X002503Y004761D01*
X002620Y004643D01*
X002739Y004524D01*
X002856Y004407D01*
X002878Y004407D01*
X002878Y004392D01*
X002960Y004310D01*
X003548Y004310D01*
X003630Y004392D01*
X003630Y004823D01*
X003548Y004905D01*
X002960Y004905D01*
X002942Y004887D01*
X002903Y004926D01*
X002903Y005075D01*
X002960Y005018D01*
X003548Y005018D01*
X003630Y005100D01*
X003630Y005116D01*
X003744Y005116D01*
X003744Y005100D01*
X003826Y005018D01*
X004415Y005018D01*
X004496Y005100D01*
X004496Y005531D01*
X004415Y005613D01*
X003826Y005613D01*
X003744Y005531D01*
X003744Y005516D01*
X003630Y005516D01*
X003630Y005531D01*
X003548Y005613D01*
X003454Y005613D01*
X003454Y005765D01*
X003454Y005877D01*
X003458Y005877D01*
X003540Y005959D01*
X003540Y006311D01*
X003466Y006385D01*
X003536Y006454D01*
X003604Y006454D01*
X004650Y005409D01*
X004650Y005100D01*
X004732Y005018D01*
X005320Y005018D01*
X005402Y005100D01*
X005402Y005531D01*
X005320Y005613D01*
X005011Y005613D01*
X004645Y005414D02*
X004496Y005414D01*
X004487Y005572D02*
X004456Y005572D01*
X004328Y005731D02*
X003454Y005731D01*
X003471Y005889D02*
X004169Y005889D01*
X004011Y006048D02*
X003540Y006048D01*
X003540Y006206D02*
X003852Y006206D01*
X003694Y006365D02*
X003486Y006365D01*
X003496Y006854D02*
X003466Y006885D01*
X003540Y006959D01*
X003540Y007311D01*
X003466Y007385D01*
X003520Y007439D01*
X003752Y007439D01*
X003822Y007369D01*
X003939Y007321D01*
X004065Y007321D01*
X004182Y007369D01*
X004272Y007459D01*
X004320Y007575D01*
X004320Y007702D01*
X004272Y007819D01*
X004182Y007908D01*
X004140Y007926D01*
X004222Y007960D01*
X004311Y008049D01*
X004360Y008166D01*
X004360Y008293D01*
X004311Y008409D01*
X004222Y008499D01*
X004105Y008547D01*
X003978Y008547D01*
X003954Y008537D01*
X003845Y008659D01*
X003888Y008659D01*
X004361Y008659D01*
X004441Y008740D01*
X004441Y008459D01*
X004491Y008409D01*
X004470Y008397D01*
X004437Y008363D01*
X004413Y008322D01*
X004401Y008277D01*
X004401Y008135D01*
X005014Y008135D01*
X005627Y008135D01*
X005014Y008135D01*
X005014Y008135D01*
X005014Y008135D01*
X004401Y008135D01*
X004401Y007993D01*
X004413Y007947D01*
X004437Y007906D01*
X004470Y007873D01*
X004491Y007861D01*
X004441Y007811D01*
X004441Y007459D01*
X004515Y007385D01*
X004441Y007311D01*
X004441Y006959D01*
X004515Y006885D01*
X004441Y006811D01*
X004441Y006459D01*
X004515Y006385D01*
X004441Y006311D01*
X004441Y006184D01*
X003887Y006737D01*
X003770Y006854D01*
X003496Y006854D01*
X003540Y006999D02*
X004441Y006999D01*
X004441Y007158D02*
X003540Y007158D01*
X003534Y007316D02*
X004446Y007316D01*
X004441Y007475D02*
X004279Y007475D01*
X004320Y007633D02*
X004441Y007633D01*
X004441Y007792D02*
X004283Y007792D01*
X004200Y007950D02*
X004412Y007950D01*
X004401Y008109D02*
X004336Y008109D01*
X004360Y008268D02*
X004401Y008268D01*
X004474Y008426D02*
X004295Y008426D01*
X004441Y008585D02*
X003912Y008585D01*
X004413Y009377D02*
X004507Y009377D01*
X004320Y009536D02*
X005613Y009536D01*
X005537Y009377D02*
X005521Y009377D01*
X005785Y009060D02*
X006755Y009060D01*
X006755Y008902D02*
X005530Y008902D01*
X005587Y008743D02*
X006755Y008743D01*
X006755Y008585D02*
X005587Y008585D01*
X005554Y008426D02*
X006755Y008426D01*
X006755Y008268D02*
X005627Y008268D01*
X005627Y008109D02*
X006755Y008109D01*
X006755Y007950D02*
X005616Y007950D01*
X005587Y007792D02*
X006755Y007792D01*
X006755Y007633D02*
X005587Y007633D01*
X005587Y007475D02*
X006755Y007475D01*
X006710Y007316D02*
X006491Y007316D01*
X006544Y007158D02*
X006657Y007158D01*
X006657Y006999D02*
X006544Y006999D01*
X006544Y006841D02*
X006657Y006841D01*
X006657Y006682D02*
X006544Y006682D01*
X006755Y006524D02*
X005768Y006524D01*
X005916Y006365D02*
X005533Y006365D01*
X005518Y005889D02*
X005870Y005889D01*
X005870Y005572D02*
X005361Y005572D01*
X005402Y005414D02*
X005870Y005414D01*
X005870Y005255D02*
X005402Y005255D01*
X005398Y005097D02*
X006046Y005097D01*
X006046Y004938D02*
X004405Y004938D01*
X004426Y004932D02*
X004380Y004945D01*
X004120Y004945D01*
X003860Y004945D01*
X003815Y004932D01*
X003774Y004909D01*
X003740Y004875D01*
X003716Y004834D01*
X003704Y004788D01*
X003704Y004607D01*
X003704Y004426D01*
X003716Y004380D01*
X003740Y004339D01*
X003774Y004306D01*
X003815Y004282D01*
X003860Y004270D01*
X004042Y004270D01*
X003969Y004197D01*
X003920Y004080D01*
X003920Y003953D01*
X003969Y003836D01*
X003971Y003834D01*
X003971Y003747D01*
X003838Y003747D01*
X003756Y003665D01*
X003756Y002841D01*
X003838Y002759D01*
X004584Y002759D01*
X004666Y002841D01*
X004666Y003665D01*
X004584Y003747D01*
X004451Y003747D01*
X004451Y003779D01*
X004468Y003797D01*
X004659Y003797D01*
X004759Y003696D01*
X004717Y003653D01*
X004717Y003144D01*
X004799Y003062D01*
X005466Y003062D01*
X005548Y003144D01*
X005548Y003534D01*
X005555Y003506D01*
X005579Y003465D01*
X005612Y003432D01*
X005653Y003408D01*
X005699Y003396D01*
X005980Y003396D01*
X005980Y003754D01*
X005543Y003754D01*
X005543Y003658D01*
X005466Y003735D01*
X005343Y003735D01*
X004970Y004108D01*
X004841Y004237D01*
X004468Y004237D01*
X004424Y004281D01*
X004426Y004282D01*
X004467Y004306D01*
X004501Y004339D01*
X004524Y004380D01*
X004536Y004426D01*
X004536Y004607D01*
X004121Y004607D01*
X004121Y004607D01*
X004536Y004607D01*
X004536Y004788D01*
X004524Y004834D01*
X004501Y004875D01*
X004467Y004909D01*
X004426Y004932D01*
X004493Y005097D02*
X004653Y005097D01*
X004650Y005255D02*
X004496Y005255D01*
X004536Y004780D02*
X004650Y004780D01*
X004650Y004621D02*
X004536Y004621D01*
X004536Y004463D02*
X004650Y004463D01*
X004464Y004304D02*
X004865Y004304D01*
X004933Y004145D02*
X005008Y004145D01*
X005091Y003987D02*
X005543Y003987D01*
X005543Y003828D02*
X005250Y003828D01*
X005132Y003635D02*
X004750Y004017D01*
X004238Y004017D01*
X003947Y004145D02*
X003253Y004145D01*
X003248Y004157D02*
X003159Y004247D01*
X003042Y004295D01*
X002915Y004295D01*
X002798Y004247D01*
X002709Y004157D01*
X002660Y004041D01*
X002660Y003914D01*
X002709Y003797D01*
X002739Y003767D01*
X002739Y003747D01*
X002736Y003747D01*
X002654Y003665D01*
X002654Y002841D01*
X002736Y002759D01*
X003481Y002759D01*
X003563Y002841D01*
X003563Y003665D01*
X003481Y003747D01*
X003272Y003747D01*
X003235Y003784D01*
X003248Y003797D01*
X003297Y003914D01*
X003297Y004041D01*
X003248Y004157D01*
X003297Y003987D02*
X003920Y003987D01*
X003971Y003828D02*
X003261Y003828D01*
X003559Y003670D02*
X003760Y003670D01*
X003756Y003511D02*
X003563Y003511D01*
X003563Y003353D02*
X003756Y003353D01*
X003756Y003194D02*
X003563Y003194D01*
X003563Y003036D02*
X003756Y003036D01*
X003756Y002877D02*
X003563Y002877D01*
X002654Y002877D02*
X000442Y002877D01*
X000442Y003036D02*
X002654Y003036D01*
X002654Y003194D02*
X002065Y003194D01*
X002121Y003217D02*
X002121Y003217D01*
X001809Y003088D01*
X001809Y003088D01*
X001690Y003088D01*
X001690Y003088D01*
X001640Y003088D01*
X001617Y003088D01*
X001590Y003088D01*
X001590Y003088D01*
X001471Y003088D01*
X001471Y003088D01*
X001159Y003217D01*
X001159Y003217D01*
X000919Y003456D01*
X000919Y003456D01*
X000790Y003769D01*
X000790Y003769D01*
X000790Y004107D01*
X000790Y004107D01*
X000919Y004419D01*
X000919Y004419D01*
X001159Y004658D01*
X001159Y004658D01*
X001471Y004788D01*
X001471Y004788D01*
X001590Y004788D01*
X001590Y004788D01*
X001639Y004788D01*
X001640Y004788D01*
X001690Y004788D01*
X001690Y004788D01*
X001809Y004788D01*
X001809Y004788D01*
X002121Y004658D01*
X002121Y004658D01*
X002361Y004419D01*
X002361Y004419D01*
X002490Y004107D01*
X002490Y004107D01*
X002490Y003769D01*
X002490Y003769D01*
X002361Y003456D01*
X002361Y003456D01*
X002121Y003217D01*
X002257Y003353D02*
X002654Y003353D01*
X002654Y003511D02*
X002383Y003511D01*
X002449Y003670D02*
X002658Y003670D01*
X002696Y003828D02*
X002490Y003828D01*
X002490Y003987D02*
X002660Y003987D01*
X002704Y004145D02*
X002474Y004145D01*
X002408Y004304D02*
X003777Y004304D01*
X003704Y004463D02*
X003630Y004463D01*
X003630Y004621D02*
X003704Y004621D01*
X003704Y004607D02*
X004120Y004607D01*
X003704Y004607D01*
X003704Y004780D02*
X003630Y004780D01*
X003836Y004938D02*
X002903Y004938D01*
X002503Y004938D02*
X002301Y004938D01*
X002082Y004938D02*
X000442Y004938D01*
X000442Y004780D02*
X001451Y004780D01*
X001121Y004621D02*
X000442Y004621D01*
X000442Y004463D02*
X000963Y004463D01*
X000872Y004304D02*
X000442Y004304D01*
X000442Y004145D02*
X000806Y004145D01*
X000790Y003987D02*
X000442Y003987D01*
X000442Y003828D02*
X000790Y003828D01*
X000831Y003670D02*
X000442Y003670D01*
X000442Y003511D02*
X000897Y003511D01*
X001023Y003353D02*
X000442Y003353D01*
X000442Y003194D02*
X001215Y003194D01*
X002317Y004463D02*
X002801Y004463D01*
X002739Y004524D02*
X002739Y004524D01*
X002643Y004621D02*
X002159Y004621D01*
X001829Y004780D02*
X002503Y004780D01*
X002620Y004643D02*
X002620Y004643D01*
X002503Y005097D02*
X002477Y005097D01*
X002503Y005315D02*
X002461Y005417D01*
X002371Y005507D01*
X002254Y005555D01*
X002128Y005555D01*
X002060Y005527D01*
X001458Y005527D01*
X001371Y005628D01*
X001371Y005912D01*
X001378Y005919D01*
X001378Y006508D01*
X001296Y006590D01*
X000894Y006590D01*
X000867Y006617D01*
X000867Y006727D01*
X000900Y006719D01*
X001081Y006719D01*
X001262Y006719D01*
X001308Y006731D01*
X001349Y006755D01*
X001382Y006788D01*
X001406Y006829D01*
X001418Y006875D01*
X001418Y007135D01*
X001418Y007395D01*
X001406Y007440D01*
X001382Y007482D01*
X001349Y007515D01*
X001308Y007539D01*
X001262Y007551D01*
X001081Y007551D01*
X001081Y007135D01*
X001081Y007135D01*
X001081Y007551D01*
X000900Y007551D01*
X000867Y007542D01*
X000867Y007700D01*
X000867Y007701D01*
X000867Y007756D01*
X000867Y007815D01*
X000867Y007815D01*
X000865Y008063D01*
X001013Y007915D01*
X001196Y007915D01*
X002438Y007915D01*
X002468Y007885D01*
X002394Y007811D01*
X002394Y007459D01*
X002468Y007385D01*
X002418Y007335D01*
X002087Y007335D01*
X002087Y007429D01*
X002005Y007511D01*
X001574Y007511D01*
X001492Y007429D01*
X001492Y006841D01*
X001409Y006841D01*
X001492Y006841D02*
X001574Y006759D01*
X001590Y006759D01*
X001590Y006590D01*
X001574Y006590D01*
X001492Y006508D01*
X001492Y005919D01*
X001574Y005837D01*
X002005Y005837D01*
X002087Y005919D01*
X002087Y006508D01*
X002005Y006590D01*
X001990Y006590D01*
X001990Y006759D01*
X002005Y006759D01*
X002087Y006841D01*
X002423Y006841D01*
X002394Y006811D02*
X002468Y006885D01*
X002418Y006935D01*
X002087Y006935D01*
X002087Y006841D01*
X001990Y006682D02*
X002394Y006682D01*
X002394Y006811D02*
X002394Y006459D01*
X002468Y006385D01*
X002394Y006311D01*
X002394Y005959D01*
X002468Y005885D01*
X002433Y005850D01*
X002385Y005734D01*
X002385Y005607D01*
X002433Y005490D01*
X002503Y005420D01*
X002503Y005315D01*
X002503Y005414D02*
X002462Y005414D01*
X002399Y005572D02*
X001419Y005572D01*
X001371Y005731D02*
X002385Y005731D01*
X002463Y005889D02*
X002057Y005889D01*
X002087Y006048D02*
X002394Y006048D01*
X002394Y006206D02*
X002087Y006206D01*
X002087Y006365D02*
X002448Y006365D01*
X002394Y006524D02*
X002071Y006524D01*
X001590Y006682D02*
X000867Y006682D01*
X001081Y006719D02*
X001081Y007134D01*
X001081Y006719D01*
X001081Y006841D02*
X001081Y006841D01*
X001081Y006999D02*
X001081Y006999D01*
X001081Y007134D02*
X001081Y007134D01*
X001081Y007135D02*
X001081Y007135D01*
X001418Y007135D01*
X001081Y007135D01*
X001081Y007158D02*
X001081Y007158D01*
X001081Y007316D02*
X001081Y007316D01*
X001081Y007475D02*
X001081Y007475D01*
X000867Y007633D02*
X002394Y007633D01*
X002394Y007475D02*
X002041Y007475D01*
X002394Y007792D02*
X000867Y007792D01*
X000866Y007950D02*
X000978Y007950D01*
X001105Y008135D02*
X000931Y008308D01*
X000931Y008347D01*
X001105Y008135D02*
X002967Y008135D01*
X002955Y008623D02*
X002967Y008635D01*
X002955Y008623D02*
X002026Y008623D01*
X001317Y008623D02*
X001317Y010269D01*
X001483Y010434D01*
X002034Y010434D01*
X003591Y011172D02*
X003591Y012911D01*
X006344Y012911D01*
X006331Y012898D01*
X006283Y012781D01*
X006283Y012654D01*
X006331Y012537D01*
X006420Y012448D01*
X006522Y012406D01*
X006498Y012406D01*
X006381Y012357D01*
X006292Y012268D01*
X006243Y012151D01*
X006243Y012043D01*
X006217Y012004D01*
X006200Y011987D01*
X006191Y011965D01*
X006182Y011952D01*
X006171Y011952D01*
X006171Y012123D01*
X006171Y012289D01*
X005974Y012485D01*
X005857Y012602D01*
X005441Y012602D01*
X005441Y012697D01*
X005359Y012779D01*
X004850Y012779D01*
X004768Y012697D01*
X004768Y012030D01*
X004850Y011948D01*
X005239Y011948D01*
X005212Y011940D01*
X005171Y011917D01*
X005138Y011883D01*
X005114Y011842D01*
X005102Y011796D01*
X005102Y011515D01*
X005460Y011515D01*
X005460Y011479D01*
X005102Y011479D01*
X005102Y011198D01*
X005114Y011152D01*
X005138Y011111D01*
X005171Y011077D01*
X005187Y011068D01*
X005161Y011043D01*
X005161Y010455D01*
X005243Y010373D01*
X005259Y010373D01*
X005259Y010359D01*
X005219Y010319D01*
X004505Y010319D01*
X004496Y010327D01*
X004424Y010319D01*
X004352Y010319D01*
X004343Y010310D01*
X004331Y010309D01*
X004286Y010253D01*
X004235Y010202D01*
X004235Y010189D01*
X003971Y009859D01*
X003920Y009808D01*
X003920Y009795D01*
X003912Y009786D01*
X003920Y009714D01*
X003920Y009503D01*
X003887Y009470D01*
X003887Y010018D01*
X003903Y010018D01*
X003985Y010100D01*
X003985Y010689D01*
X003903Y010771D01*
X003756Y010771D01*
X003848Y010863D01*
X004163Y011178D01*
X004163Y011344D01*
X004163Y012192D01*
X004232Y012262D01*
X004281Y012379D01*
X004281Y012505D01*
X004232Y012622D01*
X004143Y012712D01*
X004026Y012760D01*
X003900Y012760D01*
X003783Y012712D01*
X003693Y012622D01*
X003645Y012505D01*
X003645Y012379D01*
X003693Y012262D01*
X003763Y012192D01*
X003763Y011344D01*
X003591Y011172D01*
X003591Y011280D02*
X003699Y011280D01*
X003763Y011438D02*
X003591Y011438D01*
X003591Y011597D02*
X003763Y011597D01*
X003763Y011756D02*
X003591Y011756D01*
X003591Y011914D02*
X003763Y011914D01*
X003763Y012073D02*
X003591Y012073D01*
X003591Y012231D02*
X003724Y012231D01*
X003645Y012390D02*
X003591Y012390D01*
X003591Y012548D02*
X003663Y012548D01*
X003591Y012707D02*
X003778Y012707D01*
X003591Y012865D02*
X006318Y012865D01*
X006283Y012707D02*
X005431Y012707D01*
X005441Y012203D02*
X005691Y012203D01*
X005771Y012123D01*
X005771Y011925D01*
X005745Y011940D01*
X005699Y011953D01*
X005497Y011953D01*
X005497Y011516D01*
X005460Y011516D01*
X005460Y011953D01*
X005364Y011953D01*
X005441Y012030D01*
X005441Y012203D01*
X005441Y012073D02*
X005771Y012073D01*
X005497Y011914D02*
X005460Y011914D01*
X005460Y011756D02*
X005497Y011756D01*
X005497Y011597D02*
X005460Y011597D01*
X005102Y011597D02*
X005067Y011597D01*
X005067Y011756D02*
X005102Y011756D01*
X005067Y011831D02*
X004985Y011913D01*
X004476Y011913D01*
X004394Y011831D01*
X004394Y011163D01*
X004476Y011081D01*
X004491Y011081D01*
X004453Y011043D01*
X004453Y010455D01*
X004535Y010373D01*
X004966Y010373D01*
X005048Y010455D01*
X005048Y011043D01*
X004997Y011093D01*
X005067Y011163D01*
X005067Y011831D01*
X005169Y011914D02*
X004163Y011914D01*
X004163Y011756D02*
X004394Y011756D01*
X004394Y011597D02*
X004163Y011597D01*
X004163Y011438D02*
X004394Y011438D01*
X004394Y011280D02*
X004163Y011280D01*
X004106Y011121D02*
X004436Y011121D01*
X004453Y010963D02*
X003948Y010963D01*
X003789Y010804D02*
X004453Y010804D01*
X004453Y010646D02*
X003985Y010646D01*
X003985Y010487D02*
X004453Y010487D01*
X004220Y010170D02*
X003985Y010170D01*
X003985Y010329D02*
X005228Y010329D01*
X005161Y010487D02*
X005048Y010487D01*
X005048Y010646D02*
X005161Y010646D01*
X005161Y010804D02*
X005048Y010804D01*
X005048Y010963D02*
X005161Y010963D01*
X005132Y011121D02*
X005025Y011121D01*
X005067Y011280D02*
X005102Y011280D01*
X005102Y011438D02*
X005067Y011438D01*
X004768Y012073D02*
X004163Y012073D01*
X004202Y012231D02*
X004768Y012231D01*
X004768Y012390D02*
X004281Y012390D01*
X004263Y012548D02*
X004768Y012548D01*
X004778Y012707D02*
X004148Y012707D01*
X003591Y013499D02*
X005299Y013499D01*
X005299Y013658D02*
X003591Y013658D01*
X003807Y013817D02*
X004472Y013817D01*
X004472Y013975D02*
X003848Y013975D01*
X003809Y014134D02*
X004472Y014134D01*
X004533Y014292D02*
X003601Y014292D01*
X003459Y014292D02*
X002457Y014292D01*
X002631Y014451D02*
X004550Y014451D01*
X004550Y014609D02*
X003643Y014609D01*
X003662Y014768D02*
X004510Y014768D01*
X004492Y014926D02*
X003662Y014926D01*
X003993Y015085D02*
X004492Y015085D01*
X004492Y015243D02*
X004151Y015243D01*
X004310Y015402D02*
X004520Y015402D01*
X004492Y015561D02*
X004468Y015561D01*
X004077Y015848D02*
X004077Y016057D01*
X004072Y016054D01*
X004026Y016041D01*
X003766Y016041D01*
X003766Y016378D01*
X003766Y016378D01*
X003766Y016041D01*
X003506Y016041D01*
X003460Y016054D01*
X003419Y016077D01*
X003386Y016111D01*
X003375Y016129D01*
X003316Y016070D01*
X003199Y016021D01*
X003073Y016021D01*
X002956Y016070D01*
X002866Y016159D01*
X002818Y016276D01*
X002818Y016403D01*
X002866Y016520D01*
X002936Y016589D01*
X002936Y016680D01*
X002926Y016662D01*
X002892Y016629D01*
X002851Y016605D01*
X002805Y016593D01*
X002564Y016593D01*
X002564Y017029D01*
X002448Y017029D01*
X002448Y016593D01*
X002245Y016593D01*
X002245Y016263D01*
X002710Y015798D01*
X002752Y015756D01*
X002752Y015925D01*
X002834Y016007D01*
X003580Y016007D01*
X003662Y015925D01*
X003662Y015516D01*
X003745Y015516D01*
X004077Y015848D01*
X004077Y015878D02*
X003662Y015878D01*
X003662Y015719D02*
X003948Y015719D01*
X003789Y015561D02*
X003662Y015561D01*
X004077Y016036D02*
X003235Y016036D01*
X003037Y016036D02*
X002472Y016036D01*
X002630Y015878D02*
X002752Y015878D01*
X002852Y016195D02*
X002313Y016195D01*
X002245Y016353D02*
X002818Y016353D01*
X002863Y016512D02*
X002245Y016512D01*
X002448Y016670D02*
X002564Y016670D01*
X002564Y016829D02*
X002448Y016829D01*
X002448Y016987D02*
X002564Y016987D01*
X002564Y017146D02*
X002448Y017146D01*
X002564Y017146D01*
X002564Y017582D01*
X002805Y017582D01*
X002851Y017570D01*
X002892Y017547D01*
X002926Y017513D01*
X002936Y017495D01*
X002936Y017910D01*
X002936Y018076D01*
X003956Y019095D01*
X003355Y019095D01*
X003355Y018938D01*
X002940Y018938D01*
X002940Y018938D01*
X003355Y018938D01*
X003355Y018757D01*
X003343Y018711D01*
X003319Y018670D01*
X003286Y018636D01*
X003245Y018613D01*
X003199Y018600D01*
X002939Y018600D01*
X002939Y018938D01*
X002939Y018938D01*
X002939Y018600D01*
X002679Y018600D01*
X002634Y018613D01*
X002592Y018636D01*
X002559Y018670D01*
X002535Y018711D01*
X002535Y018714D01*
X002532Y018709D01*
X002499Y018676D01*
X002457Y018652D01*
X002412Y018640D01*
X002152Y018640D01*
X002152Y018977D01*
X002152Y018977D01*
X002152Y018640D01*
X001892Y018640D01*
X001846Y018652D01*
X001805Y018676D01*
X001772Y018709D01*
X001748Y018750D01*
X001736Y018796D01*
X001736Y018977D01*
X002151Y018977D01*
X002151Y018977D01*
X001736Y018977D01*
X001736Y019095D01*
X000996Y019095D01*
X000996Y018488D01*
X001637Y017847D01*
X001637Y017938D01*
X001638Y017940D01*
X001158Y018419D01*
X001114Y018526D01*
X001114Y018565D01*
X001100Y018579D01*
X001100Y018943D01*
X001182Y019025D01*
X001283Y019025D01*
X001346Y019051D01*
X001461Y019051D01*
X001524Y019025D01*
X001625Y019025D01*
X001707Y018943D01*
X001707Y018690D01*
X002201Y018197D01*
X002245Y018090D01*
X002245Y018006D01*
X002273Y017938D01*
X002273Y017812D01*
X002245Y017744D01*
X002245Y017582D01*
X002448Y017582D01*
X002448Y017146D01*
X002448Y017305D02*
X002564Y017305D01*
X002564Y017463D02*
X002448Y017463D01*
X002245Y017622D02*
X002936Y017622D01*
X002936Y017780D02*
X002260Y017780D01*
X002273Y017939D02*
X002936Y017939D01*
X002957Y018097D02*
X002242Y018097D01*
X002142Y018256D02*
X003116Y018256D01*
X003274Y018414D02*
X001983Y018414D01*
X001825Y018573D02*
X003433Y018573D01*
X003349Y018731D02*
X003592Y018731D01*
X003750Y018890D02*
X003355Y018890D01*
X003355Y019049D02*
X003909Y019049D01*
X004157Y018731D02*
X006560Y018731D01*
X006560Y018661D02*
X005240Y018661D01*
X005240Y017654D01*
X005252Y017609D01*
X005275Y017568D01*
X005309Y017534D01*
X005350Y017510D01*
X005366Y017506D01*
X004106Y017506D01*
X004106Y017507D01*
X004139Y017507D01*
X004221Y017589D01*
X004221Y018098D01*
X004139Y018180D01*
X003841Y018180D01*
X003834Y018183D01*
X003698Y018183D01*
X003691Y018180D01*
X003606Y018180D01*
X004521Y019095D01*
X005240Y019095D01*
X005240Y018821D01*
X006560Y018821D01*
X006560Y018661D01*
X006560Y017506D01*
X006720Y017506D01*
X006720Y018661D01*
X006560Y018661D01*
X006560Y018573D02*
X006720Y018573D01*
X006720Y018661D02*
X006720Y018821D01*
X008040Y018821D01*
X008040Y019095D01*
X008229Y019095D01*
X008229Y017661D01*
X008074Y017506D01*
X007914Y017506D01*
X007930Y017510D01*
X007971Y017534D01*
X008004Y017568D01*
X008028Y017609D01*
X008040Y017654D01*
X008040Y018661D01*
X006720Y018661D01*
X006679Y018702D02*
X006640Y018741D01*
X006679Y018702D02*
X006679Y018466D01*
X006679Y018387D01*
X006720Y018414D02*
X006560Y018414D01*
X006560Y018256D02*
X006720Y018256D01*
X006720Y018097D02*
X006560Y018097D01*
X006560Y017939D02*
X006720Y017939D01*
X006720Y017780D02*
X006560Y017780D01*
X006560Y017622D02*
X006720Y017622D01*
X006720Y018731D02*
X008229Y018731D01*
X008229Y018573D02*
X008040Y018573D01*
X008040Y018414D02*
X008229Y018414D01*
X008229Y018256D02*
X008040Y018256D01*
X008040Y018097D02*
X008229Y018097D01*
X008229Y017939D02*
X008040Y017939D01*
X008040Y017780D02*
X008229Y017780D01*
X008189Y017622D02*
X008032Y017622D01*
X008517Y016987D02*
X010066Y016987D01*
X009957Y016829D02*
X008289Y016829D01*
X008675Y017146D02*
X010968Y017146D01*
X010968Y017305D02*
X008834Y017305D01*
X008909Y017463D02*
X010968Y017463D01*
X010854Y017622D02*
X010741Y017622D01*
X010741Y017780D02*
X010854Y017780D01*
X010854Y017939D02*
X010741Y017939D01*
X010741Y018097D02*
X010854Y018097D01*
X010900Y018256D02*
X010792Y018256D01*
X010808Y018414D02*
X010882Y018414D01*
X010882Y018573D02*
X010808Y018573D01*
X010808Y018568D02*
X010471Y018568D01*
X010471Y018568D01*
X010470Y018568D01*
X010470Y018568D01*
X010133Y018568D01*
X010133Y018828D01*
X010146Y018874D01*
X010169Y018915D01*
X010203Y018948D01*
X010240Y018969D01*
X010203Y018991D01*
X010169Y019024D01*
X010146Y019065D01*
X010137Y019095D01*
X009377Y019095D01*
X009346Y019064D01*
X009346Y018828D01*
X009364Y018846D01*
X009405Y018869D01*
X009451Y018882D01*
X009711Y018882D01*
X009711Y018545D01*
X009711Y018545D01*
X009711Y018882D01*
X009971Y018882D01*
X010017Y018869D01*
X010058Y018846D01*
X010091Y018812D01*
X010115Y018771D01*
X010127Y018725D01*
X010127Y018544D01*
X009711Y018544D01*
X009711Y018207D01*
X009971Y018207D01*
X010017Y018219D01*
X010058Y018243D01*
X010091Y018276D01*
X010115Y018317D01*
X010127Y018363D01*
X010127Y018544D01*
X009711Y018544D01*
X009711Y018544D01*
X009711Y018544D01*
X009711Y018207D01*
X009451Y018207D01*
X009405Y018219D01*
X009364Y018243D01*
X009346Y018261D01*
X009346Y018182D01*
X009406Y018122D01*
X009417Y018133D01*
X010005Y018133D01*
X010022Y018116D01*
X010146Y018116D01*
X010146Y018146D01*
X010195Y018195D01*
X010169Y018221D01*
X010146Y018262D01*
X010133Y018308D01*
X010133Y018568D01*
X010470Y018568D01*
X010470Y018955D01*
X010470Y019095D01*
X010471Y019095D01*
X010471Y018955D01*
X010471Y018568D01*
X010808Y018568D01*
X010808Y018731D02*
X010882Y018731D01*
X010910Y018890D02*
X010786Y018890D01*
X010786Y019049D02*
X010910Y019049D01*
X010471Y019049D02*
X010470Y019049D01*
X010470Y018890D02*
X010471Y018890D01*
X010470Y018731D02*
X010471Y018731D01*
X010470Y018573D02*
X010471Y018573D01*
X010133Y018573D02*
X010127Y018573D01*
X010125Y018731D02*
X010133Y018731D01*
X010155Y018890D02*
X009346Y018890D01*
X009346Y019049D02*
X010155Y019049D01*
X009711Y018731D02*
X009711Y018731D01*
X009711Y018573D02*
X009711Y018573D01*
X009711Y018414D02*
X009711Y018414D01*
X009711Y018256D02*
X009711Y018256D01*
X010071Y018256D02*
X010149Y018256D01*
X010133Y018414D02*
X010127Y018414D01*
X009351Y018256D02*
X009346Y018256D01*
X008998Y017780D02*
X008909Y017780D01*
X008909Y017622D02*
X009156Y017622D01*
X009944Y016670D02*
X005297Y016670D01*
X005469Y016512D02*
X010034Y016512D01*
X010458Y016987D02*
X011103Y016987D01*
X011514Y016829D02*
X010567Y016829D01*
X010697Y016195D02*
X007416Y016195D01*
X007449Y016036D02*
X010653Y016036D01*
X010687Y015878D02*
X007449Y015878D01*
X007449Y015719D02*
X010468Y015719D01*
X010346Y015561D02*
X010272Y015561D01*
X010272Y015402D02*
X010346Y015402D01*
X010346Y015243D02*
X010272Y015243D01*
X010272Y015085D02*
X010346Y015085D01*
X010344Y014926D02*
X010259Y014926D01*
X009677Y015085D02*
X009438Y015085D01*
X009401Y014926D02*
X009615Y014926D01*
X009541Y014768D02*
X009414Y014768D01*
X009437Y014609D02*
X009541Y014609D01*
X009541Y014451D02*
X009437Y014451D01*
X009437Y014292D02*
X009572Y014292D01*
X009437Y014134D02*
X009862Y014134D01*
X009570Y013975D02*
X007982Y013975D01*
X007982Y013817D02*
X008390Y013817D01*
X008390Y013658D02*
X007983Y013658D01*
X007951Y013499D02*
X008390Y013499D01*
X008390Y013341D02*
X007782Y013341D01*
X007597Y013182D02*
X008418Y013182D01*
X008967Y013024D02*
X009621Y013024D01*
X009621Y013119D02*
X009621Y012859D01*
X009621Y012599D01*
X009634Y012554D01*
X009657Y012512D01*
X009691Y012479D01*
X009732Y012455D01*
X009778Y012443D01*
X009959Y012443D01*
X010140Y012443D01*
X010186Y012455D01*
X010227Y012479D01*
X010260Y012512D01*
X010284Y012554D01*
X010296Y012599D01*
X010296Y012859D01*
X009959Y012859D01*
X009959Y012443D01*
X009959Y012859D01*
X009959Y012859D01*
X009959Y012859D01*
X010296Y012859D01*
X010296Y013119D01*
X010284Y013165D01*
X010260Y013206D01*
X010227Y013239D01*
X010186Y013263D01*
X010140Y013275D01*
X009959Y013275D01*
X009959Y012860D01*
X009959Y012860D01*
X009959Y013275D01*
X009778Y013275D01*
X009732Y013263D01*
X009691Y013239D01*
X009657Y013206D01*
X009634Y013165D01*
X009621Y013119D01*
X009644Y013182D02*
X009035Y013182D01*
X009063Y013341D02*
X009618Y013341D01*
X009541Y013499D02*
X009063Y013499D01*
X009063Y013658D02*
X009541Y013658D01*
X009541Y013817D02*
X009063Y013817D01*
X008764Y014134D02*
X008689Y014134D01*
X008689Y014292D02*
X008764Y014292D01*
X008764Y014451D02*
X008689Y014451D01*
X008689Y014609D02*
X008764Y014609D01*
X008788Y014768D02*
X008666Y014768D01*
X008090Y015402D02*
X009677Y015402D01*
X009677Y015243D02*
X009397Y015243D01*
X009677Y015561D02*
X007437Y015561D01*
X007392Y015402D02*
X007630Y015402D01*
X007563Y015243D02*
X007449Y015243D01*
X007449Y015085D02*
X007563Y015085D01*
X007563Y014926D02*
X007449Y014926D01*
X007449Y014768D02*
X007563Y014768D01*
X007502Y014134D02*
X005944Y014134D01*
X005617Y014134D02*
X005616Y014134D01*
X005616Y014053D02*
X005415Y014053D01*
X005370Y014066D01*
X005329Y014089D01*
X005295Y014123D01*
X005271Y014164D01*
X005259Y014209D01*
X005259Y014390D01*
X005616Y014390D01*
X005616Y014053D01*
X005616Y014292D02*
X005617Y014292D01*
X005259Y014292D02*
X005047Y014292D01*
X005030Y014451D02*
X005259Y014451D01*
X005269Y014609D02*
X005030Y014609D01*
X005069Y014768D02*
X005177Y014768D01*
X005161Y014926D02*
X005087Y014926D01*
X005087Y015085D02*
X005161Y015085D01*
X005161Y015243D02*
X005087Y015243D01*
X005059Y015402D02*
X005183Y015402D01*
X005201Y015561D02*
X005087Y015561D01*
X005087Y015719D02*
X005201Y015719D01*
X005201Y015878D02*
X005087Y015878D01*
X005087Y016036D02*
X005201Y016036D01*
X005107Y016195D02*
X005014Y016195D01*
X004519Y016670D02*
X004123Y016670D01*
X004182Y016512D02*
X004347Y016512D01*
X004182Y016379D02*
X003766Y016379D01*
X003766Y016379D01*
X004182Y016379D01*
X004182Y016353D02*
X004188Y016353D01*
X003766Y016353D02*
X003766Y016353D01*
X003766Y016195D02*
X003766Y016195D01*
X003766Y016512D02*
X003766Y016512D01*
X003766Y016670D02*
X003766Y016670D01*
X003433Y016829D02*
X003336Y016829D01*
X003336Y016987D02*
X003390Y016987D01*
X003390Y017146D02*
X003336Y017146D01*
X003336Y017305D02*
X003391Y017305D01*
X003426Y017463D02*
X003336Y017463D01*
X003336Y016670D02*
X003409Y016670D01*
X002936Y016670D02*
X002931Y016670D01*
X004221Y017622D02*
X005248Y017622D01*
X005240Y017780D02*
X004221Y017780D01*
X004221Y017939D02*
X005240Y017939D01*
X005240Y018097D02*
X004221Y018097D01*
X003840Y018414D02*
X005240Y018414D01*
X005240Y018256D02*
X003682Y018256D01*
X003999Y018573D02*
X005240Y018573D01*
X005240Y018890D02*
X004316Y018890D01*
X004474Y019049D02*
X005240Y019049D01*
X007231Y021497D02*
X007270Y021536D01*
X007979Y020729D02*
X008038Y020670D01*
X008040Y019049D02*
X008229Y019049D01*
X008229Y018890D02*
X008040Y018890D01*
X010683Y015728D02*
X010683Y015312D01*
X010683Y015312D01*
X010683Y015728D01*
X010683Y015719D02*
X010683Y015719D01*
X010683Y015561D02*
X010683Y015561D01*
X010683Y015402D02*
X010683Y015402D01*
X010684Y015312D02*
X010684Y015312D01*
X011373Y014134D02*
X011425Y014134D01*
X010346Y013341D02*
X010257Y013341D01*
X010274Y013182D02*
X010399Y013182D01*
X010370Y013024D02*
X010296Y013024D01*
X010296Y012865D02*
X010370Y012865D01*
X010370Y012707D02*
X010296Y012707D01*
X010281Y012548D02*
X010387Y012548D01*
X009959Y012548D02*
X009959Y012548D01*
X009959Y012707D02*
X009959Y012707D01*
X009958Y012859D02*
X009621Y012859D01*
X009958Y012859D01*
X009958Y012859D01*
X009959Y012865D02*
X009959Y012865D01*
X009959Y013024D02*
X009959Y013024D01*
X009959Y013182D02*
X009959Y013182D01*
X009621Y012865D02*
X008967Y012865D01*
X008967Y012707D02*
X009621Y012707D01*
X009637Y012548D02*
X008967Y012548D01*
X008967Y012390D02*
X011108Y012390D01*
X010948Y012548D02*
X011267Y012548D01*
X011203Y012707D02*
X011425Y012707D01*
X010743Y012231D02*
X008967Y012231D01*
X009122Y012073D02*
X010630Y012073D01*
X010613Y011914D02*
X009122Y011914D01*
X009122Y011756D02*
X010695Y011756D01*
X011264Y011121D02*
X011465Y011121D01*
X011465Y010963D02*
X010702Y010963D01*
X010866Y010804D02*
X011538Y010804D01*
X012332Y010487D02*
X013587Y010487D01*
X013623Y010329D02*
X012450Y010329D01*
X012462Y009694D02*
X012292Y009694D01*
X012292Y009536D02*
X012777Y009536D01*
X012708Y009377D02*
X012292Y009377D01*
X012292Y009219D02*
X012708Y009219D01*
X012718Y009060D02*
X012236Y009060D01*
X012155Y008902D02*
X012434Y008902D01*
X010310Y010487D02*
X009542Y010487D01*
X009544Y010497D02*
X009544Y010678D01*
X009129Y010678D01*
X009129Y010678D01*
X009544Y010678D01*
X009544Y010859D01*
X009532Y010905D01*
X009508Y010946D01*
X009475Y010980D01*
X009434Y011003D01*
X009388Y011016D01*
X009128Y011016D01*
X008868Y011016D01*
X008822Y011003D01*
X008781Y010980D01*
X008748Y010946D01*
X008724Y010905D01*
X008712Y010859D01*
X008712Y010678D01*
X008712Y010497D01*
X008724Y010451D01*
X008748Y010410D01*
X008781Y010377D01*
X008822Y010353D01*
X008868Y010341D01*
X009128Y010341D01*
X009128Y010678D01*
X008712Y010678D01*
X009128Y010678D01*
X009128Y010678D01*
X009128Y010678D01*
X009128Y010341D01*
X009388Y010341D01*
X009434Y010353D01*
X009475Y010377D01*
X009508Y010410D01*
X009532Y010451D01*
X009544Y010497D01*
X009544Y010646D02*
X010259Y010646D01*
X010288Y010804D02*
X009544Y010804D01*
X009492Y010963D02*
X010452Y010963D01*
X010234Y010329D02*
X009200Y010329D01*
X009128Y010487D02*
X009128Y010487D01*
X009128Y010646D02*
X009128Y010646D01*
X009128Y010679D02*
X009128Y011016D01*
X009128Y010679D01*
X009128Y010679D01*
X009128Y010804D02*
X009128Y010804D01*
X009128Y010963D02*
X009128Y010963D01*
X008802Y011121D02*
X008315Y011121D01*
X008315Y010963D02*
X008765Y010963D01*
X008712Y010804D02*
X008315Y010804D01*
X008356Y010646D02*
X008712Y010646D01*
X008715Y010487D02*
X008356Y010487D01*
X008518Y010329D02*
X008686Y010329D01*
X008677Y010326D02*
X008636Y010302D01*
X008602Y010269D01*
X008579Y010228D01*
X008566Y010182D01*
X008566Y009901D01*
X008924Y009901D01*
X008925Y009901D02*
X008925Y010338D01*
X008723Y010338D01*
X008677Y010326D01*
X008566Y010170D02*
X008532Y010170D01*
X008532Y010012D02*
X008566Y010012D01*
X008566Y009853D02*
X008462Y009853D01*
X008925Y009853D02*
X008962Y009853D01*
X008962Y009694D02*
X008925Y009694D01*
X008925Y009536D02*
X008962Y009536D01*
X009307Y009536D02*
X009368Y009536D01*
X009354Y009694D02*
X009320Y009694D01*
X009320Y009853D02*
X009354Y009853D01*
X009354Y010012D02*
X009320Y010012D01*
X009320Y010170D02*
X009354Y010170D01*
X008962Y010170D02*
X008925Y010170D01*
X008925Y010012D02*
X008962Y010012D01*
X008962Y010329D02*
X008925Y010329D01*
X010028Y010170D02*
X010201Y010170D01*
X010201Y010012D02*
X010028Y010012D01*
X010102Y009853D02*
X010212Y009853D01*
X008823Y008426D02*
X008559Y008426D01*
X008559Y008268D02*
X008823Y008268D01*
X008823Y008109D02*
X008615Y008109D01*
X008793Y007950D02*
X008823Y007950D01*
X008548Y007633D02*
X007764Y007633D01*
X007771Y007792D02*
X008045Y007792D01*
X007965Y007950D02*
X007851Y007950D01*
X007851Y008109D02*
X007965Y008109D01*
X007965Y008268D02*
X007851Y008268D01*
X007851Y008426D02*
X007965Y008426D01*
X007824Y007475D02*
X008452Y007475D01*
X008110Y007316D02*
X007798Y007316D01*
X007933Y007158D02*
X007651Y007158D01*
X006755Y006365D02*
X006576Y006365D01*
X006622Y006206D02*
X006755Y006206D01*
X006755Y006048D02*
X006622Y006048D01*
X006622Y005889D02*
X006755Y005889D01*
X005949Y006682D02*
X005927Y006682D01*
X005678Y006999D02*
X005587Y006999D01*
X005587Y007158D02*
X005837Y007158D01*
X006001Y007316D02*
X005582Y007316D01*
X004471Y006841D02*
X003784Y006841D01*
X003942Y006682D02*
X004441Y006682D01*
X004441Y006524D02*
X004101Y006524D01*
X004259Y006365D02*
X004495Y006365D01*
X004441Y006206D02*
X004418Y006206D01*
X003785Y005572D02*
X003589Y005572D01*
X003627Y005097D02*
X003748Y005097D01*
X004120Y004945D02*
X004120Y004608D01*
X004120Y004608D01*
X004120Y004607D02*
X004120Y004607D01*
X004120Y004608D02*
X004120Y004945D01*
X004120Y004938D02*
X004120Y004938D01*
X004120Y004780D02*
X004120Y004780D01*
X004120Y004621D02*
X004120Y004621D01*
X004661Y003670D02*
X004733Y003670D01*
X004717Y003511D02*
X004666Y003511D01*
X004666Y003353D02*
X004717Y003353D01*
X004717Y003194D02*
X004666Y003194D01*
X004666Y003036D02*
X005583Y003036D01*
X005583Y003194D02*
X005548Y003194D01*
X005548Y003353D02*
X005656Y003353D01*
X005554Y003511D02*
X005548Y003511D01*
X005531Y003670D02*
X005543Y003670D01*
X005132Y003635D02*
X005132Y003399D01*
X005583Y002877D02*
X004666Y002877D01*
X005998Y003025D02*
X006030Y003056D01*
X006923Y003056D01*
X007218Y003353D02*
X007426Y003353D01*
X007300Y003194D02*
X007584Y003194D01*
X007703Y003387D02*
X007349Y003741D01*
X007267Y003511D02*
X007262Y003511D01*
X007703Y003387D02*
X015301Y003387D01*
X015449Y003670D02*
X019767Y003670D01*
X019767Y003511D02*
X015594Y003511D01*
X015619Y003353D02*
X019767Y003353D01*
X019767Y003194D02*
X015559Y003194D01*
X017313Y005255D02*
X018397Y005255D01*
X018000Y005414D02*
X015636Y005414D01*
X015771Y005572D02*
X017803Y005572D01*
X017666Y005731D02*
X015831Y005731D01*
X015831Y005889D02*
X017575Y005889D01*
X017517Y006048D02*
X015779Y006048D01*
X016378Y006524D02*
X017469Y006524D01*
X017510Y006682D02*
X016378Y006682D01*
X016378Y006841D02*
X017559Y006841D01*
X017650Y006999D02*
X016378Y006999D01*
X016378Y007158D02*
X017775Y007158D01*
X018319Y007792D02*
X019767Y007792D01*
X019767Y007950D02*
X018283Y007950D01*
X018112Y008109D02*
X019767Y008109D01*
X019295Y009060D02*
X019126Y009060D01*
X019182Y009219D02*
X019255Y009219D01*
X019255Y009377D02*
X019182Y009377D01*
X019182Y009536D02*
X019255Y009536D01*
X019262Y009694D02*
X019182Y009694D01*
X018642Y009060D02*
X018574Y009060D01*
X019120Y010963D02*
X019120Y010963D01*
X019120Y011121D02*
X019120Y011121D01*
X019121Y011182D02*
X019121Y011182D01*
X019120Y011280D02*
X019120Y011280D01*
X019120Y011438D02*
X019120Y011438D01*
X018925Y013499D02*
X018851Y013499D01*
X018851Y013658D02*
X018925Y013658D01*
X018925Y013817D02*
X018851Y013817D01*
X018851Y013975D02*
X018925Y013975D01*
X018961Y014134D02*
X018792Y014134D01*
X018814Y014292D02*
X018961Y014292D01*
X018925Y014451D02*
X018851Y014451D01*
X018851Y014609D02*
X018925Y014609D01*
X018925Y014768D02*
X018851Y014768D01*
X018842Y014926D02*
X018934Y014926D01*
X018961Y015085D02*
X016810Y015085D01*
X016797Y014926D02*
X016651Y014926D01*
X016597Y014768D02*
X016549Y014768D01*
X016525Y014292D02*
X016824Y014292D01*
X018054Y014292D02*
X018135Y014292D01*
X018157Y014134D02*
X018071Y014134D01*
X018082Y014926D02*
X018108Y014926D01*
X018851Y015243D02*
X018925Y015243D01*
X018925Y015402D02*
X018851Y015402D01*
X018851Y015561D02*
X018925Y015561D01*
X018925Y015719D02*
X018851Y015719D01*
X018772Y015878D02*
X018961Y015878D01*
X018961Y016036D02*
X017017Y016036D01*
X017093Y016829D02*
X018961Y016829D01*
X018961Y016987D02*
X018213Y016987D01*
X018213Y017146D02*
X018961Y017146D01*
X018961Y017305D02*
X018213Y017305D01*
X018213Y017463D02*
X018961Y017463D01*
X018961Y017622D02*
X018167Y017622D01*
X018167Y017780D02*
X018961Y017780D01*
X018961Y017939D02*
X018331Y017939D01*
X018343Y018097D02*
X018961Y018097D01*
X018961Y018256D02*
X018343Y018256D01*
X018343Y018414D02*
X018961Y018414D01*
X018925Y018731D02*
X018382Y018731D01*
X018383Y018890D02*
X018766Y018890D01*
X018608Y019049D02*
X018383Y019049D01*
X017946Y018890D02*
X017909Y018890D01*
X017909Y018935D02*
X017472Y018935D01*
X017472Y018839D01*
X017395Y018916D01*
X017309Y018916D01*
X017276Y018995D01*
X017209Y019063D01*
X017176Y019095D01*
X017472Y019095D01*
X017472Y018972D01*
X017909Y018972D01*
X017909Y018935D01*
X017909Y018731D02*
X017946Y018731D01*
X017472Y018890D02*
X017421Y018890D01*
X017472Y019049D02*
X017223Y019049D01*
X016909Y017463D02*
X016587Y017463D01*
X016569Y017305D02*
X016909Y017305D01*
X016845Y017146D02*
X016627Y017146D01*
X016627Y016987D02*
X016686Y016987D01*
X015452Y017780D02*
X015167Y017780D01*
X014752Y016195D02*
X013662Y016195D01*
X013662Y016036D02*
X014708Y016036D01*
X014742Y015878D02*
X013662Y015878D01*
X012946Y011914D02*
X012650Y011914D01*
X014629Y011280D02*
X015451Y011280D01*
X018052Y015878D02*
X018177Y015878D01*
X018851Y016195D02*
X018925Y016195D01*
X018925Y016353D02*
X018851Y016353D01*
X018851Y016512D02*
X018925Y016512D01*
X018925Y016670D02*
X018851Y016670D01*
X007812Y012073D02*
X007666Y012073D01*
X007653Y012231D02*
X006846Y012231D01*
X006879Y012073D02*
X006913Y012073D01*
X006913Y011914D02*
X006834Y011914D01*
X006780Y011756D02*
X006913Y011756D01*
X006780Y011597D02*
X007069Y011597D01*
X007069Y011438D02*
X006779Y011438D01*
X007012Y011280D02*
X006234Y011280D01*
X005986Y010963D02*
X005756Y010963D01*
X005756Y010804D02*
X006028Y010804D01*
X005756Y010646D02*
X007070Y010646D01*
X007070Y010487D02*
X005756Y010487D01*
X005659Y010329D02*
X006296Y010329D01*
X006283Y010170D02*
X005635Y010170D01*
X005539Y010012D02*
X005477Y010012D01*
X005495Y009853D02*
X004479Y009853D01*
X004352Y009694D02*
X005531Y009694D01*
X006013Y009536D02*
X006955Y009536D01*
X007070Y009694D02*
X006096Y009694D01*
X006131Y009853D02*
X006336Y009853D01*
X006283Y010012D02*
X006088Y010012D01*
X006283Y010119D02*
X006699Y010119D01*
X006699Y009801D01*
X006699Y010119D01*
X006699Y010119D01*
X006699Y010119D01*
X006283Y010119D01*
X006699Y010119D02*
X006699Y010437D01*
X006699Y010119D01*
X006699Y010119D01*
X006699Y010170D02*
X006699Y010170D01*
X006699Y010012D02*
X006699Y010012D01*
X006699Y009853D02*
X006699Y009853D01*
X007062Y009853D02*
X007070Y009853D01*
X006797Y009377D02*
X006013Y009377D01*
X005944Y009219D02*
X006755Y009219D01*
X006699Y010329D02*
X006699Y010329D01*
X006780Y010804D02*
X007012Y010804D01*
X007012Y010963D02*
X006780Y010963D01*
X006780Y011121D02*
X007012Y011121D01*
X007666Y011756D02*
X007837Y011756D01*
X007817Y011914D02*
X007666Y011914D01*
X007494Y012390D02*
X006663Y012390D01*
X006459Y012390D02*
X006069Y012390D01*
X006171Y012231D02*
X006276Y012231D01*
X006243Y012073D02*
X006171Y012073D01*
X006326Y012548D02*
X005911Y012548D01*
X005299Y013817D02*
X005107Y013817D01*
X005107Y013975D02*
X006800Y013975D01*
X005289Y014134D02*
X005107Y014134D01*
X005825Y011121D02*
X005827Y011121D01*
X004093Y010012D02*
X003887Y010012D01*
X003887Y009853D02*
X003965Y009853D01*
X003920Y009694D02*
X003887Y009694D01*
X003887Y009536D02*
X003920Y009536D01*
X001538Y007475D02*
X001386Y007475D01*
X001418Y007316D02*
X001492Y007316D01*
X001492Y007158D02*
X001418Y007158D01*
X001418Y006999D02*
X001492Y006999D01*
X001508Y006524D02*
X001363Y006524D01*
X001378Y006365D02*
X001492Y006365D01*
X001492Y006206D02*
X001378Y006206D01*
X001378Y006048D02*
X001492Y006048D01*
X001522Y005889D02*
X001371Y005889D01*
X000811Y005414D02*
X000442Y005414D01*
X000442Y005572D02*
X000791Y005572D01*
X000791Y005731D02*
X000442Y005731D01*
X000442Y005889D02*
X000791Y005889D01*
X000616Y006048D02*
X000442Y006048D01*
X000442Y006206D02*
X000457Y006206D01*
X000442Y005255D02*
X000927Y005255D01*
X001063Y005097D02*
X000442Y005097D01*
X005402Y004780D02*
X005957Y004780D01*
X005928Y004621D02*
X005402Y004621D01*
X005402Y004463D02*
X005981Y004463D01*
X006536Y004780D02*
X006648Y004780D01*
X006017Y003670D02*
X005980Y003670D01*
X005980Y003511D02*
X006017Y003511D01*
X006341Y003353D02*
X006628Y003353D01*
X007300Y003036D02*
X019767Y003036D01*
X019767Y002877D02*
X007300Y002877D01*
X001372Y015237D02*
X001412Y015277D01*
X001545Y017939D02*
X001637Y017939D01*
X001480Y018097D02*
X001387Y018097D01*
X001321Y018256D02*
X001228Y018256D01*
X001163Y018414D02*
X001070Y018414D01*
X001106Y018573D02*
X000996Y018573D01*
X000996Y018731D02*
X001100Y018731D01*
X001100Y018890D02*
X000996Y018890D01*
X000996Y019049D02*
X001341Y019049D01*
X001467Y019049D02*
X001736Y019049D01*
X001736Y018890D02*
X001707Y018890D01*
X001707Y018731D02*
X001759Y018731D01*
X001423Y018741D02*
X001404Y018761D01*
X002152Y018731D02*
X002152Y018731D01*
X002152Y018890D02*
X002152Y018890D01*
X002742Y019647D02*
X002703Y019686D01*
X002742Y019647D02*
X002939Y019647D01*
X002939Y018890D02*
X002939Y018890D01*
X002939Y018731D02*
X002939Y018731D01*
D37*
X002585Y018387D03*
X001955Y017875D03*
X002624Y016261D03*
X003136Y016340D03*
X002034Y015237D03*
X003530Y013977D03*
X004357Y014686D03*
X004357Y015158D03*
X006601Y012717D03*
X006561Y012088D03*
X006876Y013662D03*
X008215Y016103D03*
X008569Y016418D03*
X008923Y016733D03*
X009317Y017048D03*
X010262Y016733D03*
X010971Y016025D03*
X009120Y015080D03*
X009278Y012639D03*
X009908Y011891D03*
X010341Y012206D03*
X010931Y011969D03*
X010577Y010670D03*
X012506Y009332D03*
X011916Y008032D03*
X010380Y007206D03*
X010223Y005906D03*
X011561Y004056D03*
X012388Y004056D03*
X012782Y004568D03*
X013057Y004056D03*
X013451Y004568D03*
X015301Y003387D03*
X016955Y003347D03*
X017467Y003347D03*
X017979Y003347D03*
X017742Y003820D03*
X017231Y003820D03*
X017191Y004962D03*
X018333Y003820D03*
X018530Y003347D03*
X017979Y007796D03*
X017860Y008426D03*
X018294Y008780D03*
X018687Y008426D03*
X016443Y008741D03*
X015813Y010434D03*
X014829Y011025D03*
X014435Y011536D03*
X014081Y011025D03*
X013766Y011497D03*
X013884Y012088D03*
X012900Y012206D03*
X012900Y012717D03*
X012900Y013190D03*
X012900Y013702D03*
X012900Y014568D03*
X012900Y015119D03*
X012900Y015710D03*
X014514Y017481D03*
X014908Y017127D03*
X015026Y016025D03*
X014081Y017954D03*
X013372Y018938D03*
X012231Y020001D03*
X011128Y021654D03*
X010656Y021654D03*
X010223Y021418D03*
X009868Y021064D03*
X009435Y019647D03*
X005065Y018229D03*
X005065Y017757D03*
X004514Y017757D03*
X003963Y012442D03*
X004475Y012166D03*
X005813Y009843D03*
X007427Y009135D03*
X007860Y009568D03*
X008412Y008820D03*
X007506Y007442D03*
X006483Y008032D03*
X005931Y008032D03*
X004042Y008229D03*
X004002Y007639D03*
X004120Y009253D03*
X002979Y009804D03*
X002191Y005749D03*
X002191Y005237D03*
X002703Y005670D03*
X002979Y003977D03*
X004238Y004017D03*
X006246Y004647D03*
X007467Y004686D03*
X013923Y010434D03*
X014199Y009017D03*
X014553Y008426D03*
X014986Y012560D03*
X014986Y013111D03*
X018845Y013190D03*
X018845Y012599D03*
X018609Y017284D03*
X018609Y018032D03*
X016089Y020316D03*
X016246Y021103D03*
X015577Y018584D03*
X015065Y018584D03*
X000695Y005080D03*
X000695Y004529D03*
X000734Y003032D03*
D38*
X002979Y003702D02*
X002979Y003977D01*
X002979Y003702D02*
X003109Y003572D01*
X003109Y003253D01*
X004211Y003253D02*
X004211Y003989D01*
X004238Y004017D01*
X000931Y008347D02*
X000931Y013702D01*
X001168Y013977D01*
X003530Y013977D01*
X002782Y013151D02*
X002624Y012914D01*
X002624Y012765D01*
X002309Y012450D01*
X002782Y013151D02*
X007191Y013151D01*
X007742Y013623D01*
X007742Y014095D01*
X008057Y014410D01*
X007270Y014410D01*
X007152Y014529D01*
X007152Y015040D01*
X007152Y015867D01*
X006443Y015867D02*
X006404Y015828D01*
X005498Y015828D01*
X005498Y016143D01*
X005183Y016458D01*
X004632Y016458D01*
X004317Y016143D01*
X004317Y015749D01*
X003845Y015277D01*
X003207Y015277D01*
X002034Y015237D02*
X001372Y015237D01*
X004790Y015080D02*
X004790Y014017D01*
X004790Y015080D02*
X004790Y015828D01*
X006601Y012717D02*
X007506Y012717D01*
X008057Y012166D01*
X008057Y011851D01*
X008522Y011387D01*
X009128Y011387D01*
X008746Y011930D02*
X008727Y012186D01*
X008727Y013544D01*
X009101Y014410D02*
X009101Y015060D01*
X009120Y015080D01*
X009081Y015040D01*
X007860Y015040D01*
X008057Y014410D02*
X008353Y014410D01*
X007290Y011930D02*
X007309Y011910D01*
X007309Y011064D01*
X006404Y011851D02*
X006561Y012088D01*
X006404Y011851D02*
X006404Y011654D01*
X004750Y011477D02*
X004750Y010749D01*
X004750Y011477D02*
X004731Y011497D01*
X011152Y017851D02*
X011179Y017824D01*
X011179Y018568D01*
X011179Y019371D01*
X016089Y020316D02*
X016612Y019792D01*
X016612Y019489D01*
X016612Y019320D01*
X017073Y018859D01*
X017073Y018591D01*
X017061Y018580D01*
X017927Y018206D02*
X017927Y017237D01*
X017916Y017225D01*
X014231Y005820D02*
X014238Y005812D01*
X014238Y004922D01*
X015105Y004056D01*
X016286Y004056D01*
X017191Y004962D01*
D39*
X012996Y011554D02*
X012057Y011554D01*
X011303Y011554D01*
X011128Y011379D01*
X009136Y011379D01*
X009128Y011387D01*
X012996Y011554D02*
X013372Y011930D01*
X013372Y018938D01*
X013400Y018926D01*
X013400Y019462D01*
X011640Y020552D02*
X011561Y020473D01*
X011128Y020473D01*
X010471Y019934D01*
X010471Y019371D01*
X015105Y021615D02*
X015144Y021576D01*
X015616Y021576D01*
X016246Y021615D02*
X016246Y021103D01*
X002546Y015552D02*
X002546Y014765D01*
X002112Y014371D01*
X000931Y014371D01*
X000538Y013938D01*
X000577Y007757D01*
X000577Y006497D01*
X000860Y006214D01*
X001081Y006214D01*
X001081Y005521D01*
X001325Y005237D01*
X002191Y005237D01*
X002546Y015552D02*
X001955Y016143D01*
X001955Y017875D01*
X001955Y018032D01*
X001404Y018584D01*
X001404Y018761D01*
M02*
