G75*
G70*
%OFA0B0*%
%FSLAX24Y24*%
%IPPOS*%
%LPD*%
%AMOC8*
5,1,8,0,0,1.08239X$1,22.5*
%
%ADD10C,0.0050*%
%ADD11C,0.0100*%
%ADD12C,0.0080*%
%ADD13C,0.0060*%
%ADD14C,0.0030*%
D10*
X000892Y011497D02*
X006010Y011497D01*
X006010Y022127D01*
X000892Y022127D01*
X000892Y011497D01*
X005527Y019765D02*
X005529Y019788D01*
X005535Y019810D01*
X005544Y019831D01*
X005556Y019850D01*
X005572Y019867D01*
X005590Y019881D01*
X005610Y019892D01*
X005632Y019900D01*
X005655Y019904D01*
X005677Y019904D01*
X005700Y019900D01*
X005722Y019892D01*
X005742Y019881D01*
X005760Y019867D01*
X005776Y019850D01*
X005788Y019831D01*
X005797Y019810D01*
X005803Y019788D01*
X005805Y019765D01*
X005803Y019742D01*
X005797Y019720D01*
X005788Y019699D01*
X005776Y019680D01*
X005760Y019663D01*
X005742Y019649D01*
X005722Y019638D01*
X005700Y019630D01*
X005677Y019626D01*
X005655Y019626D01*
X005632Y019630D01*
X005610Y019638D01*
X005590Y019649D01*
X005572Y019663D01*
X005556Y019680D01*
X005544Y019699D01*
X005535Y019720D01*
X005529Y019742D01*
X005527Y019765D01*
D11*
X005518Y020503D02*
X005518Y021832D01*
X005961Y021832D01*
X004780Y021832D02*
X004780Y020503D01*
X005518Y020503D01*
X004780Y021832D02*
X004042Y021832D01*
X004042Y020503D01*
X003303Y020503D01*
X003303Y021832D01*
X002565Y021832D01*
X002565Y020503D01*
X001827Y020503D01*
X001827Y021832D01*
X001089Y021832D01*
X001089Y020060D01*
D12*
X003844Y015595D02*
X003741Y015492D01*
X003741Y015285D01*
X003844Y015182D01*
X003844Y014951D02*
X003741Y014847D01*
X003741Y014640D01*
X003844Y014537D01*
X004362Y014537D01*
X004362Y014951D02*
X003844Y014951D01*
X004258Y015182D02*
X004362Y015285D01*
X004362Y015492D01*
X004258Y015595D01*
X004155Y015595D01*
X004051Y015492D01*
X003948Y015595D01*
X003844Y015595D01*
X004051Y015492D02*
X004051Y015388D01*
D13*
X006601Y020788D02*
X006601Y021025D01*
X007073Y021025D02*
X007073Y020788D01*
X007427Y020788D02*
X007427Y021025D01*
X007900Y021025D02*
X007900Y020788D01*
X008136Y020788D02*
X008136Y021025D01*
X008609Y021025D02*
X008609Y020788D01*
D14*
X008033Y020670D02*
X007847Y020485D01*
X007847Y020732D01*
X007909Y020853D02*
X008033Y020977D01*
X007662Y020977D01*
X007662Y021100D02*
X007662Y020853D01*
X007662Y020670D02*
X008033Y020670D01*
X007971Y020363D02*
X007847Y020363D01*
X007786Y020302D01*
X007786Y020117D01*
X007786Y020240D02*
X007662Y020363D01*
X007662Y020117D02*
X008033Y020117D01*
X008033Y020302D01*
X007971Y020363D01*
X007324Y020302D02*
X007324Y020117D01*
X006954Y020117D01*
X007077Y020117D02*
X007077Y020302D01*
X007139Y020363D01*
X007262Y020363D01*
X007324Y020302D01*
X007077Y020240D02*
X006954Y020363D01*
X007139Y020485D02*
X007139Y020732D01*
X007262Y020853D02*
X007015Y020853D01*
X007262Y021100D01*
X007015Y021100D01*
X006954Y021038D01*
X006954Y020915D01*
X007015Y020853D01*
X006954Y020670D02*
X007324Y020670D01*
X007139Y020485D01*
X007262Y020853D02*
X007324Y020915D01*
X007324Y021038D01*
X007262Y021100D01*
X006497Y021038D02*
X006497Y020915D01*
X006435Y020853D01*
X006374Y020853D01*
X006312Y020915D01*
X006312Y021100D01*
X006435Y021100D02*
X006497Y021038D01*
X006435Y021100D02*
X006189Y021100D01*
X006127Y021038D01*
X006127Y020915D01*
X006189Y020853D01*
X006189Y020732D02*
X006127Y020670D01*
X006127Y020547D01*
X006189Y020485D01*
X006127Y020363D02*
X006250Y020240D01*
X006250Y020302D02*
X006250Y020117D01*
X006127Y020117D02*
X006497Y020117D01*
X006497Y020302D01*
X006435Y020363D01*
X006312Y020363D01*
X006250Y020302D01*
X006435Y020485D02*
X006497Y020547D01*
X006497Y020670D01*
X006435Y020732D01*
X006374Y020732D01*
X006312Y020670D01*
X006250Y020732D01*
X006189Y020732D01*
X006312Y020670D02*
X006312Y020608D01*
M02*
