%
M48
M72
T01C0.0236
T02C0.0400
T03C0.1300
%
T01
X734Y3032
X695Y4529
X695Y5080
X2191Y5237
X2191Y5749
X2703Y5670
X2979Y3977
X4238Y4017
X6246Y4647
X7467Y4686
X7506Y7442
X6483Y8032
X5931Y8032
X7427Y9135
X7860Y9568
X8412Y8820
X10380Y7206
X10223Y5906
X11561Y4056
X12388Y4056
X12782Y4568
X13057Y4056
X13451Y4568
X15301Y3387
X16955Y3347
X17467Y3347
X17979Y3347
X17742Y3820
X17231Y3820
X17191Y4962
X18333Y3820
X18530Y3347
X17979Y7796
X17860Y8426
X18294Y8780
X18687Y8426
X16443Y8741
X15813Y10434
X14829Y11025
X14435Y11536
X14081Y11025
X13766Y11497
X13884Y12088
X12900Y12206
X12900Y12717
X12900Y13190
X12900Y13702
X12900Y14568
X12900Y15119
X12900Y15710
X14514Y17481
X14908Y17127
X15026Y16025
X14081Y17954
X13372Y18938
X12231Y20001
X11128Y21654
X10656Y21654
X10223Y21418
X9868Y21064
X9435Y19647
X9317Y17048
X8923Y16733
X8569Y16418
X8215Y16103
X9120Y15080
X10262Y16733
X10971Y16025
X9278Y12639
X9908Y11891
X10341Y12206
X10931Y11969
X10577Y10670
X12506Y9332
X11916Y8032
X14199Y9017
X14553Y8426
X13923Y10434
X14986Y12560
X14986Y13111
X18845Y13190
X18845Y12599
X18609Y17284
X18609Y18032
X16089Y20316
X16246Y21103
X15577Y18584
X15065Y18584
X6876Y13662
X6601Y12717
X6561Y12088
X4475Y12166
X3963Y12442
X3530Y13977
X4357Y14686
X4357Y15158
X3136Y16340
X2624Y16261
X2034Y15237
X1955Y17875
X2585Y18387
X4514Y17757
X5065Y17757
X5065Y18229
X5813Y9843
X4120Y9253
X4042Y8229
X4002Y7639
X2979Y9804
T02
X11506Y6938
X12597Y6938
X13687Y6938
X13144Y5820
X14231Y5820
X14778Y6938
X15868Y6938
X15321Y5820
X12053Y5820
T03
X8766Y6379
X1640Y3938
X18609Y6379
X18727Y20946
M30
