G75*
G70*
%OFA0B0*%
%FSLAX24Y24*%
%IPPOS*%
%LPD*%
%AMOC8*
5,1,8,0,0,1.08239X$1,22.5*
%
%ADD10R,0.0640X0.0360*%
%ADD11R,0.0540X0.0360*%
%ADD12R,0.0360X0.0440*%
%ADD13R,0.0360X0.0540*%
%ADD14R,0.0512X0.0355*%
%ADD15C,0.1340*%
%ADD16R,0.0780X0.0780*%
%ADD17C,0.0780*%
%ADD18C,0.2040*%
D10*
X000951Y012697D03*
X000951Y013297D03*
X000951Y013897D03*
X000951Y014497D03*
X000951Y015097D03*
X000951Y015697D03*
X000951Y016297D03*
X000951Y016897D03*
X000951Y017497D03*
X000951Y018097D03*
X000951Y018697D03*
X000951Y019297D03*
X005951Y019297D03*
X005951Y018697D03*
X005951Y018097D03*
X005951Y017497D03*
X005951Y016897D03*
X005951Y016297D03*
X005951Y015697D03*
X005951Y015097D03*
X005951Y014497D03*
X005951Y013897D03*
X005951Y013297D03*
X005951Y012697D03*
D11*
X006001Y012097D03*
X000901Y012097D03*
D12*
X001351Y011447D03*
X005551Y011447D03*
D13*
X004951Y011497D03*
X004351Y011497D03*
X003751Y011497D03*
X003151Y011497D03*
X002551Y011497D03*
X001951Y011497D03*
D14*
X006837Y020552D03*
X006837Y021261D03*
X007664Y021261D03*
X008372Y021261D03*
X008372Y020552D03*
X007664Y020552D03*
D15*
X001640Y003938D03*
X018727Y020946D03*
D16*
X015868Y006938D03*
D17*
X014778Y006938D03*
X015321Y005820D03*
X014231Y005820D03*
X013144Y005820D03*
X013687Y006938D03*
X012597Y006938D03*
X011506Y006938D03*
X012053Y005820D03*
D18*
X008766Y006379D03*
X018609Y006379D03*
M02*
