%
M48
M72
T01C0.0236
T02C0.0400
T03C0.1300
%
T01
X4238Y4017
X2703Y5670
X2191Y5749
X2191Y5237
X656Y5080
X616Y5670
X577Y7245
X2979Y9804
X4120Y9253
X4042Y8229
X4002Y7639
X5813Y9843
X5931Y8032
X6483Y8032
X7506Y7442
X8766Y8899
X7860Y9568
X6561Y12088
X6601Y12717
X6876Y13662
X9120Y15080
X8175Y16103
X7860Y16536
X8490Y16536
X9435Y17166
X10262Y16733
X10971Y16103
X12900Y15710
X12900Y15119
X12900Y14450
X12900Y13426
X12900Y12836
X12900Y12324
X12900Y11851
X13884Y11851
X13845Y11261
X14435Y11340
X13805Y10395
X14199Y9017
X14553Y8426
X16522Y9332
X17939Y8505
X18648Y8505
X17979Y7796
X18963Y10001
X18333Y12717
X18805Y13032
X18333Y13308
X16837Y13387
X14986Y13111
X14986Y12363
X12506Y9332
X11916Y8032
X10380Y7206
X10223Y5906
X11561Y4056
X12388Y4056
X12782Y4568
X13057Y4056
X13451Y4568
X15301Y3387
X16955Y3347
X17467Y3347
X17979Y3347
X17742Y3820
X17231Y3820
X17191Y4962
X18333Y3820
X18530Y3347
X10931Y11969
X10341Y12206
X9908Y11891
X9278Y12639
X10577Y10670
X15026Y15906
X14908Y17127
X16601Y18308
X17309Y18308
X18372Y18820
X18687Y18466
X16246Y21103
X16089Y20316
X14671Y20237
X13372Y19135
X11601Y21654
X11128Y21654
X10656Y21654
X9435Y19647
X8372Y21891
X7664Y21891
X6837Y21891
X5065Y18229
X5065Y17757
X4514Y17757
X3294Y18347
X1955Y17875
X2624Y16261
X3136Y16340
X2034Y15237
X3530Y13977
X4357Y14686
X4357Y15158
X4081Y12442
X6246Y4647
X7467Y4686
T02
X11506Y6938
X12597Y6938
X13687Y6938
X13144Y5820
X14231Y5820
X14778Y6938
X15868Y6938
X15321Y5820
X12053Y5820
T03
X1640Y3938
X8766Y6379
X18609Y6379
X18727Y20946
M30
