G75*
G70*
%OFA0B0*%
%FSLAX24Y24*%
%IPPOS*%
%LPD*%
%AMOC8*
5,1,8,0,0,1.08239X$1,22.5*
%
%ADD10C,0.0080*%
%ADD11C,0.0060*%
%ADD12R,0.0079X0.0079*%
%ADD13R,0.0340X0.0300*%
%ADD14C,0.0050*%
%ADD15R,0.0300X0.0340*%
D10*
X007624Y005379D02*
X007624Y007481D01*
X019750Y007481D01*
X019750Y005379D01*
X015326Y010534D02*
X015326Y018074D01*
X014326Y018074D01*
X014324Y018040D01*
X014318Y018007D01*
X014309Y017975D01*
X014296Y017944D01*
X014280Y017914D01*
X014261Y017887D01*
X014238Y017862D01*
X014213Y017839D01*
X014186Y017820D01*
X014156Y017804D01*
X014125Y017791D01*
X014093Y017782D01*
X014060Y017776D01*
X014026Y017774D01*
X013992Y017776D01*
X013959Y017782D01*
X013927Y017791D01*
X013896Y017804D01*
X013866Y017820D01*
X013839Y017839D01*
X013814Y017862D01*
X013791Y017887D01*
X013772Y017914D01*
X013756Y017944D01*
X013743Y017975D01*
X013734Y018007D01*
X013728Y018040D01*
X013726Y018074D01*
X012726Y018074D01*
X012726Y010534D01*
X015326Y010534D01*
X013906Y009703D02*
X013908Y009718D01*
X013914Y009731D01*
X013923Y009743D01*
X013934Y009752D01*
X013948Y009758D01*
X013963Y009760D01*
X013978Y009758D01*
X013991Y009752D01*
X014003Y009743D01*
X014012Y009732D01*
X014018Y009718D01*
X014020Y009703D01*
X014018Y009688D01*
X014012Y009675D01*
X014003Y009663D01*
X013992Y009654D01*
X013978Y009648D01*
X013963Y009646D01*
X013948Y009648D01*
X013935Y009654D01*
X013923Y009663D01*
X013914Y009674D01*
X013908Y009688D01*
X013906Y009703D01*
X010357Y013454D02*
X010120Y013454D01*
X009609Y014202D02*
X009609Y014674D01*
X010120Y015422D02*
X010357Y015422D01*
X010868Y014674D02*
X010868Y014202D01*
X007166Y017451D02*
X004806Y017451D01*
X004806Y020031D01*
X007166Y020031D01*
X002939Y017560D02*
X002939Y016615D01*
X002349Y016615D01*
X001561Y016615D02*
X001128Y016615D01*
X000971Y016773D01*
X000971Y017403D01*
X001128Y017560D01*
X001561Y017560D01*
X002349Y017560D02*
X002939Y017560D01*
X001660Y018859D02*
X001660Y019410D01*
X001148Y019410D01*
X001148Y018859D01*
X001148Y019410D02*
X001148Y019568D01*
X001660Y019568D02*
X001660Y019410D01*
X004947Y014568D02*
X005262Y014568D01*
X004947Y014568D02*
X004947Y014332D01*
X004947Y013702D02*
X004947Y013466D01*
X005262Y013466D01*
X003599Y014237D02*
X003599Y011877D01*
X003599Y014237D02*
X001019Y014237D01*
X001019Y011877D01*
X013912Y020661D02*
X014250Y020661D01*
X014400Y021116D02*
X014400Y021327D01*
X014250Y021781D02*
X013912Y021781D01*
D11*
X003018Y005080D02*
X003018Y004843D01*
X003490Y004843D02*
X003490Y005080D01*
X003884Y005080D02*
X003884Y004843D01*
X004357Y004843D02*
X004357Y005080D01*
X004790Y005080D02*
X004790Y004843D01*
X005262Y004843D02*
X005262Y005080D01*
X006010Y005631D02*
X006010Y005867D01*
X006483Y005867D02*
X006483Y005631D01*
X006483Y006733D02*
X006719Y006733D01*
X006719Y007206D02*
X006483Y007206D01*
X007750Y007733D02*
X007986Y007733D01*
X007986Y008206D02*
X007750Y008206D01*
X007758Y008591D02*
X007994Y008591D01*
X007994Y009064D02*
X007758Y009064D01*
X009357Y008426D02*
X009593Y008426D01*
X009593Y007954D02*
X009357Y007954D01*
X010341Y009607D02*
X010341Y009843D01*
X010813Y009843D02*
X010813Y009607D01*
X011522Y009647D02*
X011758Y009647D01*
X011817Y009938D02*
X011581Y009938D01*
X011581Y010410D02*
X011817Y010410D01*
X011758Y009174D02*
X011522Y009174D01*
X013643Y009923D02*
X015062Y009923D01*
X015062Y008063D02*
X013643Y008063D01*
X017860Y009174D02*
X018097Y009174D01*
X018097Y009647D02*
X017860Y009647D01*
X017860Y010001D02*
X018097Y010001D01*
X018097Y010473D02*
X017860Y010473D01*
X017860Y010867D02*
X018097Y010867D01*
X018097Y011340D02*
X017860Y011340D01*
X018825Y011733D02*
X019061Y011733D01*
X019061Y012206D02*
X018825Y012206D01*
X018884Y010946D02*
X018884Y010710D01*
X019357Y010710D02*
X019357Y010946D01*
X019357Y009647D02*
X019120Y009647D01*
X019120Y009174D02*
X019357Y009174D01*
X017479Y012584D02*
X017242Y012584D01*
X017242Y013056D02*
X017479Y013056D01*
X017557Y013741D02*
X017321Y013741D01*
X017321Y014214D02*
X017557Y014214D01*
X017557Y014584D02*
X017321Y014584D01*
X017321Y015056D02*
X017557Y015056D01*
X017557Y015347D02*
X017321Y015347D01*
X017321Y015820D02*
X017557Y015820D01*
X017557Y016072D02*
X017321Y016072D01*
X017321Y016544D02*
X017557Y016544D01*
X015675Y019229D02*
X015675Y019466D01*
X015203Y019466D02*
X015203Y019229D01*
X014305Y018847D02*
X014069Y018847D01*
X014069Y018375D02*
X014305Y018375D01*
X013872Y019619D02*
X013636Y019619D01*
X013636Y020091D02*
X013872Y020091D01*
X012636Y019599D02*
X012636Y019363D01*
X012164Y019363D02*
X012164Y019599D01*
X010943Y019607D02*
X010707Y019607D01*
X010707Y019135D02*
X010943Y019135D01*
X010943Y018804D02*
X010707Y018804D01*
X010707Y018332D02*
X010943Y018332D01*
X010916Y018088D02*
X010679Y018088D01*
X010679Y017615D02*
X010916Y017615D01*
X009947Y018072D02*
X009947Y018308D01*
X009475Y018308D02*
X009475Y018072D01*
X009526Y016343D02*
X009290Y016343D01*
X009290Y015871D02*
X009526Y015871D01*
X007624Y015277D02*
X007388Y015277D01*
X007388Y014804D02*
X007624Y014804D01*
X006916Y015631D02*
X006679Y015631D01*
X006679Y016103D02*
X006916Y016103D01*
X005262Y016064D02*
X005026Y016064D01*
X005026Y015591D02*
X005262Y015591D01*
X005262Y015316D02*
X005026Y015316D01*
X005026Y014843D02*
X005262Y014843D01*
X004002Y016615D02*
X004002Y016851D01*
X003530Y016851D02*
X003530Y016615D01*
X003175Y019174D02*
X003175Y019410D01*
X002703Y019410D02*
X002703Y019174D01*
X002388Y019214D02*
X002388Y019450D01*
X001916Y019450D02*
X001916Y019214D01*
X006168Y011418D02*
X006168Y011182D01*
X006640Y011182D02*
X006640Y011418D01*
X007546Y011300D02*
X007782Y011300D01*
X007782Y010828D02*
X007546Y010828D01*
X008892Y010914D02*
X008892Y011151D01*
X009364Y011151D02*
X009364Y010914D01*
X010195Y012623D02*
X010431Y012623D01*
X010431Y013095D02*
X010195Y013095D01*
X005223Y010985D02*
X004986Y010985D01*
X004986Y010513D02*
X005223Y010513D01*
X003451Y010631D02*
X003215Y010631D01*
X003215Y010158D02*
X003451Y010158D01*
X002270Y010198D02*
X002270Y009962D01*
X001797Y009962D02*
X001797Y010198D01*
X001790Y008859D02*
X001553Y008859D01*
X001553Y008387D02*
X001790Y008387D01*
X001553Y007371D02*
X001317Y007371D01*
X001317Y006899D02*
X001553Y006899D01*
X001553Y006450D02*
X001317Y006450D01*
X001317Y005977D02*
X001553Y005977D01*
X011404Y021182D02*
X011404Y021418D01*
X011876Y021418D02*
X011876Y021182D01*
X015380Y021103D02*
X015380Y021340D01*
X015853Y021340D02*
X015853Y021103D01*
D12*
X018849Y016308D03*
X018849Y015584D03*
X018849Y014820D03*
X018849Y013977D03*
X008372Y020867D03*
X007664Y020867D03*
X006837Y020867D03*
D13*
X002309Y014427D03*
D14*
X001805Y016688D02*
X001805Y017488D01*
X007318Y012230D02*
X007318Y011630D01*
X008718Y011630D01*
X008718Y012230D01*
X007318Y012230D01*
X006727Y010419D02*
X006727Y009819D01*
X008127Y009819D01*
X008127Y010419D01*
X006727Y010419D01*
X010507Y008844D02*
X010507Y008244D01*
X011907Y008244D01*
X011907Y008844D01*
X010507Y008844D01*
D15*
X004616Y018741D03*
M02*
