G75*
G70*
%OFA0B0*%
%FSLAX24Y24*%
%IPPOS*%
%LPD*%
%AMOC8*
5,1,8,0,0,1.08239X$1,22.5*
%
%ADD10R,0.0984X0.0276*%
%ADD11R,0.0472X0.0315*%
%ADD12R,0.0315X0.0472*%
%ADD13R,0.0472X0.0472*%
%ADD14R,0.0433X0.0748*%
%ADD15R,0.0551X0.0394*%
%ADD16R,0.0870X0.0240*%
%ADD17R,0.0866X0.0236*%
%ADD18R,0.0630X0.0709*%
%ADD19R,0.0630X0.1181*%
%ADD20R,0.2283X0.2441*%
%ADD21R,0.0394X0.0551*%
%ADD22R,0.0472X0.0276*%
%ADD23R,0.0354X0.0315*%
%ADD24R,0.2441X0.2126*%
%ADD25R,0.0630X0.0394*%
%ADD26R,0.0327X0.0248*%
%ADD27R,0.0551X0.0630*%
%ADD28R,0.0472X0.0217*%
D10*
X012057Y010798D03*
X012057Y011338D03*
X012057Y011877D03*
X012057Y012416D03*
X012057Y012956D03*
X012057Y013495D03*
X012057Y014034D03*
X012057Y014574D03*
X012057Y015113D03*
X012057Y015653D03*
X012057Y016192D03*
X012057Y016731D03*
X012057Y017271D03*
X012057Y017810D03*
X015994Y017810D03*
X015994Y017271D03*
X015994Y016731D03*
X015994Y016192D03*
X015994Y015653D03*
X015994Y015113D03*
X015994Y014574D03*
X015994Y014034D03*
X015994Y013495D03*
X015994Y012956D03*
X015994Y012416D03*
X015994Y011877D03*
X015994Y011338D03*
X015994Y010798D03*
D11*
X019120Y010473D03*
X019120Y011182D03*
X015439Y018993D03*
X015439Y019702D03*
X015616Y020867D03*
X015616Y021576D03*
X012400Y019836D03*
X012400Y019127D03*
X011640Y020946D03*
X011640Y021654D03*
X009711Y018544D03*
X009711Y017836D03*
X006404Y011654D03*
X006404Y010946D03*
X009128Y010678D03*
X009128Y011387D03*
X010577Y010080D03*
X010577Y009371D03*
X006246Y006103D03*
X006246Y005395D03*
X005026Y005316D03*
X005026Y004607D03*
X004120Y004607D03*
X004120Y005316D03*
X003254Y005316D03*
X003254Y004607D03*
X002034Y009725D03*
X002034Y010434D03*
X003766Y016379D03*
X003766Y017088D03*
X002939Y018938D03*
X002939Y019647D03*
X002152Y019686D03*
X002152Y018977D03*
D12*
X004790Y015828D03*
X004790Y015080D03*
X005498Y015080D03*
X005498Y015828D03*
X006443Y015867D03*
X007152Y015867D03*
X007152Y015040D03*
X007860Y015040D03*
X009053Y016107D03*
X009762Y016107D03*
X010443Y017851D03*
X010471Y018568D03*
X011179Y018568D03*
X011152Y017851D03*
X011179Y019371D03*
X010471Y019371D03*
X013400Y019855D03*
X014109Y019855D03*
X013833Y018611D03*
X014542Y018611D03*
X017085Y016308D03*
X017085Y015584D03*
X017085Y014820D03*
X017794Y014820D03*
X017794Y015584D03*
X017794Y016308D03*
X017794Y013977D03*
X017085Y013977D03*
X017006Y012820D03*
X017715Y012820D03*
X018589Y011969D03*
X019297Y011969D03*
X018333Y011103D03*
X017624Y011103D03*
X017624Y010237D03*
X017624Y009410D03*
X018333Y009410D03*
X018884Y009410D03*
X018333Y010237D03*
X019593Y009410D03*
X012053Y010174D03*
X011345Y010174D03*
X011286Y009410D03*
X011994Y009410D03*
X009829Y008190D03*
X009120Y008190D03*
X008223Y007969D03*
X007514Y007969D03*
X007522Y008828D03*
X008231Y008828D03*
X006955Y006969D03*
X006246Y006969D03*
X003687Y010395D03*
X002979Y010395D03*
X002026Y008623D03*
X001317Y008623D03*
X001081Y007135D03*
X001790Y007135D03*
X001790Y006214D03*
X001081Y006214D03*
X004750Y010749D03*
X005459Y010749D03*
X007309Y011064D03*
X008018Y011064D03*
X009959Y012859D03*
X010668Y012859D03*
D13*
X008372Y020493D03*
X007664Y020493D03*
X007664Y021320D03*
X008372Y021320D03*
X006837Y021320D03*
X006837Y020493D03*
X018475Y016308D03*
X018475Y015584D03*
X018475Y014820D03*
X019301Y014820D03*
X019301Y015584D03*
X019301Y016308D03*
X019301Y013977D03*
X018475Y013977D03*
D14*
X010691Y013710D03*
X009786Y013710D03*
X009786Y015166D03*
X010691Y015166D03*
D15*
X003345Y003040D03*
X003345Y003788D03*
X004211Y003414D03*
X016652Y018962D03*
X016652Y019710D03*
X017518Y019336D03*
D16*
X015383Y009743D03*
X015383Y009243D03*
X015383Y008743D03*
X015383Y008243D03*
X013323Y008243D03*
X013323Y008743D03*
X013323Y009243D03*
X013323Y009743D03*
D17*
X005014Y009135D03*
X005014Y008635D03*
X005014Y008135D03*
X005014Y007635D03*
X005014Y007135D03*
X005014Y006635D03*
X005014Y006135D03*
X002967Y006135D03*
X002967Y006635D03*
X002967Y007135D03*
X002967Y007635D03*
X002967Y008135D03*
X002967Y008635D03*
X002967Y009135D03*
D18*
X005250Y003403D03*
X006353Y003403D03*
X017085Y017442D03*
X018187Y017442D03*
D19*
X003207Y015277D03*
X001412Y015277D03*
D20*
X002309Y012450D03*
D21*
X004731Y011497D03*
X005479Y011497D03*
X005105Y012363D03*
X008353Y014410D03*
X009101Y014410D03*
X008727Y013544D03*
X008943Y009883D03*
X009691Y009883D03*
X009317Y009017D03*
D22*
X010479Y008544D03*
X011935Y008544D03*
X008746Y011930D03*
X007290Y011930D03*
X006699Y010119D03*
X008156Y010119D03*
D23*
X005616Y013643D03*
X005616Y014391D03*
X004790Y014017D03*
D24*
X006640Y018741D03*
D25*
X003766Y017843D03*
X003766Y019639D03*
D26*
X001404Y019666D03*
X001404Y018761D03*
D27*
X001404Y017088D03*
X002506Y017088D03*
D28*
X013569Y020847D03*
X013569Y021221D03*
X013569Y021595D03*
X014593Y021595D03*
X014593Y020847D03*
M02*
