G75*
G70*
%OFA0B0*%
%FSLAX24Y24*%
%IPPOS*%
%LPD*%
%AMOC8*
5,1,8,0,0,1.08239X$1,22.5*
%
%ADD10C,0.0040*%
%ADD11C,0.0080*%
%ADD12C,0.0060*%
%ADD13C,0.0030*%
%ADD14R,0.0079X0.0079*%
%ADD15R,0.0340X0.0300*%
%ADD16C,0.0050*%
%ADD17R,0.0300X0.0340*%
D10*
X009337Y002972D02*
X009414Y002895D01*
X009567Y002895D01*
X009644Y002972D01*
X009644Y003279D01*
X009567Y003355D01*
X009414Y003355D01*
X009337Y003279D01*
X009337Y002972D01*
X009798Y003048D02*
X009951Y003202D01*
X010028Y003202D01*
X010181Y003125D02*
X010258Y003202D01*
X010488Y003202D01*
X010488Y003355D02*
X010488Y002895D01*
X010258Y002895D01*
X010181Y002972D01*
X010181Y003125D01*
X009798Y003202D02*
X009798Y002895D01*
X009798Y003722D02*
X010028Y003722D01*
X010104Y003798D01*
X010104Y003875D01*
X010028Y003952D01*
X009798Y003952D01*
X009644Y003798D02*
X009644Y004105D01*
X009567Y004182D01*
X009414Y004182D01*
X009337Y004105D01*
X009337Y003798D01*
X009414Y003722D01*
X009567Y003722D01*
X009644Y003798D01*
X009798Y003722D02*
X009798Y004182D01*
X010028Y004182D01*
X010104Y004105D01*
X010104Y004029D01*
X010028Y003952D01*
X010258Y004182D02*
X010258Y003722D01*
X010488Y003722D01*
X010565Y003798D01*
X010565Y004105D01*
X010488Y004182D01*
X010258Y004182D01*
X010718Y003952D02*
X011025Y003952D01*
X011179Y004182D02*
X011332Y004182D01*
X011255Y004182D02*
X011255Y003722D01*
X011179Y003722D02*
X011332Y003722D01*
X011485Y003722D02*
X011639Y003722D01*
X011562Y003722D02*
X011562Y004182D01*
X011485Y004182D02*
X011639Y004182D01*
X012253Y004029D02*
X012253Y003722D01*
X012253Y003952D02*
X012560Y003952D01*
X012560Y004029D02*
X012560Y003722D01*
X012713Y003798D02*
X012713Y003952D01*
X012790Y004029D01*
X013020Y004029D01*
X013020Y004182D02*
X013020Y003722D01*
X012790Y003722D01*
X012713Y003798D01*
X012560Y004029D02*
X012406Y004182D01*
X012253Y004029D01*
X012253Y003355D02*
X012253Y002895D01*
X011946Y003355D01*
X011946Y002895D01*
X012406Y002972D02*
X012406Y003202D01*
X012406Y002972D02*
X012483Y002895D01*
X012713Y002895D01*
X012713Y003202D01*
X012867Y003202D02*
X012943Y003202D01*
X013020Y003125D01*
X013097Y003202D01*
X013173Y003125D01*
X013173Y002895D01*
X013020Y002895D02*
X013020Y003125D01*
X012867Y003202D02*
X012867Y002895D01*
X013327Y002895D02*
X013557Y002895D01*
X013634Y002972D01*
X013634Y003125D01*
X013557Y003202D01*
X013327Y003202D01*
X013327Y003355D02*
X013327Y002895D01*
X013787Y002972D02*
X013864Y002895D01*
X014017Y002895D01*
X014094Y003048D02*
X013787Y003048D01*
X013787Y002972D02*
X013787Y003125D01*
X013864Y003202D01*
X014017Y003202D01*
X014094Y003125D01*
X014094Y003048D01*
X014248Y003048D02*
X014401Y003202D01*
X014478Y003202D01*
X014248Y003202D02*
X014248Y002895D01*
X013634Y003568D02*
X013634Y004029D01*
X013864Y004029D01*
X013941Y003952D01*
X013941Y003798D01*
X013864Y003722D01*
X013634Y003722D01*
X013480Y003722D02*
X013480Y003952D01*
X013404Y004029D01*
X013250Y004029D01*
X013250Y003875D02*
X013480Y003875D01*
X013480Y003722D02*
X013250Y003722D01*
X013173Y003798D01*
X013250Y003875D01*
X014094Y004029D02*
X014248Y004029D01*
X014171Y004105D02*
X014171Y003798D01*
X014248Y003722D01*
X014401Y003798D02*
X014401Y003952D01*
X014478Y004029D01*
X014631Y004029D01*
X014708Y003952D01*
X014708Y003875D01*
X014401Y003875D01*
X014401Y003798D02*
X014478Y003722D01*
X014631Y003722D01*
X014861Y003722D02*
X014861Y004029D01*
X014861Y003875D02*
X015015Y004029D01*
X015092Y004029D01*
X015168Y003355D02*
X015092Y003279D01*
X015168Y003355D02*
X015322Y003355D01*
X015398Y003279D01*
X015398Y003202D01*
X015322Y003125D01*
X015398Y003048D01*
X015398Y002972D01*
X015322Y002895D01*
X015168Y002895D01*
X015092Y002972D01*
X015245Y003125D02*
X015322Y003125D01*
X015552Y003048D02*
X015629Y003125D01*
X015782Y003125D01*
X015859Y003048D01*
X015859Y002972D01*
X015782Y002895D01*
X015629Y002895D01*
X015552Y002972D01*
X015552Y003048D01*
X015629Y003125D02*
X015552Y003202D01*
X015552Y003279D01*
X015629Y003355D01*
X015782Y003355D01*
X015859Y003279D01*
X015859Y003202D01*
X015782Y003125D01*
X016012Y003125D02*
X016319Y003125D01*
X016473Y003125D02*
X016626Y003202D01*
X016703Y003202D01*
X016780Y003125D01*
X016780Y002972D01*
X016703Y002895D01*
X016549Y002895D01*
X016473Y002972D01*
X016473Y003125D02*
X016473Y003355D01*
X016780Y003355D01*
X016933Y003202D02*
X017086Y003355D01*
X017086Y002895D01*
X016933Y002895D02*
X017240Y002895D01*
X017086Y003722D02*
X016933Y003722D01*
X016856Y003798D01*
X017163Y004105D01*
X017163Y003798D01*
X017086Y003722D01*
X016856Y003798D02*
X016856Y004105D01*
X016933Y004182D01*
X017086Y004182D01*
X017163Y004105D01*
X016703Y003798D02*
X016703Y003722D01*
X016626Y003722D01*
X016626Y003798D01*
X016703Y003798D01*
X016473Y003722D02*
X016166Y003722D01*
X016319Y003722D02*
X016319Y004182D01*
X016166Y004029D01*
X016012Y003875D02*
X016012Y004182D01*
X015705Y004182D02*
X015705Y003875D01*
X015859Y003722D01*
X016012Y003875D01*
X016242Y003355D02*
X016012Y003125D01*
X016242Y002895D02*
X016242Y003355D01*
X013892Y004967D02*
X013652Y004967D01*
X013772Y004967D02*
X013772Y005328D01*
X013652Y005208D01*
X013524Y005328D02*
X013284Y004967D01*
X013524Y004967D02*
X013284Y005328D01*
X011332Y003202D02*
X011255Y003202D01*
X011102Y003048D01*
X011102Y002895D02*
X011102Y003202D01*
X010948Y003125D02*
X010948Y003048D01*
X010641Y003048D01*
X010641Y002972D02*
X010641Y003125D01*
X010718Y003202D01*
X010872Y003202D01*
X010948Y003125D01*
X010872Y002895D02*
X010718Y002895D01*
X010641Y002972D01*
X014015Y017202D02*
X014015Y017682D01*
X013955Y017622D02*
X014075Y017622D01*
X014135Y017562D01*
X014075Y017442D02*
X013955Y017442D01*
X013895Y017502D01*
X013895Y017562D01*
X013955Y017622D01*
X013767Y017622D02*
X013767Y017322D01*
X013707Y017262D01*
X013587Y017262D01*
X013527Y017322D01*
X013527Y017622D01*
X013895Y017322D02*
X013955Y017262D01*
X014075Y017262D01*
X014135Y017322D01*
X014135Y017382D01*
X014075Y017442D01*
X014264Y017502D02*
X014384Y017622D01*
X014384Y017262D01*
X014264Y017262D02*
X014504Y017262D01*
D11*
X014326Y018074D02*
X015326Y018074D01*
X015326Y010534D01*
X012726Y010534D01*
X012726Y018074D01*
X013726Y018074D01*
X013728Y018040D01*
X013734Y018007D01*
X013743Y017975D01*
X013756Y017944D01*
X013772Y017914D01*
X013791Y017887D01*
X013814Y017862D01*
X013839Y017839D01*
X013866Y017820D01*
X013896Y017804D01*
X013927Y017791D01*
X013959Y017782D01*
X013992Y017776D01*
X014026Y017774D01*
X014060Y017776D01*
X014093Y017782D01*
X014125Y017791D01*
X014156Y017804D01*
X014186Y017820D01*
X014213Y017839D01*
X014238Y017862D01*
X014261Y017887D01*
X014280Y017914D01*
X014296Y017944D01*
X014309Y017975D01*
X014318Y018007D01*
X014324Y018040D01*
X014326Y018074D01*
X014250Y020661D02*
X013912Y020661D01*
X014400Y021116D02*
X014400Y021327D01*
X014250Y021781D02*
X013912Y021781D01*
X010357Y015422D02*
X010120Y015422D01*
X009609Y014674D02*
X009609Y014202D01*
X010120Y013454D02*
X010357Y013454D01*
X010868Y014202D02*
X010868Y014674D01*
X007166Y017451D02*
X004806Y017451D01*
X004806Y020031D01*
X007166Y020031D01*
X002939Y017560D02*
X002939Y016615D01*
X002349Y016615D01*
X001561Y016615D02*
X001128Y016615D01*
X000971Y016773D01*
X000971Y017403D01*
X001128Y017560D01*
X001561Y017560D01*
X002349Y017560D02*
X002939Y017560D01*
X001660Y018859D02*
X001660Y019410D01*
X001148Y019410D01*
X001148Y018859D01*
X001148Y019410D02*
X001148Y019568D01*
X001660Y019568D02*
X001660Y019410D01*
X004947Y014568D02*
X005262Y014568D01*
X004947Y014568D02*
X004947Y014332D01*
X004947Y013702D02*
X004947Y013466D01*
X005262Y013466D01*
X003599Y014237D02*
X003599Y011877D01*
X003599Y014237D02*
X001019Y014237D01*
X001019Y011877D01*
X007624Y007481D02*
X007624Y005379D01*
X007624Y007481D02*
X019750Y007481D01*
X019750Y005379D01*
X013906Y009703D02*
X013908Y009718D01*
X013914Y009731D01*
X013923Y009743D01*
X013934Y009752D01*
X013948Y009758D01*
X013963Y009760D01*
X013978Y009758D01*
X013991Y009752D01*
X014003Y009743D01*
X014012Y009732D01*
X014018Y009718D01*
X014020Y009703D01*
X014018Y009688D01*
X014012Y009675D01*
X014003Y009663D01*
X013992Y009654D01*
X013978Y009648D01*
X013963Y009646D01*
X013948Y009648D01*
X013935Y009654D01*
X013923Y009663D01*
X013914Y009674D01*
X013908Y009688D01*
X013906Y009703D01*
D12*
X013643Y009923D02*
X015062Y009923D01*
X015062Y008063D02*
X013643Y008063D01*
X011758Y009174D02*
X011522Y009174D01*
X011522Y009647D02*
X011758Y009647D01*
X011817Y009938D02*
X011581Y009938D01*
X011581Y010410D02*
X011817Y010410D01*
X010813Y009843D02*
X010813Y009607D01*
X010341Y009607D02*
X010341Y009843D01*
X009364Y010914D02*
X009364Y011151D01*
X008892Y011151D02*
X008892Y010914D01*
X007782Y010828D02*
X007546Y010828D01*
X007546Y011300D02*
X007782Y011300D01*
X006640Y011182D02*
X006640Y011418D01*
X006168Y011418D02*
X006168Y011182D01*
X005223Y010985D02*
X004986Y010985D01*
X004986Y010513D02*
X005223Y010513D01*
X003451Y010631D02*
X003215Y010631D01*
X003215Y010158D02*
X003451Y010158D01*
X002270Y010198D02*
X002270Y009962D01*
X001797Y009962D02*
X001797Y010198D01*
X001790Y008859D02*
X001553Y008859D01*
X001553Y008387D02*
X001790Y008387D01*
X001553Y007371D02*
X001317Y007371D01*
X001317Y006899D02*
X001553Y006899D01*
X001553Y006450D02*
X001317Y006450D01*
X001317Y005977D02*
X001553Y005977D01*
X003018Y005080D02*
X003018Y004843D01*
X003490Y004843D02*
X003490Y005080D01*
X003884Y005080D02*
X003884Y004843D01*
X004357Y004843D02*
X004357Y005080D01*
X004790Y005080D02*
X004790Y004843D01*
X005262Y004843D02*
X005262Y005080D01*
X006010Y005631D02*
X006010Y005867D01*
X006483Y005867D02*
X006483Y005631D01*
X006483Y006733D02*
X006719Y006733D01*
X006719Y007206D02*
X006483Y007206D01*
X007750Y007733D02*
X007986Y007733D01*
X007986Y008206D02*
X007750Y008206D01*
X007758Y008591D02*
X007994Y008591D01*
X007994Y009064D02*
X007758Y009064D01*
X009357Y008426D02*
X009593Y008426D01*
X009593Y007954D02*
X009357Y007954D01*
X010195Y012623D02*
X010431Y012623D01*
X010431Y013095D02*
X010195Y013095D01*
X009526Y015871D02*
X009290Y015871D01*
X009290Y016343D02*
X009526Y016343D01*
X010679Y017615D02*
X010916Y017615D01*
X010916Y018088D02*
X010679Y018088D01*
X010707Y018332D02*
X010943Y018332D01*
X010943Y018804D02*
X010707Y018804D01*
X010707Y019135D02*
X010943Y019135D01*
X010943Y019607D02*
X010707Y019607D01*
X009947Y018308D02*
X009947Y018072D01*
X009475Y018072D02*
X009475Y018308D01*
X012164Y019363D02*
X012164Y019599D01*
X012636Y019599D02*
X012636Y019363D01*
X013636Y019619D02*
X013872Y019619D01*
X013872Y020091D02*
X013636Y020091D01*
X014069Y018847D02*
X014305Y018847D01*
X014305Y018375D02*
X014069Y018375D01*
X015203Y019229D02*
X015203Y019466D01*
X015675Y019466D02*
X015675Y019229D01*
X015853Y021103D02*
X015853Y021340D01*
X015380Y021340D02*
X015380Y021103D01*
X011876Y021182D02*
X011876Y021418D01*
X011404Y021418D02*
X011404Y021182D01*
X006916Y016103D02*
X006679Y016103D01*
X006679Y015631D02*
X006916Y015631D01*
X007388Y015277D02*
X007624Y015277D01*
X007624Y014804D02*
X007388Y014804D01*
X005262Y014843D02*
X005026Y014843D01*
X005026Y015316D02*
X005262Y015316D01*
X005262Y015591D02*
X005026Y015591D01*
X005026Y016064D02*
X005262Y016064D01*
X004002Y016615D02*
X004002Y016851D01*
X003530Y016851D02*
X003530Y016615D01*
X003175Y019174D02*
X003175Y019410D01*
X002703Y019410D02*
X002703Y019174D01*
X002388Y019214D02*
X002388Y019450D01*
X001916Y019450D02*
X001916Y019214D01*
X017242Y013056D02*
X017479Y013056D01*
X017479Y012584D02*
X017242Y012584D01*
X017321Y013741D02*
X017557Y013741D01*
X017557Y014214D02*
X017321Y014214D01*
X017321Y014584D02*
X017557Y014584D01*
X017557Y015056D02*
X017321Y015056D01*
X017321Y015347D02*
X017557Y015347D01*
X017557Y015820D02*
X017321Y015820D01*
X017321Y016072D02*
X017557Y016072D01*
X017557Y016544D02*
X017321Y016544D01*
X018825Y012206D02*
X019061Y012206D01*
X019061Y011733D02*
X018825Y011733D01*
X018884Y010946D02*
X018884Y010710D01*
X019357Y010710D02*
X019357Y010946D01*
X019357Y009647D02*
X019120Y009647D01*
X019120Y009174D02*
X019357Y009174D01*
X018097Y009174D02*
X017860Y009174D01*
X017860Y009647D02*
X018097Y009647D01*
X018097Y010001D02*
X017860Y010001D01*
X017860Y010473D02*
X018097Y010473D01*
X018097Y010867D02*
X017860Y010867D01*
X017860Y011340D02*
X018097Y011340D01*
D13*
X002497Y003707D02*
X002497Y003337D01*
X002742Y003337D02*
X002989Y003337D01*
X002865Y003337D02*
X002865Y003707D01*
X002742Y003584D01*
X002620Y003707D02*
X002374Y003707D01*
X002531Y004369D02*
X002531Y004554D01*
X002593Y004615D01*
X002716Y004615D01*
X002778Y004554D01*
X002778Y004369D01*
X002778Y004492D02*
X002901Y004615D01*
X002839Y004737D02*
X002901Y004799D01*
X002901Y004922D01*
X002839Y004984D01*
X002778Y004984D01*
X002716Y004922D01*
X002716Y004860D01*
X002716Y004922D02*
X002654Y004984D01*
X002593Y004984D01*
X002531Y004922D01*
X002531Y004799D01*
X002593Y004737D01*
X002593Y005105D02*
X002531Y005167D01*
X002531Y005290D01*
X002593Y005352D01*
X002654Y005352D01*
X002716Y005290D01*
X002778Y005352D01*
X002839Y005352D01*
X002901Y005290D01*
X002901Y005167D01*
X002839Y005105D01*
X002716Y005229D02*
X002716Y005290D01*
X001898Y005631D02*
X001836Y005569D01*
X001712Y005569D01*
X001651Y005631D01*
X001651Y005754D02*
X001774Y005816D01*
X001836Y005816D01*
X001898Y005754D01*
X001898Y005631D01*
X001651Y005754D02*
X001651Y005940D01*
X001898Y005940D01*
X001529Y005569D02*
X001282Y005569D01*
X001161Y005569D02*
X001037Y005693D01*
X001099Y005693D02*
X000914Y005693D01*
X000914Y005569D02*
X000914Y005940D01*
X001099Y005940D01*
X001161Y005878D01*
X001161Y005754D01*
X001099Y005693D01*
X001282Y005816D02*
X001406Y005940D01*
X001406Y005569D01*
X002531Y004369D02*
X002901Y004369D01*
X003922Y005582D02*
X003922Y005767D01*
X003984Y005829D01*
X004107Y005829D01*
X004169Y005767D01*
X004169Y005582D01*
X004292Y005582D02*
X003922Y005582D01*
X004169Y005706D02*
X004292Y005829D01*
X004230Y005950D02*
X004292Y006012D01*
X004292Y006136D01*
X004230Y006197D01*
X004169Y006197D01*
X004107Y006136D01*
X004107Y006074D01*
X004107Y006136D02*
X004045Y006197D01*
X003984Y006197D01*
X003922Y006136D01*
X003922Y006012D01*
X003984Y005950D01*
X004107Y006319D02*
X004107Y006566D01*
X004292Y006504D02*
X003922Y006504D01*
X004107Y006319D01*
X004080Y006891D02*
X003956Y006891D01*
X003895Y006952D01*
X003895Y007199D01*
X003956Y007261D01*
X004080Y007261D01*
X004141Y007199D01*
X004263Y007138D02*
X004386Y007261D01*
X004386Y006891D01*
X004263Y006891D02*
X004510Y006891D01*
X004141Y006952D02*
X004080Y006891D01*
X003773Y006891D02*
X003649Y006891D01*
X003711Y006891D02*
X003711Y007261D01*
X003649Y007261D02*
X003773Y007261D01*
X002151Y008963D02*
X002027Y008963D01*
X001966Y009025D01*
X001966Y009086D01*
X002027Y009148D01*
X002151Y009148D01*
X002212Y009086D01*
X002212Y009025D01*
X002151Y008963D01*
X002151Y009148D02*
X002212Y009210D01*
X002212Y009272D01*
X002151Y009333D01*
X002027Y009333D01*
X001966Y009272D01*
X001966Y009210D01*
X002027Y009148D01*
X001844Y008963D02*
X001597Y008963D01*
X001476Y008963D02*
X001352Y009086D01*
X001414Y009086D02*
X001229Y009086D01*
X001229Y008963D02*
X001229Y009333D01*
X001414Y009333D01*
X001476Y009272D01*
X001476Y009148D01*
X001414Y009086D01*
X001597Y009210D02*
X001721Y009333D01*
X001721Y008963D01*
X001694Y009637D02*
X001323Y009637D01*
X001323Y009822D01*
X001385Y009884D01*
X001509Y009884D01*
X001570Y009822D01*
X001570Y009637D01*
X001570Y009761D02*
X001694Y009884D01*
X001632Y010006D02*
X001694Y010067D01*
X001694Y010191D01*
X001632Y010252D01*
X001570Y010252D01*
X001509Y010191D01*
X001509Y010129D01*
X001509Y010191D02*
X001447Y010252D01*
X001385Y010252D01*
X001323Y010191D01*
X001323Y010067D01*
X001385Y010006D01*
X001385Y010374D02*
X001323Y010436D01*
X001323Y010559D01*
X001385Y010621D01*
X001447Y010621D01*
X001694Y010374D01*
X001694Y010621D01*
X002976Y010669D02*
X002976Y011039D01*
X003161Y011039D01*
X003223Y010977D01*
X003223Y010854D01*
X003161Y010792D01*
X002976Y010792D01*
X003099Y010792D02*
X003223Y010669D01*
X003344Y010731D02*
X003406Y010669D01*
X003530Y010669D01*
X003591Y010731D01*
X003591Y010792D01*
X003530Y010854D01*
X003468Y010854D01*
X003530Y010854D02*
X003591Y010916D01*
X003591Y010977D01*
X003530Y011039D01*
X003406Y011039D01*
X003344Y010977D01*
X003713Y011039D02*
X003960Y011039D01*
X003960Y010977D01*
X003713Y010731D01*
X003713Y010669D01*
X004315Y010409D02*
X004315Y010039D01*
X004315Y010162D02*
X004500Y010162D01*
X004561Y010224D01*
X004561Y010348D01*
X004500Y010409D01*
X004315Y010409D01*
X004438Y010162D02*
X004561Y010039D01*
X004683Y010039D02*
X004930Y010286D01*
X004930Y010348D01*
X004868Y010409D01*
X004745Y010409D01*
X004683Y010348D01*
X004683Y010039D02*
X004930Y010039D01*
X005051Y010039D02*
X005051Y010101D01*
X005298Y010348D01*
X005298Y010409D01*
X005051Y010409D01*
X005693Y011015D02*
X005693Y011200D01*
X005755Y011262D01*
X005879Y011262D01*
X005940Y011200D01*
X005940Y011015D01*
X005940Y011139D02*
X006064Y011262D01*
X006064Y011383D02*
X005817Y011630D01*
X005755Y011630D01*
X005693Y011569D01*
X005693Y011445D01*
X005755Y011383D01*
X005693Y011015D02*
X006064Y011015D01*
X006064Y011383D02*
X006064Y011630D01*
X006002Y011752D02*
X006064Y011813D01*
X006064Y011937D01*
X006002Y011999D01*
X005940Y011999D01*
X005879Y011937D01*
X005879Y011752D01*
X006002Y011752D01*
X005879Y011752D02*
X005755Y011875D01*
X005693Y011999D01*
X004923Y012695D02*
X004923Y013065D01*
X004738Y012880D01*
X004985Y012880D01*
X004616Y013065D02*
X004370Y013065D01*
X004493Y013065D02*
X004493Y012695D01*
X004446Y013707D02*
X004199Y013707D01*
X004137Y013768D01*
X004137Y013892D01*
X004199Y013954D01*
X004446Y013954D01*
X004508Y013892D01*
X004508Y013768D01*
X004446Y013707D01*
X004384Y013830D02*
X004508Y013954D01*
X004508Y014075D02*
X004508Y014322D01*
X004508Y014198D02*
X004137Y014198D01*
X004261Y014075D01*
X004194Y014033D02*
X004194Y014280D01*
X004194Y014033D02*
X003947Y014280D01*
X003886Y014280D01*
X003824Y014219D01*
X003824Y014095D01*
X003886Y014033D01*
X003824Y013912D02*
X004133Y013912D01*
X004194Y013850D01*
X004194Y013727D01*
X004133Y013665D01*
X003824Y013665D01*
X005725Y014869D02*
X005725Y015239D01*
X005910Y015239D01*
X005972Y015177D01*
X005972Y015054D01*
X005910Y014992D01*
X005725Y014992D01*
X005849Y014992D02*
X005972Y014869D01*
X006093Y014869D02*
X006340Y015115D01*
X006340Y015177D01*
X006279Y015239D01*
X006155Y015239D01*
X006093Y015177D01*
X006093Y014869D02*
X006340Y014869D01*
X006462Y015054D02*
X006709Y015054D01*
X006647Y014869D02*
X006647Y015239D01*
X006462Y015054D01*
X005652Y016102D02*
X005406Y016102D01*
X005652Y016349D01*
X005652Y016411D01*
X005591Y016472D01*
X005467Y016472D01*
X005406Y016411D01*
X005284Y016411D02*
X005222Y016472D01*
X005099Y016472D01*
X005037Y016411D01*
X004916Y016411D02*
X004916Y016287D01*
X004854Y016225D01*
X004669Y016225D01*
X004669Y016102D02*
X004669Y016472D01*
X004854Y016472D01*
X004916Y016411D01*
X004792Y016225D02*
X004916Y016102D01*
X005037Y016102D02*
X005284Y016349D01*
X005284Y016411D01*
X005284Y016102D02*
X005037Y016102D01*
X004437Y016281D02*
X004437Y016404D01*
X004375Y016466D01*
X004437Y016587D02*
X004437Y016834D01*
X004437Y016956D02*
X004190Y017202D01*
X004128Y017202D01*
X004066Y017141D01*
X004066Y017017D01*
X004128Y016956D01*
X004066Y016711D02*
X004437Y016711D01*
X004437Y016956D02*
X004437Y017202D01*
X004066Y016711D02*
X004190Y016587D01*
X004128Y016466D02*
X004066Y016404D01*
X004066Y016281D01*
X004128Y016219D01*
X004375Y016219D01*
X004437Y016281D01*
X006283Y016220D02*
X006283Y016590D01*
X006468Y016590D01*
X006530Y016529D01*
X006530Y016405D01*
X006468Y016344D01*
X006283Y016344D01*
X006407Y016344D02*
X006530Y016220D01*
X006651Y016220D02*
X006898Y016467D01*
X006898Y016529D01*
X006837Y016590D01*
X006713Y016590D01*
X006651Y016529D01*
X006651Y016220D02*
X006898Y016220D01*
X007020Y016282D02*
X007081Y016220D01*
X007205Y016220D01*
X007267Y016282D01*
X007267Y016344D01*
X007205Y016405D01*
X007143Y016405D01*
X007205Y016405D02*
X007267Y016467D01*
X007267Y016529D01*
X007205Y016590D01*
X007081Y016590D01*
X007020Y016529D01*
X007536Y015751D02*
X007721Y015751D01*
X007783Y015689D01*
X007783Y015565D01*
X007721Y015504D01*
X007536Y015504D01*
X007660Y015504D02*
X007783Y015380D01*
X007904Y015380D02*
X008151Y015627D01*
X008151Y015689D01*
X008090Y015751D01*
X007966Y015751D01*
X007904Y015689D01*
X007904Y015380D02*
X008151Y015380D01*
X008273Y015442D02*
X008334Y015380D01*
X008458Y015380D01*
X008520Y015442D01*
X008520Y015565D01*
X008458Y015627D01*
X008396Y015627D01*
X008273Y015565D01*
X008273Y015751D01*
X008520Y015751D01*
X009184Y016447D02*
X009308Y016447D01*
X009370Y016509D01*
X009491Y016509D02*
X009553Y016447D01*
X009676Y016447D01*
X009738Y016509D01*
X009738Y016632D01*
X009676Y016694D01*
X009614Y016694D01*
X009491Y016632D01*
X009491Y016818D01*
X009738Y016818D01*
X009370Y016756D02*
X009308Y016818D01*
X009184Y016818D01*
X009123Y016756D01*
X009123Y016509D01*
X009184Y016447D01*
X009247Y017708D02*
X009247Y017893D01*
X009186Y017955D01*
X009062Y017955D01*
X009001Y017893D01*
X009001Y017708D01*
X009371Y017708D01*
X009247Y017831D02*
X009371Y017955D01*
X009309Y018076D02*
X009371Y018138D01*
X009371Y018262D01*
X009309Y018323D01*
X009247Y018323D01*
X009186Y018262D01*
X009186Y018200D01*
X009186Y018262D02*
X009124Y018323D01*
X009062Y018323D01*
X009001Y018262D01*
X009001Y018138D01*
X009062Y018076D01*
X009062Y018445D02*
X009001Y018506D01*
X009001Y018630D01*
X009062Y018692D01*
X009124Y018692D01*
X009186Y018630D01*
X009186Y018506D01*
X009124Y018445D01*
X009062Y018445D01*
X009186Y018506D02*
X009247Y018445D01*
X009309Y018445D01*
X009371Y018506D01*
X009371Y018630D01*
X009309Y018692D01*
X009247Y018692D01*
X009186Y018630D01*
X009257Y019948D02*
X008887Y019948D01*
X008887Y020317D02*
X009257Y020317D01*
X009257Y020563D01*
X009257Y020685D02*
X008887Y020685D01*
X008887Y020870D01*
X008949Y020932D01*
X009196Y020932D01*
X009257Y020870D01*
X009257Y020685D01*
X009072Y020440D02*
X009072Y020317D01*
X008887Y020317D02*
X008887Y020563D01*
X009257Y020195D02*
X009257Y019948D01*
X008549Y019948D02*
X008549Y020195D01*
X008549Y020317D02*
X008549Y020563D01*
X008549Y020685D02*
X008549Y020870D01*
X008487Y020932D01*
X008240Y020932D01*
X008178Y020870D01*
X008178Y020685D01*
X008549Y020685D01*
X008363Y020440D02*
X008363Y020317D01*
X008178Y020317D02*
X008178Y020563D01*
X008178Y020317D02*
X008549Y020317D01*
X008549Y019948D02*
X008178Y019948D01*
X007722Y019948D02*
X007722Y020195D01*
X007722Y020317D02*
X007722Y020563D01*
X007722Y020685D02*
X007722Y020870D01*
X007660Y020932D01*
X007413Y020932D01*
X007352Y020870D01*
X007352Y020685D01*
X007722Y020685D01*
X007537Y020440D02*
X007537Y020317D01*
X007352Y020317D02*
X007722Y020317D01*
X007722Y019948D02*
X007352Y019948D01*
X007352Y020317D02*
X007352Y020563D01*
X007537Y021053D02*
X007537Y021238D01*
X007598Y021300D01*
X007660Y021300D01*
X007722Y021238D01*
X007722Y021115D01*
X007660Y021053D01*
X007537Y021053D01*
X007413Y021177D01*
X007352Y021300D01*
X008178Y021300D02*
X008178Y021053D01*
X008363Y021053D01*
X008302Y021177D01*
X008302Y021238D01*
X008363Y021300D01*
X008487Y021300D01*
X008549Y021238D01*
X008549Y021115D01*
X008487Y021053D01*
X008887Y021053D02*
X008887Y021300D01*
X008949Y021300D01*
X009196Y021053D01*
X009257Y021053D01*
X010758Y019954D02*
X010758Y019707D01*
X010819Y019645D01*
X010943Y019645D01*
X011005Y019707D01*
X011126Y019645D02*
X011373Y019645D01*
X011249Y019645D02*
X011249Y020016D01*
X011126Y019892D01*
X011005Y019954D02*
X010943Y020016D01*
X010819Y020016D01*
X010758Y019954D01*
X011690Y019688D02*
X012060Y019688D01*
X012060Y019565D02*
X012060Y019811D01*
X011813Y019565D02*
X011690Y019688D01*
X011751Y019443D02*
X011875Y019443D01*
X011936Y019381D01*
X011936Y019196D01*
X011936Y019320D02*
X012060Y019443D01*
X012060Y019196D02*
X011690Y019196D01*
X011690Y019381D01*
X011751Y019443D01*
X011836Y018806D02*
X011960Y018806D01*
X012021Y018744D01*
X012021Y018682D01*
X011960Y018621D01*
X012021Y018559D01*
X012021Y018497D01*
X011960Y018435D01*
X011836Y018435D01*
X011774Y018497D01*
X011653Y018435D02*
X011530Y018559D01*
X011591Y018559D02*
X011406Y018559D01*
X011406Y018435D02*
X011406Y018806D01*
X011591Y018806D01*
X011653Y018744D01*
X011653Y018621D01*
X011591Y018559D01*
X011774Y018744D02*
X011836Y018806D01*
X011898Y018621D02*
X011960Y018621D01*
X011008Y017551D02*
X010885Y017551D01*
X010823Y017489D01*
X010701Y017489D02*
X010701Y017366D01*
X010640Y017304D01*
X010455Y017304D01*
X010578Y017304D02*
X010701Y017181D01*
X010823Y017181D02*
X011070Y017428D01*
X011070Y017489D01*
X011008Y017551D01*
X010701Y017489D02*
X010640Y017551D01*
X010455Y017551D01*
X010455Y017181D01*
X010823Y017181D02*
X011070Y017181D01*
X010379Y014816D02*
X010379Y014569D01*
X010379Y014693D02*
X010009Y014693D01*
X010132Y014569D01*
X010070Y014448D02*
X010009Y014448D01*
X010070Y014448D02*
X010194Y014324D01*
X010379Y014324D01*
X010194Y014324D02*
X010070Y014201D01*
X010009Y014201D01*
X010051Y012585D02*
X009989Y012524D01*
X009989Y012277D01*
X010051Y012215D01*
X010174Y012215D01*
X010236Y012277D01*
X010357Y012400D02*
X010604Y012400D01*
X010542Y012215D02*
X010542Y012585D01*
X010357Y012400D01*
X010236Y012524D02*
X010174Y012585D01*
X010051Y012585D01*
X009776Y011226D02*
X009715Y011226D01*
X009653Y011164D01*
X009653Y010979D01*
X009776Y010979D01*
X009838Y011041D01*
X009838Y011164D01*
X009776Y011226D01*
X009530Y011103D02*
X009653Y010979D01*
X009530Y010858D02*
X009468Y010796D01*
X009468Y010673D01*
X009530Y010611D01*
X009776Y010611D01*
X009838Y010673D01*
X009838Y010796D01*
X009776Y010858D01*
X009530Y011103D02*
X009468Y011226D01*
X010007Y010227D02*
X010254Y009980D01*
X010316Y010042D01*
X010316Y010165D01*
X010254Y010227D01*
X010007Y010227D01*
X009945Y010165D01*
X009945Y010042D01*
X010007Y009980D01*
X010254Y009980D01*
X010254Y009859D02*
X010316Y009797D01*
X010316Y009674D01*
X010254Y009612D01*
X010316Y009490D02*
X010192Y009367D01*
X010192Y009429D02*
X010192Y009244D01*
X010316Y009244D02*
X009945Y009244D01*
X009945Y009429D01*
X010007Y009490D01*
X010131Y009490D01*
X010192Y009429D01*
X010007Y009612D02*
X009945Y009674D01*
X009945Y009797D01*
X010007Y009859D01*
X010069Y009859D01*
X010131Y009797D01*
X010192Y009859D01*
X010254Y009859D01*
X010131Y009797D02*
X010131Y009735D01*
X009074Y009323D02*
X009074Y009199D01*
X009013Y009138D01*
X008889Y009138D02*
X008827Y009261D01*
X008827Y009323D01*
X008889Y009385D01*
X009013Y009385D01*
X009074Y009323D01*
X008889Y009138D02*
X008704Y009138D01*
X008704Y009385D01*
X008704Y009016D02*
X008704Y008769D01*
X008704Y008893D02*
X009074Y008893D01*
X008424Y009063D02*
X008177Y009063D01*
X008424Y009309D01*
X008424Y009371D01*
X008362Y009433D01*
X008239Y009433D01*
X008177Y009371D01*
X007932Y009433D02*
X007932Y009063D01*
X007809Y009063D02*
X008056Y009063D01*
X007809Y009309D02*
X007932Y009433D01*
X007687Y009371D02*
X007687Y009248D01*
X007626Y009186D01*
X007441Y009186D01*
X007564Y009186D02*
X007687Y009063D01*
X007687Y009371D02*
X007626Y009433D01*
X007441Y009433D01*
X007441Y009063D01*
X007393Y007669D02*
X007579Y007669D01*
X007640Y007607D01*
X007640Y007484D01*
X007579Y007422D01*
X007393Y007422D01*
X007393Y007299D02*
X007393Y007669D01*
X007517Y007422D02*
X007640Y007299D01*
X007762Y007299D02*
X008009Y007299D01*
X008130Y007299D02*
X008130Y007361D01*
X008377Y007607D01*
X008377Y007669D01*
X008130Y007669D01*
X007885Y007669D02*
X007885Y007299D01*
X007762Y007546D02*
X007885Y007669D01*
X008685Y007603D02*
X008870Y007603D01*
X008932Y007665D01*
X008932Y007789D01*
X008870Y007850D01*
X008685Y007850D01*
X008685Y007480D01*
X008808Y007603D02*
X008932Y007480D01*
X009053Y007480D02*
X009300Y007727D01*
X009300Y007789D01*
X009238Y007850D01*
X009115Y007850D01*
X009053Y007789D01*
X009053Y007480D02*
X009300Y007480D01*
X009421Y007542D02*
X009483Y007480D01*
X009606Y007480D01*
X009668Y007542D01*
X009668Y007789D01*
X009606Y007850D01*
X009483Y007850D01*
X009421Y007789D01*
X009421Y007727D01*
X009483Y007665D01*
X009668Y007665D01*
X010907Y008362D02*
X011092Y008362D01*
X011154Y008424D01*
X011154Y008671D01*
X011092Y008733D01*
X010907Y008733D01*
X010907Y008362D01*
X011275Y008424D02*
X011337Y008362D01*
X011460Y008362D01*
X011522Y008424D01*
X011522Y008486D01*
X011460Y008548D01*
X011399Y008548D01*
X011460Y008548D02*
X011522Y008609D01*
X011522Y008671D01*
X011460Y008733D01*
X011337Y008733D01*
X011275Y008671D01*
X012221Y009300D02*
X012221Y009547D01*
X012283Y009609D01*
X012406Y009609D01*
X012468Y009547D01*
X012589Y009609D02*
X012836Y009609D01*
X012836Y009547D01*
X012589Y009300D01*
X012589Y009239D01*
X012468Y009300D02*
X012406Y009239D01*
X012283Y009239D01*
X012221Y009300D01*
X012280Y010010D02*
X012280Y010381D01*
X012465Y010381D01*
X012527Y010319D01*
X012527Y010195D01*
X012465Y010134D01*
X012280Y010134D01*
X012404Y010134D02*
X012527Y010010D01*
X012649Y010072D02*
X012649Y010134D01*
X012710Y010195D01*
X012834Y010195D01*
X012895Y010134D01*
X012895Y010072D01*
X012834Y010010D01*
X012710Y010010D01*
X012649Y010072D01*
X012710Y010195D02*
X012649Y010257D01*
X012649Y010319D01*
X012710Y010381D01*
X012834Y010381D01*
X012895Y010319D01*
X012895Y010257D01*
X012834Y010195D01*
X014367Y009263D02*
X014491Y009140D01*
X014367Y009018D02*
X014676Y009018D01*
X014738Y008957D01*
X014738Y008833D01*
X014676Y008771D01*
X014367Y008771D01*
X014367Y009263D02*
X014738Y009263D01*
X014738Y009140D02*
X014738Y009387D01*
X016323Y009504D02*
X016323Y009133D01*
X016323Y009257D02*
X016508Y009257D01*
X016569Y009319D01*
X016569Y009442D01*
X016508Y009504D01*
X016323Y009504D01*
X016446Y009257D02*
X016569Y009133D01*
X016691Y009133D02*
X016938Y009380D01*
X016938Y009442D01*
X016876Y009504D01*
X016753Y009504D01*
X016691Y009442D01*
X016691Y009133D02*
X016938Y009133D01*
X017059Y009195D02*
X017306Y009442D01*
X017306Y009195D01*
X017244Y009133D01*
X017121Y009133D01*
X017059Y009195D01*
X017059Y009442D01*
X017121Y009504D01*
X017244Y009504D01*
X017306Y009442D01*
X017306Y010000D02*
X017059Y010000D01*
X016938Y010000D02*
X016691Y010000D01*
X016938Y010246D01*
X016938Y010308D01*
X016876Y010370D01*
X016753Y010370D01*
X016691Y010308D01*
X016569Y010308D02*
X016569Y010185D01*
X016508Y010123D01*
X016323Y010123D01*
X016446Y010123D02*
X016569Y010000D01*
X016323Y010000D02*
X016323Y010370D01*
X016508Y010370D01*
X016569Y010308D01*
X017059Y010246D02*
X017183Y010370D01*
X017183Y010000D01*
X017200Y010621D02*
X017200Y010807D01*
X017138Y010868D01*
X017015Y010868D01*
X016953Y010807D01*
X016953Y010621D01*
X017324Y010621D01*
X017200Y010745D02*
X017324Y010868D01*
X017324Y010990D02*
X017324Y011237D01*
X017324Y011113D02*
X016953Y011113D01*
X017077Y010990D01*
X017077Y011358D02*
X017138Y011420D01*
X017138Y011605D01*
X017015Y011605D02*
X017262Y011605D01*
X017324Y011543D01*
X017324Y011420D01*
X017262Y011358D01*
X017077Y011358D02*
X017015Y011358D01*
X016953Y011420D01*
X016953Y011543D01*
X017015Y011605D01*
X017079Y012149D02*
X017203Y012149D01*
X017264Y012211D01*
X017386Y012211D02*
X017448Y012149D01*
X017571Y012149D01*
X017633Y012211D01*
X017633Y012273D01*
X017571Y012334D01*
X017509Y012334D01*
X017571Y012334D02*
X017633Y012396D01*
X017633Y012458D01*
X017571Y012520D01*
X017448Y012520D01*
X017386Y012458D01*
X017264Y012458D02*
X017203Y012520D01*
X017079Y012520D01*
X017018Y012458D01*
X017018Y012211D01*
X017079Y012149D01*
X016917Y013686D02*
X016547Y013686D01*
X016547Y013871D01*
X016608Y013932D01*
X016732Y013932D01*
X016794Y013871D01*
X016794Y013686D01*
X016794Y013809D02*
X016917Y013932D01*
X016917Y014054D02*
X016855Y014054D01*
X016608Y014301D01*
X016547Y014301D01*
X016547Y014054D01*
X016491Y014512D02*
X016491Y014698D01*
X016553Y014759D01*
X016677Y014759D01*
X016738Y014698D01*
X016738Y014512D01*
X016862Y014512D02*
X016491Y014512D01*
X016738Y014636D02*
X016862Y014759D01*
X016800Y014881D02*
X016677Y014881D01*
X016677Y015066D01*
X016738Y015128D01*
X016800Y015128D01*
X016862Y015066D01*
X016862Y014942D01*
X016800Y014881D01*
X016677Y014881D02*
X016553Y015004D01*
X016491Y015128D01*
X016515Y015260D02*
X016515Y015446D01*
X016577Y015507D01*
X016700Y015507D01*
X016762Y015446D01*
X016762Y015260D01*
X016885Y015260D02*
X016515Y015260D01*
X016762Y015384D02*
X016885Y015507D01*
X016824Y015629D02*
X016885Y015690D01*
X016885Y015814D01*
X016824Y015876D01*
X016700Y015876D01*
X016639Y015814D01*
X016639Y015752D01*
X016700Y015629D01*
X016515Y015629D01*
X016515Y015876D01*
X016499Y016048D02*
X016499Y016233D01*
X016561Y016295D01*
X016685Y016295D01*
X016746Y016233D01*
X016746Y016048D01*
X016746Y016171D02*
X016870Y016295D01*
X016685Y016416D02*
X016685Y016663D01*
X016870Y016601D02*
X016499Y016601D01*
X016685Y016416D01*
X016870Y016048D02*
X016499Y016048D01*
X017046Y017945D02*
X017046Y018316D01*
X017231Y018316D01*
X017293Y018254D01*
X017293Y018131D01*
X017231Y018069D01*
X017046Y018069D01*
X017170Y018069D02*
X017293Y017945D01*
X017414Y017945D02*
X017661Y017945D01*
X017538Y017945D02*
X017538Y018316D01*
X017414Y018192D01*
X017783Y018254D02*
X017844Y018316D01*
X017968Y018316D01*
X018030Y018254D01*
X018030Y018192D01*
X017968Y018131D01*
X018030Y018069D01*
X018030Y018007D01*
X017968Y017945D01*
X017844Y017945D01*
X017783Y018007D01*
X017906Y018131D02*
X017968Y018131D01*
X017697Y019675D02*
X017450Y019675D01*
X017697Y019922D01*
X017697Y019984D01*
X017636Y020046D01*
X017512Y020046D01*
X017450Y019984D01*
X017329Y020046D02*
X017082Y020046D01*
X017206Y020046D02*
X017206Y019675D01*
X016110Y019755D02*
X015740Y019755D01*
X015925Y019570D01*
X015925Y019817D01*
X016110Y019448D02*
X016110Y019201D01*
X016110Y019080D02*
X015986Y018956D01*
X015986Y019018D02*
X015986Y018833D01*
X016110Y018833D02*
X015740Y018833D01*
X015740Y019018D01*
X015801Y019080D01*
X015925Y019080D01*
X015986Y019018D01*
X015863Y019201D02*
X015740Y019325D01*
X016110Y019325D01*
X016225Y020746D02*
X015978Y020746D01*
X015917Y020808D01*
X015917Y020932D01*
X015978Y020993D01*
X016040Y021115D02*
X015917Y021238D01*
X016287Y021238D01*
X016287Y021115D02*
X016287Y021362D01*
X016225Y021483D02*
X016287Y021545D01*
X016287Y021668D01*
X016225Y021730D01*
X016102Y021730D01*
X016040Y021668D01*
X016040Y021606D01*
X016102Y021483D01*
X015917Y021483D01*
X015917Y021730D01*
X016225Y020993D02*
X016287Y020932D01*
X016287Y020808D01*
X016225Y020746D01*
X014550Y021771D02*
X014550Y022142D01*
X014364Y021957D01*
X014611Y021957D01*
X014243Y021895D02*
X014181Y021957D01*
X014058Y021957D01*
X013996Y022018D01*
X013996Y022080D01*
X014058Y022142D01*
X014181Y022142D01*
X014243Y022080D01*
X014120Y022203D02*
X014120Y021710D01*
X014058Y021771D02*
X014181Y021771D01*
X014243Y021833D01*
X014243Y021895D01*
X014058Y021771D02*
X013996Y021833D01*
X013875Y021833D02*
X013875Y022142D01*
X013628Y022142D02*
X013628Y021833D01*
X013690Y021771D01*
X013813Y021771D01*
X013875Y021833D01*
X013748Y020503D02*
X013748Y020132D01*
X013625Y020132D02*
X013872Y020132D01*
X013993Y020194D02*
X014240Y020441D01*
X014240Y020194D01*
X014178Y020132D01*
X014055Y020132D01*
X013993Y020194D01*
X013993Y020441D01*
X014055Y020503D01*
X014178Y020503D01*
X014240Y020441D01*
X013748Y020503D02*
X013625Y020379D01*
X013503Y020317D02*
X013442Y020256D01*
X013257Y020256D01*
X013380Y020256D02*
X013503Y020132D01*
X013503Y020317D02*
X013503Y020441D01*
X013442Y020503D01*
X013257Y020503D01*
X013257Y020132D01*
X013964Y019321D02*
X013902Y019260D01*
X013902Y019013D01*
X013964Y018951D01*
X014087Y018951D01*
X014149Y019013D01*
X014271Y018951D02*
X014517Y019198D01*
X014517Y019260D01*
X014456Y019321D01*
X014332Y019321D01*
X014271Y019260D01*
X014149Y019260D02*
X014087Y019321D01*
X013964Y019321D01*
X014271Y018951D02*
X014517Y018951D01*
X012389Y020808D02*
X012389Y020932D01*
X012328Y020993D01*
X012389Y021115D02*
X012389Y021362D01*
X012389Y021238D02*
X012019Y021238D01*
X012143Y021115D01*
X012081Y020993D02*
X012019Y020932D01*
X012019Y020808D01*
X012081Y020746D01*
X012328Y020746D01*
X012389Y020808D01*
X012204Y021483D02*
X012204Y021730D01*
X012019Y021668D02*
X012204Y021483D01*
X012389Y021668D02*
X012019Y021668D01*
X007536Y015751D02*
X007536Y015380D01*
X008096Y013873D02*
X008035Y013811D01*
X008035Y013688D01*
X008096Y013626D01*
X008035Y013505D02*
X008035Y013258D01*
X008035Y013381D02*
X008405Y013381D01*
X008343Y013626D02*
X008405Y013688D01*
X008405Y013811D01*
X008343Y013873D01*
X008281Y013873D01*
X008220Y013811D01*
X008220Y013749D01*
X008220Y013811D02*
X008158Y013873D01*
X008096Y013873D01*
X008092Y012709D02*
X007968Y012586D01*
X007847Y012647D02*
X007847Y012400D01*
X007785Y012339D01*
X007600Y012339D01*
X007600Y012709D01*
X007785Y012709D01*
X007847Y012647D01*
X007968Y012339D02*
X008215Y012339D01*
X008092Y012339D02*
X008092Y012709D01*
X008177Y011774D02*
X008300Y011774D01*
X008362Y011713D01*
X008362Y011651D01*
X008300Y011589D01*
X008177Y011589D01*
X008115Y011651D01*
X008115Y011713D01*
X008177Y011774D01*
X008177Y011589D02*
X008115Y011527D01*
X008115Y011466D01*
X008177Y011404D01*
X008300Y011404D01*
X008362Y011466D01*
X008362Y011527D01*
X008300Y011589D01*
X007994Y011651D02*
X007994Y011713D01*
X007932Y011774D01*
X007809Y011774D01*
X007747Y011713D01*
X007625Y011713D02*
X007625Y011589D01*
X007564Y011527D01*
X007379Y011527D01*
X007502Y011527D02*
X007625Y011404D01*
X007747Y011404D02*
X007994Y011651D01*
X007994Y011404D02*
X007747Y011404D01*
X007625Y011713D02*
X007564Y011774D01*
X007379Y011774D01*
X007379Y011404D01*
X007439Y010898D02*
X007378Y010836D01*
X007439Y010898D02*
X007563Y010898D01*
X007624Y010836D01*
X007624Y010775D01*
X007378Y010528D01*
X007624Y010528D01*
X007256Y010589D02*
X007256Y010836D01*
X007194Y010898D01*
X007009Y010898D01*
X007009Y010528D01*
X007194Y010528D01*
X007256Y010589D01*
X006676Y007653D02*
X006429Y007653D01*
X006429Y007468D01*
X006553Y007530D01*
X006614Y007530D01*
X006676Y007468D01*
X006676Y007345D01*
X006614Y007283D01*
X006491Y007283D01*
X006429Y007345D01*
X006308Y007345D02*
X006246Y007283D01*
X006123Y007283D01*
X006061Y007345D01*
X005939Y007283D02*
X005816Y007406D01*
X005878Y007406D02*
X005693Y007406D01*
X005693Y007283D02*
X005693Y007653D01*
X005878Y007653D01*
X005939Y007592D01*
X005939Y007468D01*
X005878Y007406D01*
X006061Y007592D02*
X006123Y007653D01*
X006246Y007653D01*
X006308Y007592D01*
X006308Y007530D01*
X006246Y007468D01*
X006308Y007406D01*
X006308Y007345D01*
X006246Y007468D02*
X006184Y007468D01*
X006599Y006211D02*
X006661Y006088D01*
X006784Y005964D01*
X006784Y006150D01*
X006846Y006211D01*
X006908Y006211D01*
X006969Y006150D01*
X006969Y006026D01*
X006908Y005964D01*
X006784Y005964D01*
X006722Y005843D02*
X006784Y005781D01*
X006846Y005843D01*
X006908Y005843D01*
X006969Y005781D01*
X006969Y005658D01*
X006908Y005596D01*
X006969Y005475D02*
X006846Y005351D01*
X006846Y005413D02*
X006846Y005228D01*
X006969Y005228D02*
X006599Y005228D01*
X006599Y005413D01*
X006661Y005475D01*
X006784Y005475D01*
X006846Y005413D01*
X006661Y005596D02*
X006599Y005658D01*
X006599Y005781D01*
X006661Y005843D01*
X006722Y005843D01*
X006784Y005781D02*
X006784Y005719D01*
X005709Y005503D02*
X005709Y005256D01*
X005709Y005379D02*
X005339Y005379D01*
X005463Y005256D01*
X005463Y005134D02*
X005401Y005134D01*
X005339Y005073D01*
X005339Y004949D01*
X005401Y004887D01*
X005401Y004766D02*
X005524Y004766D01*
X005586Y004704D01*
X005586Y004519D01*
X005709Y004519D02*
X005339Y004519D01*
X005339Y004704D01*
X005401Y004766D01*
X005586Y004643D02*
X005709Y004766D01*
X005648Y004887D02*
X005709Y004949D01*
X005709Y005073D01*
X005648Y005134D01*
X005586Y005134D01*
X005524Y005073D01*
X005524Y005011D01*
X005524Y005073D02*
X005463Y005134D01*
X006812Y003608D02*
X006998Y003608D01*
X007059Y003546D01*
X007059Y003423D01*
X006998Y003361D01*
X006812Y003361D01*
X006812Y003238D02*
X006812Y003608D01*
X006936Y003361D02*
X007059Y003238D01*
X007181Y003238D02*
X007428Y003238D01*
X007549Y003238D02*
X007796Y003238D01*
X007673Y003238D02*
X007673Y003608D01*
X007549Y003484D01*
X007304Y003608D02*
X007304Y003238D01*
X007181Y003484D02*
X007304Y003608D01*
X001983Y007471D02*
X001983Y007532D01*
X001921Y007594D01*
X001736Y007594D01*
X001736Y007471D01*
X001798Y007409D01*
X001921Y007409D01*
X001983Y007471D01*
X001860Y007718D02*
X001736Y007594D01*
X001860Y007718D02*
X001983Y007779D01*
X001615Y007409D02*
X001368Y007409D01*
X001247Y007409D02*
X001123Y007532D01*
X001185Y007532D02*
X001000Y007532D01*
X001000Y007409D02*
X001000Y007779D01*
X001185Y007779D01*
X001247Y007718D01*
X001247Y007594D01*
X001185Y007532D01*
X001368Y007656D02*
X001491Y007779D01*
X001491Y007409D01*
X001454Y016198D02*
X001393Y016260D01*
X001393Y016507D01*
X001454Y016569D01*
X001578Y016569D01*
X001639Y016507D01*
X001761Y016445D02*
X001884Y016569D01*
X001884Y016198D01*
X001761Y016198D02*
X002008Y016198D01*
X002129Y016260D02*
X002191Y016198D01*
X002314Y016198D01*
X002376Y016260D01*
X002376Y016322D01*
X002314Y016383D01*
X002253Y016383D01*
X002314Y016383D02*
X002376Y016445D01*
X002376Y016507D01*
X002314Y016569D01*
X002191Y016569D01*
X002129Y016507D01*
X001639Y016260D02*
X001578Y016198D01*
X001454Y016198D01*
X002054Y019913D02*
X002301Y019913D01*
X002363Y019974D01*
X002363Y020098D01*
X002301Y020160D01*
X002363Y020281D02*
X002363Y020528D01*
X002363Y020649D02*
X002363Y020896D01*
X002363Y020773D02*
X001993Y020773D01*
X002116Y020649D01*
X001993Y020405D02*
X002363Y020405D01*
X002116Y020281D02*
X001993Y020405D01*
X001619Y020495D02*
X001248Y020495D01*
X001434Y020310D01*
X001434Y020557D01*
X001557Y020188D02*
X001310Y020188D01*
X001248Y020127D01*
X001248Y019942D01*
X001619Y019942D01*
X001619Y020127D01*
X001557Y020188D01*
X001993Y020098D02*
X001993Y019974D01*
X002054Y019913D01*
X001993Y020098D02*
X002054Y020160D01*
X002741Y020137D02*
X002741Y020014D01*
X002802Y019952D01*
X003049Y019952D01*
X003111Y020014D01*
X003111Y020137D01*
X003049Y020199D01*
X003111Y020320D02*
X003111Y020567D01*
X003111Y020444D02*
X002741Y020444D01*
X002864Y020320D01*
X002802Y020199D02*
X002741Y020137D01*
X002802Y020689D02*
X002741Y020750D01*
X002741Y020874D01*
X002802Y020936D01*
X003049Y020689D01*
X003111Y020750D01*
X003111Y020874D01*
X003049Y020936D01*
X002802Y020936D01*
X002802Y020689D02*
X003049Y020689D01*
X006107Y018982D02*
X006169Y019044D01*
X006231Y019044D01*
X006293Y018982D01*
X006354Y019044D01*
X006416Y019044D01*
X006478Y018982D01*
X006478Y018859D01*
X006416Y018797D01*
X006416Y018676D02*
X006478Y018614D01*
X006478Y018491D01*
X006416Y018429D01*
X006169Y018429D01*
X006107Y018491D01*
X006107Y018614D01*
X006169Y018676D01*
X006169Y018797D02*
X006107Y018859D01*
X006107Y018982D01*
X006293Y018982D02*
X006293Y018921D01*
X006478Y018307D02*
X006478Y018183D01*
X006478Y018245D02*
X006107Y018245D01*
X006107Y018183D02*
X006107Y018307D01*
X018737Y012680D02*
X018737Y012309D01*
X018737Y012433D02*
X018922Y012433D01*
X018984Y012495D01*
X018984Y012618D01*
X018922Y012680D01*
X018737Y012680D01*
X018860Y012433D02*
X018984Y012309D01*
X019105Y012371D02*
X019167Y012309D01*
X019290Y012309D01*
X019352Y012371D01*
X019352Y012618D01*
X019290Y012680D01*
X019167Y012680D01*
X019105Y012618D01*
X019105Y012556D01*
X019167Y012495D01*
X019352Y012495D01*
X019522Y011021D02*
X019460Y010960D01*
X019460Y010836D01*
X019522Y010774D01*
X019583Y010774D01*
X019645Y010836D01*
X019645Y011021D01*
X019522Y011021D02*
X019769Y011021D01*
X019830Y010960D01*
X019830Y010836D01*
X019769Y010774D01*
X019769Y010653D02*
X019830Y010591D01*
X019830Y010468D01*
X019769Y010406D01*
X019522Y010406D01*
X019460Y010468D01*
X019460Y010591D01*
X019522Y010653D01*
X019410Y009031D02*
X019286Y009031D01*
X019224Y008970D01*
X019224Y008908D01*
X019286Y008846D01*
X019410Y008846D01*
X019471Y008784D01*
X019471Y008723D01*
X019410Y008661D01*
X019286Y008661D01*
X019224Y008723D01*
X019224Y008784D01*
X019286Y008846D01*
X019410Y008846D02*
X019471Y008908D01*
X019471Y008970D01*
X019410Y009031D01*
X019103Y008970D02*
X019041Y009031D01*
X018918Y009031D01*
X018856Y008970D01*
X018856Y008723D01*
X018918Y008661D01*
X019041Y008661D01*
X019103Y008723D01*
D14*
X018849Y013977D03*
X018849Y014820D03*
X018849Y015584D03*
X018849Y016308D03*
X008372Y020867D03*
X007664Y020867D03*
X006837Y020867D03*
D15*
X002309Y014427D03*
D16*
X001805Y016688D02*
X001805Y017488D01*
X007318Y012230D02*
X007318Y011630D01*
X008718Y011630D01*
X008718Y012230D01*
X007318Y012230D01*
X006727Y010419D02*
X006727Y009819D01*
X008127Y009819D01*
X008127Y010419D01*
X006727Y010419D01*
X010507Y008844D02*
X010507Y008244D01*
X011907Y008244D01*
X011907Y008844D01*
X010507Y008844D01*
D17*
X004616Y018741D03*
M02*
